G75*
G70*
%OFA0B0*%
%FSLAX24Y24*%
%IPPOS*%
%LPD*%
%AMOC8*
5,1,8,0,0,1.08239X$1,22.5*
%
%ADD10C,0.0004*%
%ADD11C,0.0000*%
%ADD12R,0.0591X0.0512*%
%ADD13R,0.0512X0.0591*%
%ADD14R,0.0984X0.2362*%
%ADD15R,0.0394X0.0984*%
%ADD16C,0.0030*%
%ADD17C,0.0033*%
%ADD18R,0.0236X0.0866*%
%ADD19R,0.1560X0.1560*%
%ADD20R,0.1250X0.1250*%
%ADD21R,0.0394X0.1811*%
%ADD22R,0.0630X0.1339*%
%ADD23R,0.0472X0.1260*%
%ADD24R,0.0472X0.0472*%
D10*
X000503Y010346D02*
X000515Y010829D01*
X000550Y011311D01*
X000610Y011790D01*
X000692Y012266D01*
X000798Y012738D01*
X000927Y013203D01*
X001078Y013662D01*
X001252Y014113D01*
X001448Y014554D01*
X001665Y014986D01*
X001903Y015406D01*
X002162Y015814D01*
X002440Y016209D01*
X002737Y016590D01*
X003053Y016956D01*
X003386Y017306D01*
X003736Y017639D01*
X004102Y017955D01*
X004483Y018252D01*
X004878Y018530D01*
X005286Y018789D01*
X005706Y019027D01*
X006138Y019244D01*
X006579Y019440D01*
X007030Y019614D01*
X007489Y019765D01*
X007954Y019894D01*
X008426Y020000D01*
X008902Y020082D01*
X009381Y020142D01*
X009863Y020177D01*
X010346Y020189D01*
X010829Y020177D01*
X011311Y020142D01*
X011790Y020082D01*
X012266Y020000D01*
X012738Y019894D01*
X013203Y019765D01*
X013662Y019614D01*
X014113Y019440D01*
X014554Y019244D01*
X014986Y019027D01*
X015406Y018789D01*
X015814Y018530D01*
X016209Y018252D01*
X016590Y017955D01*
X016956Y017639D01*
X017306Y017306D01*
X017639Y016956D01*
X017955Y016590D01*
X018252Y016209D01*
X018530Y015814D01*
X018789Y015406D01*
X019027Y014986D01*
X019244Y014554D01*
X019440Y014113D01*
X019614Y013662D01*
X019765Y013203D01*
X019894Y012738D01*
X020000Y012266D01*
X020082Y011790D01*
X020142Y011311D01*
X020177Y010829D01*
X020189Y010346D01*
X020177Y009863D01*
X020142Y009381D01*
X020082Y008902D01*
X020000Y008426D01*
X019894Y007954D01*
X019765Y007489D01*
X019614Y007030D01*
X019440Y006579D01*
X019244Y006138D01*
X019027Y005706D01*
X018789Y005286D01*
X018530Y004878D01*
X018252Y004483D01*
X017955Y004102D01*
X017639Y003736D01*
X017306Y003386D01*
X016956Y003053D01*
X016590Y002737D01*
X016209Y002440D01*
X015814Y002162D01*
X015406Y001903D01*
X014986Y001665D01*
X014554Y001448D01*
X014113Y001252D01*
X013662Y001078D01*
X013203Y000927D01*
X012738Y000798D01*
X012266Y000692D01*
X011790Y000610D01*
X011311Y000550D01*
X010829Y000515D01*
X010346Y000503D01*
X009863Y000515D01*
X009381Y000550D01*
X008902Y000610D01*
X008426Y000692D01*
X007954Y000798D01*
X007489Y000927D01*
X007030Y001078D01*
X006579Y001252D01*
X006138Y001448D01*
X005706Y001665D01*
X005286Y001903D01*
X004878Y002162D01*
X004483Y002440D01*
X004102Y002737D01*
X003736Y003053D01*
X003386Y003386D01*
X003053Y003736D01*
X002737Y004102D01*
X002440Y004483D01*
X002162Y004878D01*
X001903Y005286D01*
X001665Y005706D01*
X001448Y006138D01*
X001252Y006579D01*
X001078Y007030D01*
X000927Y007489D01*
X000798Y007954D01*
X000692Y008426D01*
X000610Y008902D01*
X000550Y009381D01*
X000515Y009863D01*
X000503Y010346D01*
D11*
X009913Y012709D02*
X009915Y012750D01*
X009921Y012791D01*
X009931Y012831D01*
X009944Y012870D01*
X009961Y012907D01*
X009982Y012943D01*
X010006Y012977D01*
X010033Y013008D01*
X010062Y013036D01*
X010095Y013062D01*
X010129Y013084D01*
X010166Y013103D01*
X010204Y013118D01*
X010244Y013130D01*
X010284Y013138D01*
X010325Y013142D01*
X010367Y013142D01*
X010408Y013138D01*
X010448Y013130D01*
X010488Y013118D01*
X010526Y013103D01*
X010562Y013084D01*
X010597Y013062D01*
X010630Y013036D01*
X010659Y013008D01*
X010686Y012977D01*
X010710Y012943D01*
X010731Y012907D01*
X010748Y012870D01*
X010761Y012831D01*
X010771Y012791D01*
X010777Y012750D01*
X010779Y012709D01*
X010777Y012668D01*
X010771Y012627D01*
X010761Y012587D01*
X010748Y012548D01*
X010731Y012511D01*
X010710Y012475D01*
X010686Y012441D01*
X010659Y012410D01*
X010630Y012382D01*
X010597Y012356D01*
X010563Y012334D01*
X010526Y012315D01*
X010488Y012300D01*
X010448Y012288D01*
X010408Y012280D01*
X010367Y012276D01*
X010325Y012276D01*
X010284Y012280D01*
X010244Y012288D01*
X010204Y012300D01*
X010166Y012315D01*
X010130Y012334D01*
X010095Y012356D01*
X010062Y012382D01*
X010033Y012410D01*
X010006Y012441D01*
X009982Y012475D01*
X009961Y012511D01*
X009944Y012548D01*
X009931Y012587D01*
X009921Y012627D01*
X009915Y012668D01*
X009913Y012709D01*
D12*
X008004Y013130D03*
X008004Y013878D03*
X007004Y013878D03*
X007004Y013130D03*
X006004Y013130D03*
X006004Y013878D03*
X005004Y013878D03*
X005004Y013130D03*
X007994Y009388D03*
X007994Y008640D03*
X016004Y011630D03*
X016004Y012378D03*
X017004Y012378D03*
X017004Y011630D03*
D13*
X015798Y010254D03*
X015050Y010254D03*
X013958Y010254D03*
X013210Y010254D03*
X008378Y007004D03*
X007630Y007004D03*
X005878Y007504D03*
X005130Y007504D03*
X005130Y008504D03*
X005878Y008504D03*
X005878Y009504D03*
X005130Y009504D03*
X005130Y010504D03*
X005878Y010504D03*
X005878Y011504D03*
X005130Y011504D03*
X007130Y011504D03*
X007878Y011504D03*
D14*
X014504Y006478D03*
D15*
X015004Y008841D03*
X014004Y008841D03*
D16*
X006784Y003633D02*
X006224Y003633D01*
X006224Y005375D01*
X006784Y005375D01*
X006784Y003633D01*
X006784Y003662D02*
X006224Y003662D01*
X006224Y003691D02*
X006784Y003691D01*
X006784Y003720D02*
X006224Y003720D01*
X006224Y003749D02*
X006784Y003749D01*
X006784Y003778D02*
X006224Y003778D01*
X006224Y003807D02*
X006784Y003807D01*
X006784Y003836D02*
X006224Y003836D01*
X006224Y003865D02*
X006784Y003865D01*
X006784Y003894D02*
X006224Y003894D01*
X006224Y003923D02*
X006784Y003923D01*
X006784Y003952D02*
X006224Y003952D01*
X006224Y003981D02*
X006784Y003981D01*
X006784Y004010D02*
X006224Y004010D01*
X006224Y004039D02*
X006784Y004039D01*
X006784Y004068D02*
X006224Y004068D01*
X006224Y004097D02*
X006784Y004097D01*
X006784Y004126D02*
X006224Y004126D01*
X006224Y004155D02*
X006784Y004155D01*
X006784Y004184D02*
X006224Y004184D01*
X006224Y004213D02*
X006784Y004213D01*
X006784Y004242D02*
X006224Y004242D01*
X006224Y004271D02*
X006784Y004271D01*
X006784Y004300D02*
X006224Y004300D01*
X006224Y004329D02*
X006784Y004329D01*
X006784Y004358D02*
X006224Y004358D01*
X006224Y004387D02*
X006784Y004387D01*
X006784Y004416D02*
X006224Y004416D01*
X006224Y004445D02*
X006784Y004445D01*
X006784Y004474D02*
X006224Y004474D01*
X006224Y004503D02*
X006784Y004503D01*
X006784Y004532D02*
X006224Y004532D01*
X006224Y004561D02*
X006784Y004561D01*
X006784Y004590D02*
X006224Y004590D01*
X006224Y004619D02*
X006784Y004619D01*
X006784Y004648D02*
X006224Y004648D01*
X006224Y004677D02*
X006784Y004677D01*
X006784Y004706D02*
X006224Y004706D01*
X006224Y004735D02*
X006784Y004735D01*
X006784Y004764D02*
X006224Y004764D01*
X006224Y004793D02*
X006784Y004793D01*
X006784Y004822D02*
X006224Y004822D01*
X006224Y004851D02*
X006784Y004851D01*
X006784Y004880D02*
X006224Y004880D01*
X006224Y004909D02*
X006784Y004909D01*
X006784Y004938D02*
X006224Y004938D01*
X006224Y004967D02*
X006784Y004967D01*
X006784Y004996D02*
X006224Y004996D01*
X006224Y005025D02*
X006784Y005025D01*
X006784Y005054D02*
X006224Y005054D01*
X006224Y005083D02*
X006784Y005083D01*
X006784Y005112D02*
X006224Y005112D01*
X006224Y005141D02*
X006784Y005141D01*
X006784Y005170D02*
X006224Y005170D01*
X006224Y005199D02*
X006784Y005199D01*
X006784Y005228D02*
X006224Y005228D01*
X006224Y005257D02*
X006784Y005257D01*
X006784Y005286D02*
X006224Y005286D01*
X006224Y005315D02*
X006784Y005315D01*
X006784Y005344D02*
X006224Y005344D01*
X006224Y005373D02*
X006784Y005373D01*
D17*
X005838Y003634D02*
X005202Y003634D01*
X005202Y005374D01*
X005838Y005374D01*
X005838Y003634D01*
X005838Y003666D02*
X005202Y003666D01*
X005202Y003698D02*
X005838Y003698D01*
X005838Y003730D02*
X005202Y003730D01*
X005202Y003762D02*
X005838Y003762D01*
X005838Y003794D02*
X005202Y003794D01*
X005202Y003826D02*
X005838Y003826D01*
X005838Y003858D02*
X005202Y003858D01*
X005202Y003890D02*
X005838Y003890D01*
X005838Y003922D02*
X005202Y003922D01*
X005202Y003954D02*
X005838Y003954D01*
X005838Y003986D02*
X005202Y003986D01*
X005202Y004018D02*
X005838Y004018D01*
X005838Y004050D02*
X005202Y004050D01*
X005202Y004082D02*
X005838Y004082D01*
X005838Y004114D02*
X005202Y004114D01*
X005202Y004146D02*
X005838Y004146D01*
X005838Y004178D02*
X005202Y004178D01*
X005202Y004210D02*
X005838Y004210D01*
X005838Y004242D02*
X005202Y004242D01*
X005202Y004274D02*
X005838Y004274D01*
X005838Y004306D02*
X005202Y004306D01*
X005202Y004338D02*
X005838Y004338D01*
X005838Y004370D02*
X005202Y004370D01*
X005202Y004402D02*
X005838Y004402D01*
X005838Y004434D02*
X005202Y004434D01*
X005202Y004466D02*
X005838Y004466D01*
X005838Y004498D02*
X005202Y004498D01*
X005202Y004530D02*
X005838Y004530D01*
X005838Y004562D02*
X005202Y004562D01*
X005202Y004594D02*
X005838Y004594D01*
X005838Y004626D02*
X005202Y004626D01*
X005202Y004658D02*
X005838Y004658D01*
X005838Y004690D02*
X005202Y004690D01*
X005202Y004722D02*
X005838Y004722D01*
X005838Y004754D02*
X005202Y004754D01*
X005202Y004786D02*
X005838Y004786D01*
X005838Y004818D02*
X005202Y004818D01*
X005202Y004850D02*
X005838Y004850D01*
X005838Y004882D02*
X005202Y004882D01*
X005202Y004914D02*
X005838Y004914D01*
X005838Y004946D02*
X005202Y004946D01*
X005202Y004978D02*
X005838Y004978D01*
X005838Y005010D02*
X005202Y005010D01*
X005202Y005042D02*
X005838Y005042D01*
X005838Y005074D02*
X005202Y005074D01*
X005202Y005106D02*
X005838Y005106D01*
X005838Y005138D02*
X005202Y005138D01*
X005202Y005170D02*
X005838Y005170D01*
X005838Y005202D02*
X005202Y005202D01*
X005202Y005234D02*
X005838Y005234D01*
X005838Y005266D02*
X005202Y005266D01*
X005202Y005298D02*
X005838Y005298D01*
X005838Y005330D02*
X005202Y005330D01*
X005202Y005362D02*
X005838Y005362D01*
X007170Y003634D02*
X007806Y003634D01*
X007170Y003634D02*
X007170Y005374D01*
X007806Y005374D01*
X007806Y003634D01*
X007806Y003666D02*
X007170Y003666D01*
X007170Y003698D02*
X007806Y003698D01*
X007806Y003730D02*
X007170Y003730D01*
X007170Y003762D02*
X007806Y003762D01*
X007806Y003794D02*
X007170Y003794D01*
X007170Y003826D02*
X007806Y003826D01*
X007806Y003858D02*
X007170Y003858D01*
X007170Y003890D02*
X007806Y003890D01*
X007806Y003922D02*
X007170Y003922D01*
X007170Y003954D02*
X007806Y003954D01*
X007806Y003986D02*
X007170Y003986D01*
X007170Y004018D02*
X007806Y004018D01*
X007806Y004050D02*
X007170Y004050D01*
X007170Y004082D02*
X007806Y004082D01*
X007806Y004114D02*
X007170Y004114D01*
X007170Y004146D02*
X007806Y004146D01*
X007806Y004178D02*
X007170Y004178D01*
X007170Y004210D02*
X007806Y004210D01*
X007806Y004242D02*
X007170Y004242D01*
X007170Y004274D02*
X007806Y004274D01*
X007806Y004306D02*
X007170Y004306D01*
X007170Y004338D02*
X007806Y004338D01*
X007806Y004370D02*
X007170Y004370D01*
X007170Y004402D02*
X007806Y004402D01*
X007806Y004434D02*
X007170Y004434D01*
X007170Y004466D02*
X007806Y004466D01*
X007806Y004498D02*
X007170Y004498D01*
X007170Y004530D02*
X007806Y004530D01*
X007806Y004562D02*
X007170Y004562D01*
X007170Y004594D02*
X007806Y004594D01*
X007806Y004626D02*
X007170Y004626D01*
X007170Y004658D02*
X007806Y004658D01*
X007806Y004690D02*
X007170Y004690D01*
X007170Y004722D02*
X007806Y004722D01*
X007806Y004754D02*
X007170Y004754D01*
X007170Y004786D02*
X007806Y004786D01*
X007806Y004818D02*
X007170Y004818D01*
X007170Y004850D02*
X007806Y004850D01*
X007806Y004882D02*
X007170Y004882D01*
X007170Y004914D02*
X007806Y004914D01*
X007806Y004946D02*
X007170Y004946D01*
X007170Y004978D02*
X007806Y004978D01*
X007806Y005010D02*
X007170Y005010D01*
X007170Y005042D02*
X007806Y005042D01*
X007806Y005074D02*
X007170Y005074D01*
X007170Y005106D02*
X007806Y005106D01*
X007806Y005138D02*
X007170Y005138D01*
X007170Y005170D02*
X007806Y005170D01*
X007806Y005202D02*
X007170Y005202D01*
X007170Y005234D02*
X007806Y005234D01*
X007806Y005266D02*
X007170Y005266D01*
X007170Y005298D02*
X007806Y005298D01*
X007806Y005330D02*
X007170Y005330D01*
X007170Y005362D02*
X007806Y005362D01*
D18*
X013254Y011480D03*
X013754Y011480D03*
X014254Y011480D03*
X014754Y011480D03*
X014754Y013528D03*
X014254Y013528D03*
X013754Y013528D03*
X013254Y013528D03*
D19*
X010504Y017004D03*
D20*
X013604Y017004D03*
X007404Y017004D03*
D21*
X010110Y005961D03*
X010898Y005961D03*
D22*
X011843Y003913D03*
X009165Y003913D03*
D23*
X003858Y006299D03*
X002283Y006299D03*
X002283Y008976D03*
X003858Y008976D03*
X003815Y011122D03*
X002240Y011122D03*
X002240Y013799D03*
X003815Y013799D03*
D24*
X016091Y014004D03*
X016917Y014004D03*
M02*
