G75*
G70*
%OFA0B0*%
%FSLAX24Y24*%
%IPPOS*%
%LPD*%
%AMOC8*
5,1,8,0,0,1.08239X$1,22.5*
%
%ADD10C,0.0004*%
%ADD11C,0.0000*%
%ADD12R,0.0500X0.0220*%
%ADD13R,0.0220X0.0500*%
%ADD14R,0.0740X0.0740*%
%ADD15OC8,0.0740*%
%ADD16R,0.0472X0.0472*%
%ADD17R,0.0472X0.0472*%
%ADD18C,0.0070*%
%ADD19C,0.0230*%
D10*
X000503Y010346D02*
X000515Y010829D01*
X000550Y011311D01*
X000610Y011790D01*
X000692Y012266D01*
X000798Y012738D01*
X000927Y013203D01*
X001078Y013662D01*
X001252Y014113D01*
X001448Y014554D01*
X001665Y014986D01*
X001903Y015406D01*
X002162Y015814D01*
X002440Y016209D01*
X002737Y016590D01*
X003053Y016956D01*
X003386Y017306D01*
X003736Y017639D01*
X004102Y017955D01*
X004483Y018252D01*
X004878Y018530D01*
X005286Y018789D01*
X005706Y019027D01*
X006138Y019244D01*
X006579Y019440D01*
X007030Y019614D01*
X007489Y019765D01*
X007954Y019894D01*
X008426Y020000D01*
X008902Y020082D01*
X009381Y020142D01*
X009863Y020177D01*
X010346Y020189D01*
X010829Y020177D01*
X011311Y020142D01*
X011790Y020082D01*
X012266Y020000D01*
X012738Y019894D01*
X013203Y019765D01*
X013662Y019614D01*
X014113Y019440D01*
X014554Y019244D01*
X014986Y019027D01*
X015406Y018789D01*
X015814Y018530D01*
X016209Y018252D01*
X016590Y017955D01*
X016956Y017639D01*
X017306Y017306D01*
X017639Y016956D01*
X017955Y016590D01*
X018252Y016209D01*
X018530Y015814D01*
X018789Y015406D01*
X019027Y014986D01*
X019244Y014554D01*
X019440Y014113D01*
X019614Y013662D01*
X019765Y013203D01*
X019894Y012738D01*
X020000Y012266D01*
X020082Y011790D01*
X020142Y011311D01*
X020177Y010829D01*
X020189Y010346D01*
X020177Y009863D01*
X020142Y009381D01*
X020082Y008902D01*
X020000Y008426D01*
X019894Y007954D01*
X019765Y007489D01*
X019614Y007030D01*
X019440Y006579D01*
X019244Y006138D01*
X019027Y005706D01*
X018789Y005286D01*
X018530Y004878D01*
X018252Y004483D01*
X017955Y004102D01*
X017639Y003736D01*
X017306Y003386D01*
X016956Y003053D01*
X016590Y002737D01*
X016209Y002440D01*
X015814Y002162D01*
X015406Y001903D01*
X014986Y001665D01*
X014554Y001448D01*
X014113Y001252D01*
X013662Y001078D01*
X013203Y000927D01*
X012738Y000798D01*
X012266Y000692D01*
X011790Y000610D01*
X011311Y000550D01*
X010829Y000515D01*
X010346Y000503D01*
X009863Y000515D01*
X009381Y000550D01*
X008902Y000610D01*
X008426Y000692D01*
X007954Y000798D01*
X007489Y000927D01*
X007030Y001078D01*
X006579Y001252D01*
X006138Y001448D01*
X005706Y001665D01*
X005286Y001903D01*
X004878Y002162D01*
X004483Y002440D01*
X004102Y002737D01*
X003736Y003053D01*
X003386Y003386D01*
X003053Y003736D01*
X002737Y004102D01*
X002440Y004483D01*
X002162Y004878D01*
X001903Y005286D01*
X001665Y005706D01*
X001448Y006138D01*
X001252Y006579D01*
X001078Y007030D01*
X000927Y007489D01*
X000798Y007954D01*
X000692Y008426D01*
X000610Y008902D01*
X000550Y009381D01*
X000515Y009863D01*
X000503Y010346D01*
D11*
X009913Y012709D02*
X009915Y012750D01*
X009921Y012791D01*
X009931Y012831D01*
X009944Y012870D01*
X009961Y012907D01*
X009982Y012943D01*
X010006Y012977D01*
X010033Y013008D01*
X010062Y013036D01*
X010095Y013062D01*
X010129Y013084D01*
X010166Y013103D01*
X010204Y013118D01*
X010244Y013130D01*
X010284Y013138D01*
X010325Y013142D01*
X010367Y013142D01*
X010408Y013138D01*
X010448Y013130D01*
X010488Y013118D01*
X010526Y013103D01*
X010562Y013084D01*
X010597Y013062D01*
X010630Y013036D01*
X010659Y013008D01*
X010686Y012977D01*
X010710Y012943D01*
X010731Y012907D01*
X010748Y012870D01*
X010761Y012831D01*
X010771Y012791D01*
X010777Y012750D01*
X010779Y012709D01*
X010777Y012668D01*
X010771Y012627D01*
X010761Y012587D01*
X010748Y012548D01*
X010731Y012511D01*
X010710Y012475D01*
X010686Y012441D01*
X010659Y012410D01*
X010630Y012382D01*
X010597Y012356D01*
X010563Y012334D01*
X010526Y012315D01*
X010488Y012300D01*
X010448Y012288D01*
X010408Y012280D01*
X010367Y012276D01*
X010325Y012276D01*
X010284Y012280D01*
X010244Y012288D01*
X010204Y012300D01*
X010166Y012315D01*
X010130Y012334D01*
X010095Y012356D01*
X010062Y012382D01*
X010033Y012410D01*
X010006Y012441D01*
X009982Y012475D01*
X009961Y012511D01*
X009944Y012548D01*
X009931Y012587D01*
X009921Y012627D01*
X009915Y012668D01*
X009913Y012709D01*
D12*
X008635Y009988D03*
X008635Y009673D03*
X008635Y009358D03*
X008635Y009043D03*
X008635Y008728D03*
X008635Y008413D03*
X008635Y008098D03*
X008635Y007783D03*
X012015Y007783D03*
X012015Y008098D03*
X012015Y008413D03*
X012015Y008728D03*
X012015Y009043D03*
X012015Y009358D03*
X012015Y009673D03*
X012015Y009988D03*
D13*
X011427Y010575D03*
X011112Y010575D03*
X010797Y010575D03*
X010482Y010575D03*
X010167Y010575D03*
X009853Y010575D03*
X009538Y010575D03*
X009223Y010575D03*
X009223Y007195D03*
X009538Y007195D03*
X009853Y007195D03*
X010167Y007195D03*
X010482Y007195D03*
X010797Y007195D03*
X011112Y007195D03*
X011427Y007195D03*
D14*
X009824Y007994D03*
D15*
X009824Y008894D03*
X009824Y009794D03*
X010824Y009794D03*
X010824Y008894D03*
X010824Y007994D03*
D16*
X010346Y002689D03*
X010346Y001862D03*
X009933Y001094D03*
X010760Y001094D03*
X019598Y009933D03*
X018831Y010346D03*
X019598Y010760D03*
X018004Y010346D03*
X010346Y018004D03*
X010346Y018831D03*
X009933Y019598D03*
X010760Y019598D03*
X002689Y010346D03*
X001862Y010346D03*
X001094Y009933D03*
X001094Y010760D03*
D17*
G36*
X002168Y011443D02*
X002119Y010974D01*
X001650Y011023D01*
X001699Y011492D01*
X002168Y011443D01*
G37*
G36*
X002990Y011357D02*
X002941Y010888D01*
X002472Y010937D01*
X002521Y011406D01*
X002990Y011357D01*
G37*
G36*
X003135Y012119D02*
X003037Y011659D01*
X002577Y011757D01*
X002675Y012217D01*
X003135Y012119D01*
G37*
G36*
X003361Y012864D02*
X003215Y012416D01*
X002767Y012562D01*
X002913Y013010D01*
X003361Y012864D01*
G37*
G36*
X003662Y013580D02*
X003470Y013150D01*
X003040Y013342D01*
X003232Y013772D01*
X003662Y013580D01*
G37*
G36*
X004037Y014261D02*
X003801Y013853D01*
X003393Y014089D01*
X003629Y014497D01*
X004037Y014261D01*
G37*
G36*
X004480Y014900D02*
X004203Y014519D01*
X003822Y014796D01*
X004099Y015177D01*
X004480Y014900D01*
G37*
G36*
X004989Y015487D02*
X004673Y015137D01*
X004323Y015453D01*
X004639Y015803D01*
X004989Y015487D01*
G37*
G36*
X005556Y016020D02*
X005206Y015704D01*
X004890Y016054D01*
X005240Y016370D01*
X005556Y016020D01*
G37*
G36*
X006174Y016490D02*
X005793Y016213D01*
X005516Y016594D01*
X005897Y016871D01*
X006174Y016490D01*
G37*
G36*
X006840Y016892D02*
X006432Y016656D01*
X006196Y017064D01*
X006604Y017300D01*
X006840Y016892D01*
G37*
G36*
X007543Y017223D02*
X007113Y017031D01*
X006921Y017461D01*
X007351Y017653D01*
X007543Y017223D01*
G37*
G36*
X008277Y017478D02*
X007829Y017332D01*
X007683Y017780D01*
X008131Y017926D01*
X008277Y017478D01*
G37*
G36*
X009033Y017656D02*
X008573Y017558D01*
X008475Y018018D01*
X008935Y018116D01*
X009033Y017656D01*
G37*
G36*
X009805Y017752D02*
X009336Y017703D01*
X009287Y018172D01*
X009756Y018221D01*
X009805Y017752D01*
G37*
G36*
X009719Y018574D02*
X009250Y018525D01*
X009201Y018994D01*
X009670Y019043D01*
X009719Y018574D01*
G37*
G36*
X008862Y018464D02*
X008402Y018366D01*
X008304Y018826D01*
X008764Y018924D01*
X008862Y018464D01*
G37*
G36*
X008022Y018265D02*
X007574Y018119D01*
X007428Y018567D01*
X007876Y018713D01*
X008022Y018265D01*
G37*
G36*
X007207Y017978D02*
X006777Y017786D01*
X006585Y018216D01*
X007015Y018408D01*
X007207Y017978D01*
G37*
G36*
X006426Y017608D02*
X006018Y017372D01*
X005782Y017780D01*
X006190Y018016D01*
X006426Y017608D01*
G37*
G36*
X006164Y018888D02*
X006400Y018480D01*
X005992Y018244D01*
X005756Y018652D01*
X006164Y018888D01*
G37*
G36*
X005448Y018474D02*
X005684Y018066D01*
X005276Y017830D01*
X005040Y018238D01*
X005448Y018474D01*
G37*
G36*
X005688Y017158D02*
X005307Y016881D01*
X005030Y017262D01*
X005411Y017539D01*
X005688Y017158D01*
G37*
G36*
X005002Y016634D02*
X004652Y016318D01*
X004336Y016668D01*
X004686Y016984D01*
X005002Y016634D01*
G37*
G36*
X004375Y016040D02*
X004059Y015690D01*
X003709Y016006D01*
X004025Y016356D01*
X004375Y016040D01*
G37*
G36*
X003811Y015386D02*
X003534Y015005D01*
X003153Y015282D01*
X003430Y015663D01*
X003811Y015386D01*
G37*
G36*
X003321Y014675D02*
X003085Y014267D01*
X002677Y014503D01*
X002913Y014911D01*
X003321Y014675D01*
G37*
G36*
X002455Y015652D02*
X002863Y015416D01*
X002627Y015008D01*
X002219Y015244D01*
X002455Y015652D01*
G37*
G36*
X002041Y014936D02*
X002449Y014700D01*
X002213Y014292D01*
X001805Y014528D01*
X002041Y014936D01*
G37*
G36*
X002907Y013916D02*
X002715Y013486D01*
X002285Y013678D01*
X002477Y014108D01*
X002907Y013916D01*
G37*
G36*
X002574Y013119D02*
X002428Y012671D01*
X001980Y012817D01*
X002126Y013265D01*
X002574Y013119D01*
G37*
G36*
X002327Y012291D02*
X002229Y011831D01*
X001769Y011929D01*
X001867Y012389D01*
X002327Y012291D01*
G37*
G36*
X002941Y009805D02*
X002990Y009336D01*
X002521Y009287D01*
X002472Y009756D01*
X002941Y009805D01*
G37*
G36*
X003037Y009033D02*
X003135Y008573D01*
X002675Y008475D01*
X002577Y008935D01*
X003037Y009033D01*
G37*
G36*
X003215Y008277D02*
X003361Y007829D01*
X002913Y007683D01*
X002767Y008131D01*
X003215Y008277D01*
G37*
G36*
X002428Y008022D02*
X002574Y007574D01*
X002126Y007428D01*
X001980Y007876D01*
X002428Y008022D01*
G37*
G36*
X002229Y008862D02*
X002327Y008402D01*
X001867Y008304D01*
X001769Y008764D01*
X002229Y008862D01*
G37*
G36*
X002119Y009719D02*
X002168Y009250D01*
X001699Y009201D01*
X001650Y009670D01*
X002119Y009719D01*
G37*
G36*
X003470Y007543D02*
X003662Y007113D01*
X003232Y006921D01*
X003040Y007351D01*
X003470Y007543D01*
G37*
G36*
X002715Y007207D02*
X002907Y006777D01*
X002477Y006585D01*
X002285Y007015D01*
X002715Y007207D01*
G37*
G36*
X003801Y006840D02*
X004037Y006432D01*
X003629Y006196D01*
X003393Y006604D01*
X003801Y006840D01*
G37*
G36*
X003085Y006426D02*
X003321Y006018D01*
X002913Y005782D01*
X002677Y006190D01*
X003085Y006426D01*
G37*
G36*
X001805Y006164D02*
X002213Y006400D01*
X002449Y005992D01*
X002041Y005756D01*
X001805Y006164D01*
G37*
G36*
X002219Y005448D02*
X002627Y005684D01*
X002863Y005276D01*
X002455Y005040D01*
X002219Y005448D01*
G37*
G36*
X003534Y005688D02*
X003811Y005307D01*
X003430Y005030D01*
X003153Y005411D01*
X003534Y005688D01*
G37*
G36*
X004203Y006174D02*
X004480Y005793D01*
X004099Y005516D01*
X003822Y005897D01*
X004203Y006174D01*
G37*
G36*
X004673Y005556D02*
X004989Y005206D01*
X004639Y004890D01*
X004323Y005240D01*
X004673Y005556D01*
G37*
G36*
X005206Y004989D02*
X005556Y004673D01*
X005240Y004323D01*
X004890Y004639D01*
X005206Y004989D01*
G37*
G36*
X005793Y004480D02*
X006174Y004203D01*
X005897Y003822D01*
X005516Y004099D01*
X005793Y004480D01*
G37*
G36*
X006432Y004037D02*
X006840Y003801D01*
X006604Y003393D01*
X006196Y003629D01*
X006432Y004037D01*
G37*
G36*
X007113Y003662D02*
X007543Y003470D01*
X007351Y003040D01*
X006921Y003232D01*
X007113Y003662D01*
G37*
G36*
X007829Y003361D02*
X008277Y003215D01*
X008131Y002767D01*
X007683Y002913D01*
X007829Y003361D01*
G37*
G36*
X006777Y002907D02*
X007207Y002715D01*
X007015Y002285D01*
X006585Y002477D01*
X006777Y002907D01*
G37*
G36*
X006018Y003321D02*
X006426Y003085D01*
X006190Y002677D01*
X005782Y002913D01*
X006018Y003321D01*
G37*
G36*
X005307Y003811D02*
X005688Y003534D01*
X005411Y003153D01*
X005030Y003430D01*
X005307Y003811D01*
G37*
G36*
X004652Y004375D02*
X005002Y004059D01*
X004686Y003709D01*
X004336Y004025D01*
X004652Y004375D01*
G37*
G36*
X004059Y005002D02*
X004375Y004652D01*
X004025Y004336D01*
X003709Y004686D01*
X004059Y005002D01*
G37*
G36*
X005040Y002455D02*
X005276Y002863D01*
X005684Y002627D01*
X005448Y002219D01*
X005040Y002455D01*
G37*
G36*
X005756Y002041D02*
X005992Y002449D01*
X006400Y002213D01*
X006164Y001805D01*
X005756Y002041D01*
G37*
G36*
X007574Y002574D02*
X008022Y002428D01*
X007876Y001980D01*
X007428Y002126D01*
X007574Y002574D01*
G37*
G36*
X008402Y002327D02*
X008862Y002229D01*
X008764Y001769D01*
X008304Y001867D01*
X008402Y002327D01*
G37*
G36*
X008573Y003135D02*
X009033Y003037D01*
X008935Y002577D01*
X008475Y002675D01*
X008573Y003135D01*
G37*
G36*
X009336Y002990D02*
X009805Y002941D01*
X009756Y002472D01*
X009287Y002521D01*
X009336Y002990D01*
G37*
G36*
X009250Y002168D02*
X009719Y002119D01*
X009670Y001650D01*
X009201Y001699D01*
X009250Y002168D01*
G37*
G36*
X010888Y002941D02*
X011357Y002990D01*
X011406Y002521D01*
X010937Y002472D01*
X010888Y002941D01*
G37*
G36*
X011659Y003037D02*
X012119Y003135D01*
X012217Y002675D01*
X011757Y002577D01*
X011659Y003037D01*
G37*
G36*
X012416Y003215D02*
X012864Y003361D01*
X013010Y002913D01*
X012562Y002767D01*
X012416Y003215D01*
G37*
G36*
X012671Y002428D02*
X013119Y002574D01*
X013265Y002126D01*
X012817Y001980D01*
X012671Y002428D01*
G37*
G36*
X011831Y002229D02*
X012291Y002327D01*
X012389Y001867D01*
X011929Y001769D01*
X011831Y002229D01*
G37*
G36*
X010974Y002119D02*
X011443Y002168D01*
X011492Y001699D01*
X011023Y001650D01*
X010974Y002119D01*
G37*
G36*
X013150Y003470D02*
X013580Y003662D01*
X013772Y003232D01*
X013342Y003040D01*
X013150Y003470D01*
G37*
G36*
X013486Y002715D02*
X013916Y002907D01*
X014108Y002477D01*
X013678Y002285D01*
X013486Y002715D01*
G37*
G36*
X013853Y003801D02*
X014261Y004037D01*
X014497Y003629D01*
X014089Y003393D01*
X013853Y003801D01*
G37*
G36*
X014267Y003085D02*
X014675Y003321D01*
X014911Y002913D01*
X014503Y002677D01*
X014267Y003085D01*
G37*
G36*
X014528Y001805D02*
X014292Y002213D01*
X014700Y002449D01*
X014936Y002041D01*
X014528Y001805D01*
G37*
G36*
X015244Y002219D02*
X015008Y002627D01*
X015416Y002863D01*
X015652Y002455D01*
X015244Y002219D01*
G37*
G36*
X015005Y003534D02*
X015386Y003811D01*
X015663Y003430D01*
X015282Y003153D01*
X015005Y003534D01*
G37*
G36*
X014519Y004203D02*
X014900Y004480D01*
X015177Y004099D01*
X014796Y003822D01*
X014519Y004203D01*
G37*
G36*
X015137Y004673D02*
X015487Y004989D01*
X015803Y004639D01*
X015453Y004323D01*
X015137Y004673D01*
G37*
G36*
X015704Y005206D02*
X016020Y005556D01*
X016370Y005240D01*
X016054Y004890D01*
X015704Y005206D01*
G37*
G36*
X016213Y005793D02*
X016490Y006174D01*
X016871Y005897D01*
X016594Y005516D01*
X016213Y005793D01*
G37*
G36*
X016656Y006432D02*
X016892Y006840D01*
X017300Y006604D01*
X017064Y006196D01*
X016656Y006432D01*
G37*
G36*
X017031Y007113D02*
X017223Y007543D01*
X017653Y007351D01*
X017461Y006921D01*
X017031Y007113D01*
G37*
G36*
X017332Y007829D02*
X017478Y008277D01*
X017926Y008131D01*
X017780Y007683D01*
X017332Y007829D01*
G37*
G36*
X017786Y006777D02*
X017978Y007207D01*
X018408Y007015D01*
X018216Y006585D01*
X017786Y006777D01*
G37*
G36*
X017372Y006018D02*
X017608Y006426D01*
X018016Y006190D01*
X017780Y005782D01*
X017372Y006018D01*
G37*
G36*
X016881Y005307D02*
X017158Y005688D01*
X017539Y005411D01*
X017262Y005030D01*
X016881Y005307D01*
G37*
G36*
X016318Y004652D02*
X016634Y005002D01*
X016984Y004686D01*
X016668Y004336D01*
X016318Y004652D01*
G37*
G36*
X015690Y004059D02*
X016040Y004375D01*
X016356Y004025D01*
X016006Y003709D01*
X015690Y004059D01*
G37*
G36*
X018238Y005040D02*
X017830Y005276D01*
X018066Y005684D01*
X018474Y005448D01*
X018238Y005040D01*
G37*
G36*
X018652Y005756D02*
X018244Y005992D01*
X018480Y006400D01*
X018888Y006164D01*
X018652Y005756D01*
G37*
G36*
X018119Y007574D02*
X018265Y008022D01*
X018713Y007876D01*
X018567Y007428D01*
X018119Y007574D01*
G37*
G36*
X018366Y008402D02*
X018464Y008862D01*
X018924Y008764D01*
X018826Y008304D01*
X018366Y008402D01*
G37*
G36*
X017558Y008573D02*
X017656Y009033D01*
X018116Y008935D01*
X018018Y008475D01*
X017558Y008573D01*
G37*
G36*
X017703Y009336D02*
X017752Y009805D01*
X018221Y009756D01*
X018172Y009287D01*
X017703Y009336D01*
G37*
G36*
X018525Y009250D02*
X018574Y009719D01*
X019043Y009670D01*
X018994Y009201D01*
X018525Y009250D01*
G37*
G36*
X017752Y010888D02*
X017703Y011357D01*
X018172Y011406D01*
X018221Y010937D01*
X017752Y010888D01*
G37*
G36*
X017656Y011659D02*
X017558Y012119D01*
X018018Y012217D01*
X018116Y011757D01*
X017656Y011659D01*
G37*
G36*
X017478Y012416D02*
X017332Y012864D01*
X017780Y013010D01*
X017926Y012562D01*
X017478Y012416D01*
G37*
G36*
X017223Y013150D02*
X017031Y013580D01*
X017461Y013772D01*
X017653Y013342D01*
X017223Y013150D01*
G37*
G36*
X017978Y013486D02*
X017786Y013916D01*
X018216Y014108D01*
X018408Y013678D01*
X017978Y013486D01*
G37*
G36*
X018265Y012671D02*
X018119Y013119D01*
X018567Y013265D01*
X018713Y012817D01*
X018265Y012671D01*
G37*
G36*
X018464Y011831D02*
X018366Y012291D01*
X018826Y012389D01*
X018924Y011929D01*
X018464Y011831D01*
G37*
G36*
X018574Y010974D02*
X018525Y011443D01*
X018994Y011492D01*
X019043Y011023D01*
X018574Y010974D01*
G37*
G36*
X016892Y013853D02*
X016656Y014261D01*
X017064Y014497D01*
X017300Y014089D01*
X016892Y013853D01*
G37*
G36*
X017608Y014267D02*
X017372Y014675D01*
X017780Y014911D01*
X018016Y014503D01*
X017608Y014267D01*
G37*
G36*
X018888Y014528D02*
X018480Y014292D01*
X018244Y014700D01*
X018652Y014936D01*
X018888Y014528D01*
G37*
G36*
X018474Y015244D02*
X018066Y015008D01*
X017830Y015416D01*
X018238Y015652D01*
X018474Y015244D01*
G37*
G36*
X017158Y015005D02*
X016881Y015386D01*
X017262Y015663D01*
X017539Y015282D01*
X017158Y015005D01*
G37*
G36*
X016490Y014519D02*
X016213Y014900D01*
X016594Y015177D01*
X016871Y014796D01*
X016490Y014519D01*
G37*
G36*
X016020Y015137D02*
X015704Y015487D01*
X016054Y015803D01*
X016370Y015453D01*
X016020Y015137D01*
G37*
G36*
X015487Y015704D02*
X015137Y016020D01*
X015453Y016370D01*
X015803Y016054D01*
X015487Y015704D01*
G37*
G36*
X014900Y016213D02*
X014519Y016490D01*
X014796Y016871D01*
X015177Y016594D01*
X014900Y016213D01*
G37*
G36*
X014261Y016656D02*
X013853Y016892D01*
X014089Y017300D01*
X014497Y017064D01*
X014261Y016656D01*
G37*
G36*
X013580Y017031D02*
X013150Y017223D01*
X013342Y017653D01*
X013772Y017461D01*
X013580Y017031D01*
G37*
G36*
X012864Y017332D02*
X012416Y017478D01*
X012562Y017926D01*
X013010Y017780D01*
X012864Y017332D01*
G37*
G36*
X013916Y017786D02*
X013486Y017978D01*
X013678Y018408D01*
X014108Y018216D01*
X013916Y017786D01*
G37*
G36*
X014675Y017372D02*
X014267Y017608D01*
X014503Y018016D01*
X014911Y017780D01*
X014675Y017372D01*
G37*
G36*
X015386Y016881D02*
X015005Y017158D01*
X015282Y017539D01*
X015663Y017262D01*
X015386Y016881D01*
G37*
G36*
X016040Y016318D02*
X015690Y016634D01*
X016006Y016984D01*
X016356Y016668D01*
X016040Y016318D01*
G37*
G36*
X016634Y015690D02*
X016318Y016040D01*
X016668Y016356D01*
X016984Y016006D01*
X016634Y015690D01*
G37*
G36*
X015652Y018238D02*
X015416Y017830D01*
X015008Y018066D01*
X015244Y018474D01*
X015652Y018238D01*
G37*
G36*
X014936Y018652D02*
X014700Y018244D01*
X014292Y018480D01*
X014528Y018888D01*
X014936Y018652D01*
G37*
G36*
X013119Y018119D02*
X012671Y018265D01*
X012817Y018713D01*
X013265Y018567D01*
X013119Y018119D01*
G37*
G36*
X012291Y018366D02*
X011831Y018464D01*
X011929Y018924D01*
X012389Y018826D01*
X012291Y018366D01*
G37*
G36*
X012119Y017558D02*
X011659Y017656D01*
X011757Y018116D01*
X012217Y018018D01*
X012119Y017558D01*
G37*
G36*
X011357Y017703D02*
X010888Y017752D01*
X010937Y018221D01*
X011406Y018172D01*
X011357Y017703D01*
G37*
G36*
X011443Y018525D02*
X010974Y018574D01*
X011023Y019043D01*
X011492Y018994D01*
X011443Y018525D01*
G37*
D18*
X011604Y018504D02*
X011604Y019054D01*
X011454Y019204D01*
X010054Y019204D01*
X009854Y019004D01*
X009854Y018304D01*
X009554Y018004D01*
X009546Y017962D01*
X009504Y018004D01*
X009254Y018004D01*
X009004Y018254D01*
X008454Y018254D01*
X008404Y018204D01*
X008354Y018204D01*
X008154Y018404D01*
X008154Y018554D01*
X008254Y018804D02*
X008054Y018804D01*
X007704Y018454D01*
X007725Y018416D01*
X007704Y018404D01*
X006554Y018404D01*
X006404Y018554D01*
X006104Y018554D01*
X006078Y018566D01*
X006154Y018154D02*
X006404Y018154D01*
X006154Y018154D02*
X006104Y018104D01*
X005404Y018104D01*
X005362Y018152D01*
X006104Y017694D02*
X006104Y017654D01*
X005704Y017254D01*
X005404Y017254D01*
X005359Y017210D01*
X005354Y017204D01*
X005254Y017204D01*
X004704Y016654D01*
X004669Y016651D01*
X004654Y016654D01*
X004054Y016054D01*
X004042Y016023D01*
X004004Y016004D01*
X003504Y015504D01*
X003504Y015354D01*
X003482Y015334D01*
X003454Y015304D01*
X002954Y014804D01*
X002999Y014589D01*
X002954Y014604D01*
X002954Y014804D01*
X002954Y014904D01*
X002604Y015254D01*
X002541Y015330D01*
X002554Y015304D01*
X002604Y015254D01*
X002604Y013804D01*
X002596Y013797D01*
X002554Y013754D01*
X002304Y013504D01*
X002304Y013004D01*
X002277Y012968D01*
X002254Y013004D01*
X001854Y012604D01*
X001604Y012954D02*
X002104Y013454D01*
X002104Y014604D01*
X002127Y014614D01*
X003204Y014004D02*
X003554Y014004D01*
X003704Y014154D01*
X003715Y014175D01*
X003754Y014204D01*
X006004Y014204D01*
X006154Y014354D01*
X006004Y014854D01*
X006154Y014354D02*
X006954Y015154D01*
X006954Y015204D01*
X008404Y015204D01*
X010454Y017254D01*
X012754Y017254D01*
X015154Y014854D01*
X015504Y014854D01*
X016854Y013504D01*
X016754Y013254D02*
X016954Y013254D01*
X017154Y013454D01*
X017304Y013454D01*
X017342Y013461D01*
X017804Y013604D02*
X017254Y014154D01*
X017004Y014154D01*
X016978Y014175D01*
X017104Y014854D02*
X016504Y015454D01*
X016504Y015554D01*
X015104Y016954D01*
X014904Y016954D01*
X014854Y017004D01*
X014204Y017004D01*
X014175Y016978D01*
X013954Y017354D02*
X014054Y017454D01*
X014304Y017454D01*
X014504Y017254D01*
X014754Y017254D01*
X014854Y017354D01*
X014854Y017304D01*
X014854Y017354D02*
X015304Y017804D01*
X015304Y018104D01*
X015330Y018152D01*
X014604Y018404D02*
X014354Y018154D01*
X014604Y018404D02*
X014604Y018554D01*
X014614Y018566D01*
X014104Y018454D02*
X013754Y018104D01*
X013797Y018097D01*
X013804Y018054D01*
X014154Y017704D01*
X014554Y017704D01*
X014589Y017694D01*
X013954Y017354D02*
X013504Y017354D01*
X013461Y017342D01*
X013204Y017854D02*
X012954Y017854D01*
X012754Y017654D01*
X012713Y017629D01*
X012754Y017604D01*
X012754Y017454D01*
X014454Y015754D01*
X014604Y015754D01*
X014454Y015354D02*
X015204Y014604D01*
X015404Y014604D01*
X016754Y013254D01*
X017604Y012704D02*
X017604Y012354D01*
X017354Y012104D01*
X014354Y015104D01*
X014454Y015354D02*
X009704Y015354D01*
X007004Y012654D01*
X007504Y012804D02*
X009504Y010804D01*
X009504Y010604D01*
X009538Y010575D01*
X009804Y010604D02*
X009853Y010575D01*
X009804Y010604D02*
X009804Y011304D01*
X008404Y012704D01*
X006704Y013604D02*
X006704Y014354D01*
X006654Y014404D01*
X006654Y014504D01*
X006454Y014254D02*
X006454Y014154D01*
X004604Y012304D01*
X004254Y012304D01*
X003854Y012704D01*
X003304Y012704D01*
X003064Y012713D01*
X003104Y012704D01*
X003304Y012704D01*
X003304Y012204D01*
X003704Y011904D02*
X002904Y011904D01*
X002856Y011938D01*
X003104Y011504D02*
X002604Y011504D01*
X002054Y012054D01*
X002048Y012110D01*
X002004Y012004D01*
X002054Y012054D01*
X002454Y012454D01*
X002048Y012110D02*
X002004Y012104D01*
X002004Y012004D01*
X002004Y011304D01*
X001954Y011254D01*
X001909Y011233D01*
X001904Y011204D01*
X001904Y010354D01*
X001862Y010346D01*
X001862Y009506D01*
X001909Y009460D01*
X001954Y009454D01*
X002004Y009404D01*
X002004Y008604D01*
X002048Y008583D01*
X002054Y008554D01*
X002254Y008354D01*
X002254Y007754D01*
X002277Y007725D01*
X002304Y007704D01*
X002554Y007454D01*
X002554Y006904D01*
X002596Y006896D01*
X002604Y006854D01*
X002954Y006504D01*
X002954Y006454D01*
X003654Y005754D01*
X003654Y005704D01*
X004704Y004654D01*
X004704Y004604D01*
X004704Y004654D02*
X005204Y004154D01*
X005804Y004154D01*
X005845Y004151D01*
X006204Y003704D02*
X006504Y003704D01*
X006518Y003715D01*
X006554Y003754D01*
X007054Y003754D01*
X007754Y004454D01*
X008154Y004454D01*
X008354Y004254D01*
X008354Y004104D01*
X009354Y003104D01*
X010554Y003104D01*
X010704Y002954D01*
X010704Y001904D01*
X011204Y001904D01*
X011233Y001909D01*
X011254Y001954D01*
X011304Y002004D01*
X012104Y002004D01*
X012110Y002048D01*
X012154Y002054D01*
X012354Y002254D01*
X012954Y002254D01*
X012968Y002277D01*
X013004Y002304D01*
X013504Y002304D01*
X013754Y002554D01*
X013797Y002596D01*
X013804Y002554D01*
X014104Y002254D01*
X014604Y002154D02*
X014614Y002127D01*
X014604Y002154D02*
X014604Y002404D01*
X014104Y002904D01*
X014104Y003804D01*
X014175Y003715D01*
X014154Y003754D01*
X014104Y003804D01*
X013804Y004104D01*
X012604Y004104D01*
X012604Y004604D01*
X012454Y004854D02*
X014704Y004854D01*
X015654Y005804D01*
X016104Y005804D01*
X016104Y008204D01*
X016654Y008154D02*
X016804Y008004D01*
X016804Y007054D01*
X016354Y007154D02*
X016354Y007654D01*
X016354Y011104D01*
X017354Y012104D01*
X017654Y011904D02*
X016754Y011004D01*
X016904Y010604D02*
X016904Y008254D01*
X016804Y008004D02*
X017604Y008004D01*
X017629Y007980D01*
X017604Y008354D02*
X017054Y008904D01*
X017054Y010404D01*
X017454Y010804D01*
X017404Y011104D02*
X016904Y010604D01*
X016654Y010554D02*
X016654Y008154D01*
X017304Y009054D02*
X017554Y009304D01*
X017554Y009804D01*
X017754Y010004D01*
X018504Y010004D01*
X018804Y010304D01*
X018831Y010346D01*
X018804Y010354D01*
X018804Y011204D01*
X018784Y011233D01*
X018754Y011254D01*
X018754Y012004D01*
X018654Y012104D01*
X018645Y012110D01*
X018604Y012154D01*
X018454Y012304D01*
X018454Y012954D01*
X018416Y012968D01*
X018404Y013004D01*
X018104Y013304D01*
X018104Y013754D01*
X018097Y013797D01*
X018054Y013804D01*
X017704Y014154D01*
X017704Y014354D01*
X017694Y014589D01*
X017704Y014554D01*
X017704Y014354D01*
X018204Y014354D01*
X018204Y014654D02*
X017804Y015054D01*
X017454Y015054D01*
X017254Y014854D01*
X017104Y014854D01*
X017210Y015334D02*
X017204Y015354D01*
X016904Y015654D01*
X016654Y015904D01*
X016654Y016004D01*
X016651Y016023D01*
X016037Y015470D02*
X016004Y015454D01*
X015804Y015454D01*
X015554Y015204D01*
X015504Y015504D02*
X015504Y016004D01*
X015470Y016037D01*
X014848Y016542D02*
X014804Y016504D01*
X014504Y016204D01*
X014354Y016204D01*
X015334Y017210D02*
X015354Y017204D01*
X015454Y017204D01*
X015704Y016954D01*
X016004Y016654D01*
X016023Y016651D01*
X016504Y014854D02*
X015504Y014854D01*
X014504Y014454D02*
X014504Y014354D01*
X015704Y012454D01*
X015704Y006204D01*
X014604Y005104D01*
X012504Y005104D01*
X011904Y004504D01*
X009504Y004504D01*
X007754Y006254D01*
X007754Y006704D01*
X007154Y007304D01*
X007054Y007304D01*
X007104Y007604D02*
X008654Y006054D01*
X010404Y006054D01*
X010754Y006404D01*
X010754Y006604D01*
X010604Y006754D01*
X010054Y006754D01*
X009854Y006954D01*
X009854Y007154D01*
X009853Y007195D01*
X009538Y007195D02*
X009504Y007154D01*
X009504Y006754D01*
X009604Y006504D02*
X009304Y006204D01*
X008754Y006204D01*
X007354Y007604D01*
X007354Y007704D01*
X007204Y007854D01*
X006404Y007854D01*
X006004Y007804D02*
X007404Y009204D01*
X007454Y009204D01*
X005754Y010904D01*
X005754Y011054D01*
X005654Y011154D01*
X005654Y012204D01*
X006054Y012554D02*
X008604Y010004D01*
X008635Y009988D01*
X008604Y009704D02*
X008635Y009673D01*
X008604Y009704D02*
X007304Y009704D01*
X006004Y011004D01*
X005704Y010754D02*
X005504Y010954D01*
X005704Y010754D02*
X005704Y007904D01*
X005454Y007654D01*
X005454Y005504D01*
X005904Y005054D01*
X008604Y005054D01*
X008604Y004704D02*
X005254Y004704D01*
X005223Y004656D01*
X005204Y004704D01*
X005204Y008604D01*
X004804Y009004D01*
X004554Y009254D01*
X004554Y009654D01*
X003904Y010304D01*
X002704Y010304D01*
X002689Y010346D01*
X002304Y009954D02*
X002304Y009304D01*
X002404Y009204D01*
X002454Y009204D01*
X002854Y008804D01*
X002856Y008754D01*
X002854Y008754D01*
X002854Y008404D01*
X002604Y008154D01*
X002604Y007854D01*
X002804Y007654D01*
X002804Y007404D01*
X003304Y007204D02*
X003351Y007232D01*
X003304Y007204D02*
X003304Y006704D01*
X003254Y006654D01*
X003254Y006404D01*
X003604Y006054D01*
X003854Y006054D01*
X004304Y006504D01*
X004304Y009554D01*
X003804Y009004D02*
X003354Y009454D01*
X003104Y009554D02*
X003304Y009754D01*
X003404Y009754D01*
X003104Y009554D02*
X002754Y009554D01*
X002731Y009546D01*
X003254Y009154D02*
X003254Y008504D01*
X003104Y008354D01*
X003104Y008004D01*
X003064Y007980D01*
X003804Y007104D02*
X003804Y009004D01*
X004704Y008104D02*
X004704Y005254D01*
X004656Y005223D01*
X004151Y005845D02*
X004154Y005854D01*
X004454Y006154D01*
X003754Y006554D02*
X003715Y006518D01*
X003754Y006554D02*
X003754Y007054D01*
X003804Y007104D01*
X002954Y006454D02*
X002954Y006154D01*
X002999Y006104D01*
X002454Y006054D02*
X003104Y005404D01*
X003454Y005404D01*
X003482Y005359D01*
X003504Y005354D01*
X003504Y005204D01*
X004004Y004704D01*
X004042Y004669D01*
X004054Y004654D01*
X004654Y004054D01*
X004669Y004042D01*
X004704Y004004D01*
X005204Y003504D01*
X005359Y003482D01*
X005354Y003504D01*
X005204Y003504D01*
X005204Y003054D01*
X005404Y002904D02*
X006204Y003704D01*
X006104Y002999D02*
X006154Y002954D01*
X006454Y002654D01*
X006504Y002604D01*
X006854Y002604D01*
X006896Y002596D01*
X006904Y002554D01*
X007154Y002304D01*
X007354Y002304D01*
X007904Y001754D01*
X008154Y001854D02*
X008904Y001104D01*
X009904Y001104D01*
X009933Y001094D01*
X009904Y001104D01*
X009904Y001554D01*
X010304Y001904D02*
X009504Y001904D01*
X009460Y001909D01*
X009004Y002004D02*
X008604Y002004D01*
X008583Y002048D01*
X008154Y001854D02*
X008154Y002504D01*
X008004Y002654D01*
X007754Y002654D01*
X007254Y003154D01*
X007254Y003304D01*
X007232Y003351D01*
X007980Y003064D02*
X008004Y003104D01*
X008254Y003104D01*
X008454Y003304D01*
X008754Y002856D02*
X008804Y002854D01*
X008804Y002554D01*
X009004Y002354D01*
X009504Y002754D02*
X009546Y002731D01*
X009504Y002754D02*
X008054Y004204D01*
X008604Y004204D02*
X009354Y004204D01*
X009904Y003654D01*
X011254Y003654D01*
X010854Y003254D01*
X010854Y003004D01*
X011104Y002754D01*
X011147Y002731D01*
X011104Y003154D02*
X011654Y003154D01*
X012604Y004104D01*
X012704Y003854D02*
X011954Y003104D01*
X011954Y002904D01*
X011938Y002856D01*
X011904Y002854D01*
X011554Y002504D01*
X011554Y002354D01*
X012404Y002604D02*
X012704Y002904D01*
X012704Y003054D01*
X012713Y003064D01*
X013461Y003351D02*
X013504Y003354D01*
X013504Y003854D01*
X014304Y004254D02*
X014704Y004254D01*
X014804Y004154D01*
X014848Y004151D01*
X015454Y004004D02*
X015454Y003604D01*
X015354Y003504D01*
X015334Y003482D01*
X015304Y003454D01*
X015004Y003154D01*
X014854Y003004D01*
X014604Y003004D01*
X014589Y002999D01*
X015354Y002854D02*
X015354Y002554D01*
X015330Y002541D01*
X015354Y002854D02*
X015554Y003054D01*
X015504Y003054D01*
X015554Y003054D02*
X017204Y004704D01*
X016754Y005154D01*
X016604Y005154D01*
X016154Y004704D01*
X015504Y004704D01*
X015470Y004656D01*
X015304Y005104D02*
X015904Y005104D01*
X016004Y005204D01*
X016037Y005223D01*
X016104Y005804D02*
X016504Y005804D01*
X016542Y005845D01*
X016978Y006518D02*
X016954Y006554D01*
X016354Y007154D01*
X017342Y007232D02*
X017604Y007304D01*
X017604Y006704D01*
X018054Y006854D02*
X018054Y006504D01*
X017704Y006154D01*
X017694Y006104D01*
X017654Y006104D01*
X017354Y005804D01*
X017254Y005704D01*
X017254Y005404D01*
X017210Y005359D01*
X017254Y005404D01*
X017704Y005504D02*
X017704Y005204D01*
X017204Y004704D01*
X016651Y004669D02*
X016604Y004654D01*
X016004Y004054D01*
X016023Y004042D01*
X016004Y004054D01*
X015704Y003754D01*
X017704Y005504D02*
X018254Y006054D01*
X018554Y006054D01*
X018566Y006078D01*
X018604Y006104D01*
X018804Y006304D01*
X018804Y007754D01*
X019554Y008504D01*
X019554Y009504D01*
X019304Y009504D01*
X019554Y009504D02*
X019554Y009904D01*
X019598Y009933D01*
X019598Y010760D02*
X019554Y010804D01*
X019554Y012204D01*
X019304Y012454D01*
X019304Y013154D01*
X018854Y013604D01*
X018604Y013404D02*
X019154Y012854D01*
X019154Y010904D01*
X019054Y010804D01*
X018254Y011704D02*
X018054Y011504D01*
X017604Y011504D01*
X016654Y010554D01*
X017404Y011104D02*
X017954Y011104D01*
X017962Y011147D01*
X018254Y011704D02*
X018254Y012154D01*
X018054Y012354D01*
X018054Y012904D01*
X017804Y013154D01*
X017804Y013604D01*
X018604Y013404D02*
X018604Y014604D01*
X018566Y014614D01*
X018554Y014654D01*
X018204Y014654D01*
X018152Y015330D02*
X018104Y015354D01*
X017804Y015654D01*
X016542Y014848D02*
X016504Y014854D01*
X017604Y012704D02*
X017629Y012713D01*
X017837Y011938D02*
X017804Y011904D01*
X017654Y011904D01*
X018004Y010346D02*
X018004Y010304D01*
X017854Y010304D01*
X017304Y009754D01*
X017554Y009304D02*
X017804Y009054D01*
X017804Y008804D01*
X017837Y008754D01*
X017904Y008354D02*
X017604Y008354D01*
X017904Y008354D02*
X018054Y008204D01*
X018054Y007754D01*
X017604Y007304D01*
X017554Y007254D01*
X017354Y007254D01*
X017342Y007232D01*
X017354Y007204D01*
X018054Y006854D02*
X018097Y006896D01*
X018104Y006904D01*
X018404Y007204D01*
X018404Y007704D01*
X018416Y007725D01*
X018454Y007754D01*
X018454Y008404D01*
X018604Y008554D01*
X018645Y008583D01*
X018654Y008604D01*
X018754Y008704D01*
X018754Y009454D01*
X018784Y009460D01*
X018754Y009504D01*
X018754Y009904D01*
X018004Y009504D02*
X018004Y009304D01*
X018304Y009004D01*
X018004Y009504D02*
X017962Y009546D01*
X015454Y011304D02*
X012254Y008104D01*
X012054Y008104D01*
X012015Y008098D01*
X012004Y008104D01*
X010954Y008104D01*
X010854Y008004D01*
X010824Y007994D01*
X011304Y007654D02*
X011154Y007504D01*
X011154Y007204D01*
X011112Y007195D01*
X011404Y007154D02*
X011404Y006854D01*
X010454Y005904D01*
X008454Y005904D01*
X008004Y006354D01*
X008404Y006754D02*
X007504Y007654D01*
X007504Y007904D01*
X007904Y007604D02*
X008354Y008054D01*
X008604Y008054D01*
X008635Y008098D01*
X008635Y008413D02*
X008604Y008454D01*
X008004Y008454D01*
X007504Y008954D01*
X007454Y009204D02*
X008254Y009204D01*
X008404Y009354D01*
X008604Y009354D01*
X008635Y009358D01*
X008654Y009404D01*
X008704Y009454D01*
X009104Y009454D01*
X009104Y009804D02*
X009804Y009104D01*
X009804Y008904D01*
X009824Y008894D01*
X010304Y008554D02*
X010304Y007554D01*
X010204Y007454D01*
X010204Y007204D01*
X010167Y007195D01*
X010504Y006504D02*
X009604Y006504D01*
X009204Y006454D02*
X009204Y007154D01*
X009223Y007195D01*
X008854Y007154D02*
X008654Y007354D01*
X008654Y007754D01*
X008635Y007783D01*
X008904Y007454D02*
X009404Y007954D01*
X009804Y007954D01*
X009824Y007994D01*
X009104Y008704D02*
X008654Y008704D01*
X008635Y008728D01*
X008604Y008754D01*
X008404Y008754D01*
X008254Y008904D01*
X008254Y009204D01*
X008635Y009043D02*
X008654Y009054D01*
X009104Y009054D01*
X009104Y009804D02*
X009104Y010104D01*
X009223Y010575D02*
X009204Y010604D01*
X008504Y010604D01*
X006404Y012704D01*
X006704Y013604D02*
X004904Y011804D01*
X004904Y010754D01*
X004754Y010904D01*
X004704Y010904D01*
X003704Y011904D01*
X003954Y012154D02*
X004604Y011504D01*
X004904Y010754D02*
X005454Y010204D01*
X005454Y008004D01*
X006004Y007804D02*
X006004Y006254D01*
X005704Y005604D02*
X007104Y007004D01*
X008404Y006754D02*
X008854Y006754D01*
X011404Y007154D02*
X011427Y007195D01*
X011604Y007804D02*
X011554Y007854D01*
X011604Y007804D02*
X012004Y007804D01*
X012015Y007783D01*
X012015Y009043D02*
X012054Y009054D01*
X012454Y009054D01*
X012015Y009043D02*
X012004Y009054D01*
X011554Y009054D01*
X010854Y009754D01*
X010824Y009794D01*
X010154Y010104D02*
X009854Y009804D01*
X009824Y009794D01*
X010154Y010104D02*
X010154Y010554D01*
X010167Y010575D01*
X010154Y010604D01*
X010154Y010804D01*
X010054Y010904D01*
X010054Y011054D01*
X010504Y010804D02*
X010504Y010604D01*
X010482Y010575D01*
X010504Y010804D02*
X012604Y012904D01*
X013354Y012904D01*
X014004Y013004D02*
X012804Y014204D01*
X014004Y013004D02*
X014004Y011454D01*
X012254Y009704D01*
X012054Y009704D01*
X012015Y009673D01*
X012015Y009988D02*
X012004Y010004D01*
X011754Y010254D01*
X011754Y010304D01*
X010797Y010575D02*
X010804Y010604D01*
X010804Y010804D01*
X012654Y012654D01*
X012704Y012654D01*
X015454Y012354D02*
X015454Y011304D01*
X017654Y006104D02*
X017694Y006104D01*
X018104Y005354D02*
X018152Y005362D01*
X018104Y005354D02*
X018104Y005204D01*
X017904Y005004D01*
X012454Y004854D02*
X011254Y003654D01*
X011304Y004054D02*
X011454Y004054D01*
X011904Y004504D01*
X010346Y002689D02*
X010304Y002654D01*
X009954Y002304D01*
X010304Y001904D02*
X010346Y001862D01*
X010354Y001904D01*
X010704Y001904D01*
X010804Y001554D02*
X010804Y001104D01*
X010760Y001094D01*
X007725Y002277D02*
X007704Y002304D01*
X007354Y002304D01*
X006554Y002104D02*
X006104Y002104D01*
X006078Y002127D01*
X005404Y002554D02*
X005362Y002541D01*
X005354Y002554D01*
X003504Y004404D01*
X003104Y005154D02*
X002904Y005354D01*
X002554Y005354D01*
X002541Y005362D01*
X002454Y006054D02*
X002154Y006054D01*
X002127Y006078D01*
X001604Y008404D02*
X001104Y008904D01*
X001104Y009904D01*
X001094Y009933D01*
X001104Y010754D02*
X001455Y010754D01*
X001862Y010346D01*
X001104Y010754D02*
X001094Y010760D01*
X001904Y009504D02*
X001909Y009460D01*
X002754Y011104D02*
X002731Y011147D01*
X002754Y011104D02*
X003204Y011104D01*
X003854Y010454D01*
X003954Y010454D01*
X005154Y009254D01*
X005154Y009004D01*
X004604Y010504D02*
X004104Y010504D01*
X003104Y011504D01*
X004254Y012554D02*
X003354Y013454D01*
X003351Y013461D01*
X003354Y013504D01*
X005454Y013504D01*
X004354Y012554D02*
X004254Y012554D01*
X004104Y014804D02*
X003604Y014804D01*
X004104Y014804D02*
X004151Y014848D01*
X004704Y014904D02*
X004704Y015454D01*
X004656Y015470D01*
X004554Y016004D02*
X004004Y015454D01*
X004554Y016004D02*
X005204Y016004D01*
X005223Y016037D01*
X005845Y016542D02*
X005854Y016554D01*
X005854Y016904D01*
X006404Y017454D01*
X006454Y017454D01*
X006854Y017854D01*
X006854Y018054D01*
X006896Y018097D01*
X006854Y018104D01*
X006554Y018404D01*
X007104Y017804D02*
X006854Y017554D01*
X006804Y017554D01*
X006804Y017204D01*
X006954Y017054D01*
X006954Y015204D01*
X006554Y015104D02*
X006554Y016954D01*
X006518Y016978D01*
X007232Y017342D02*
X007254Y017304D01*
X007254Y016404D01*
X007754Y015904D01*
X007304Y015454D01*
X007754Y015904D02*
X008904Y015904D01*
X010704Y017704D01*
X010704Y018254D01*
X011104Y018654D01*
X011233Y018784D01*
X011204Y018754D01*
X011104Y018654D01*
X011554Y018204D01*
X011554Y017704D01*
X011504Y017654D01*
X011504Y017604D01*
X011704Y017404D01*
X012154Y017404D01*
X012304Y017554D01*
X012304Y017904D01*
X012854Y018454D01*
X012968Y018416D01*
X013004Y018404D01*
X013304Y018104D01*
X013754Y018104D01*
X013797Y018097D01*
X012968Y018416D02*
X012954Y018454D01*
X012854Y018454D01*
X012304Y018454D01*
X012154Y018604D01*
X012110Y018645D01*
X011904Y018204D02*
X011604Y018504D01*
X011904Y018204D02*
X011904Y017854D01*
X011938Y017837D01*
X011147Y017962D02*
X011104Y017954D01*
X010854Y017704D01*
X010854Y017654D01*
X010454Y017254D01*
X010346Y018004D02*
X010304Y018004D01*
X009704Y017404D01*
X008554Y017404D01*
X008354Y017604D01*
X008004Y017604D01*
X007980Y017629D01*
X007954Y017604D01*
X007954Y016254D01*
X007854Y016154D01*
X007504Y017804D02*
X007104Y017804D01*
X007504Y017804D02*
X007754Y018054D01*
X008204Y018054D01*
X008404Y017854D01*
X008754Y017854D01*
X008754Y017837D01*
X008583Y018645D02*
X008554Y018654D01*
X008404Y018654D01*
X008254Y018804D01*
X008583Y018645D02*
X008604Y018654D01*
X009004Y018654D01*
X009704Y019354D01*
X009504Y019554D01*
X009704Y019354D02*
X009904Y019554D01*
X009933Y019598D01*
X010346Y018831D02*
X010354Y018804D01*
X010704Y018454D01*
X010704Y018254D01*
X010804Y019554D02*
X010760Y019598D01*
X010804Y019554D02*
X011504Y019554D01*
X009460Y018784D02*
X009454Y018754D01*
X009354Y018654D01*
X009004Y018654D01*
X005404Y002904D02*
X005404Y002554D01*
D19*
X003504Y004404D03*
X003104Y005154D03*
X004454Y006154D03*
X005704Y005604D03*
X006004Y006254D03*
X007104Y007004D03*
X007054Y007304D03*
X007104Y007604D03*
X007504Y007904D03*
X007904Y007604D03*
X008854Y007154D03*
X008904Y007454D03*
X008854Y006754D03*
X009204Y006454D03*
X009504Y006754D03*
X010504Y006504D03*
X011304Y007654D03*
X011554Y007854D03*
X010304Y008554D03*
X009104Y008704D03*
X009104Y009054D03*
X009104Y009454D03*
X009104Y010104D03*
X010054Y011054D03*
X011754Y010304D03*
X012454Y009054D03*
X015454Y012354D03*
X016754Y011004D03*
X017454Y010804D03*
X017304Y009754D03*
X017304Y009054D03*
X016904Y008254D03*
X016354Y007654D03*
X016804Y007054D03*
X017604Y006704D03*
X017354Y005804D03*
X017904Y005004D03*
X015704Y003754D03*
X015454Y004004D03*
X015004Y003154D03*
X015504Y003054D03*
X014104Y002254D03*
X013504Y003854D03*
X012704Y003854D03*
X012604Y004604D03*
X011304Y004054D03*
X011104Y003154D03*
X011554Y002354D03*
X012404Y002604D03*
X010804Y001554D03*
X009954Y002304D03*
X009904Y001554D03*
X009004Y002004D03*
X009004Y002354D03*
X008454Y003304D03*
X008604Y004204D03*
X008604Y004704D03*
X008604Y005054D03*
X008054Y004204D03*
X006454Y002654D03*
X006554Y002104D03*
X005204Y003054D03*
X004704Y004604D03*
X002804Y007404D03*
X001604Y008404D03*
X002304Y009954D03*
X003254Y009154D03*
X003354Y009454D03*
X003404Y009754D03*
X004304Y009554D03*
X004804Y009004D03*
X005154Y009004D03*
X004704Y008104D03*
X005454Y008004D03*
X006404Y007854D03*
X007504Y008954D03*
X006004Y011004D03*
X005504Y010954D03*
X004604Y010504D03*
X004604Y011504D03*
X003954Y012154D03*
X004354Y012554D03*
X005454Y013504D03*
X006404Y012704D03*
X006054Y012554D03*
X005654Y012204D03*
X007004Y012654D03*
X007504Y012804D03*
X008404Y012704D03*
X006454Y014254D03*
X006654Y014504D03*
X006554Y015104D03*
X006004Y014854D03*
X007304Y015454D03*
X007854Y016154D03*
X006404Y018154D03*
X008154Y018554D03*
X009504Y019554D03*
X011504Y019554D03*
X013204Y017854D03*
X014104Y018454D03*
X014354Y018154D03*
X014854Y017304D03*
X015704Y016954D03*
X014604Y015754D03*
X014354Y016204D03*
X014354Y015104D03*
X014504Y014454D03*
X015404Y014604D03*
X015554Y015204D03*
X015504Y015504D03*
X016904Y015654D03*
X017804Y015654D03*
X018204Y014354D03*
X018854Y013604D03*
X016854Y013504D03*
X019054Y010804D03*
X018754Y009904D03*
X019304Y009504D03*
X018304Y009004D03*
X016104Y008204D03*
X015304Y005104D03*
X014604Y005104D03*
X014304Y004254D03*
X008004Y006354D03*
X007904Y001754D03*
X003304Y012204D03*
X002454Y012454D03*
X001854Y012604D03*
X001604Y012954D03*
X003204Y014004D03*
X003604Y014804D03*
X004004Y015454D03*
X004704Y014904D03*
X012804Y014204D03*
X013354Y012904D03*
X012704Y012654D03*
M02*
