G75*
G70*
%OFA0B0*%
%FSLAX24Y24*%
%IPPOS*%
%LPD*%
%AMOC8*
5,1,8,0,0,1.08239X$1,22.5*
%
%ADD10C,0.0004*%
%ADD11C,0.0000*%
%ADD12C,0.0400*%
%ADD13C,0.1114*%
%ADD14C,0.0060*%
%ADD15R,0.0380X0.0050*%
%ADD16R,0.0050X0.0380*%
D10*
X000503Y010346D02*
X000515Y010829D01*
X000550Y011311D01*
X000610Y011790D01*
X000692Y012266D01*
X000798Y012738D01*
X000927Y013203D01*
X001078Y013662D01*
X001252Y014113D01*
X001448Y014554D01*
X001665Y014986D01*
X001903Y015406D01*
X002162Y015814D01*
X002440Y016209D01*
X002737Y016590D01*
X003053Y016956D01*
X003386Y017306D01*
X003736Y017639D01*
X004102Y017955D01*
X004483Y018252D01*
X004878Y018530D01*
X005286Y018789D01*
X005706Y019027D01*
X006138Y019244D01*
X006579Y019440D01*
X007030Y019614D01*
X007489Y019765D01*
X007954Y019894D01*
X008426Y020000D01*
X008902Y020082D01*
X009381Y020142D01*
X009863Y020177D01*
X010346Y020189D01*
X010829Y020177D01*
X011311Y020142D01*
X011790Y020082D01*
X012266Y020000D01*
X012738Y019894D01*
X013203Y019765D01*
X013662Y019614D01*
X014113Y019440D01*
X014554Y019244D01*
X014986Y019027D01*
X015406Y018789D01*
X015814Y018530D01*
X016209Y018252D01*
X016590Y017955D01*
X016956Y017639D01*
X017306Y017306D01*
X017639Y016956D01*
X017955Y016590D01*
X018252Y016209D01*
X018530Y015814D01*
X018789Y015406D01*
X019027Y014986D01*
X019244Y014554D01*
X019440Y014113D01*
X019614Y013662D01*
X019765Y013203D01*
X019894Y012738D01*
X020000Y012266D01*
X020082Y011790D01*
X020142Y011311D01*
X020177Y010829D01*
X020189Y010346D01*
X020177Y009863D01*
X020142Y009381D01*
X020082Y008902D01*
X020000Y008426D01*
X019894Y007954D01*
X019765Y007489D01*
X019614Y007030D01*
X019440Y006579D01*
X019244Y006138D01*
X019027Y005706D01*
X018789Y005286D01*
X018530Y004878D01*
X018252Y004483D01*
X017955Y004102D01*
X017639Y003736D01*
X017306Y003386D01*
X016956Y003053D01*
X016590Y002737D01*
X016209Y002440D01*
X015814Y002162D01*
X015406Y001903D01*
X014986Y001665D01*
X014554Y001448D01*
X014113Y001252D01*
X013662Y001078D01*
X013203Y000927D01*
X012738Y000798D01*
X012266Y000692D01*
X011790Y000610D01*
X011311Y000550D01*
X010829Y000515D01*
X010346Y000503D01*
X009863Y000515D01*
X009381Y000550D01*
X008902Y000610D01*
X008426Y000692D01*
X007954Y000798D01*
X007489Y000927D01*
X007030Y001078D01*
X006579Y001252D01*
X006138Y001448D01*
X005706Y001665D01*
X005286Y001903D01*
X004878Y002162D01*
X004483Y002440D01*
X004102Y002737D01*
X003736Y003053D01*
X003386Y003386D01*
X003053Y003736D01*
X002737Y004102D01*
X002440Y004483D01*
X002162Y004878D01*
X001903Y005286D01*
X001665Y005706D01*
X001448Y006138D01*
X001252Y006579D01*
X001078Y007030D01*
X000927Y007489D01*
X000798Y007954D01*
X000692Y008426D01*
X000610Y008902D01*
X000550Y009381D01*
X000515Y009863D01*
X000503Y010346D01*
D11*
X009913Y012709D02*
X009915Y012750D01*
X009921Y012791D01*
X009931Y012831D01*
X009944Y012870D01*
X009961Y012907D01*
X009982Y012943D01*
X010006Y012977D01*
X010033Y013008D01*
X010062Y013036D01*
X010095Y013062D01*
X010129Y013084D01*
X010166Y013103D01*
X010204Y013118D01*
X010244Y013130D01*
X010284Y013138D01*
X010325Y013142D01*
X010367Y013142D01*
X010408Y013138D01*
X010448Y013130D01*
X010488Y013118D01*
X010526Y013103D01*
X010562Y013084D01*
X010597Y013062D01*
X010630Y013036D01*
X010659Y013008D01*
X010686Y012977D01*
X010710Y012943D01*
X010731Y012907D01*
X010748Y012870D01*
X010761Y012831D01*
X010771Y012791D01*
X010777Y012750D01*
X010779Y012709D01*
X010777Y012668D01*
X010771Y012627D01*
X010761Y012587D01*
X010748Y012548D01*
X010731Y012511D01*
X010710Y012475D01*
X010686Y012441D01*
X010659Y012410D01*
X010630Y012382D01*
X010597Y012356D01*
X010563Y012334D01*
X010526Y012315D01*
X010488Y012300D01*
X010448Y012288D01*
X010408Y012280D01*
X010367Y012276D01*
X010325Y012276D01*
X010284Y012280D01*
X010244Y012288D01*
X010204Y012300D01*
X010166Y012315D01*
X010130Y012334D01*
X010095Y012356D01*
X010062Y012382D01*
X010033Y012410D01*
X010006Y012441D01*
X009982Y012475D01*
X009961Y012511D01*
X009944Y012548D01*
X009931Y012587D01*
X009921Y012627D01*
X009915Y012668D01*
X009913Y012709D01*
D12*
X010039Y014483D02*
X008972Y014483D01*
X009505Y014483D02*
X009505Y016085D01*
X008972Y015551D01*
X010813Y015818D02*
X011080Y016085D01*
X011614Y016085D01*
X011881Y015818D01*
X011881Y015551D01*
X010813Y014483D01*
X011881Y014483D01*
X015018Y011079D02*
X015552Y011079D01*
X015819Y010812D01*
X015819Y010545D01*
X015552Y010278D01*
X015819Y010011D01*
X015819Y009744D01*
X015552Y009478D01*
X015018Y009478D01*
X014751Y009744D01*
X015285Y010278D02*
X015552Y010278D01*
X014751Y010812D02*
X015018Y011079D01*
X010827Y006439D02*
X010293Y006172D01*
X009759Y005638D01*
X010560Y005638D01*
X010827Y005372D01*
X010827Y005105D01*
X010560Y004838D01*
X010026Y004838D01*
X009759Y005105D01*
X009759Y005638D01*
X005638Y009562D02*
X005905Y009829D01*
X005905Y010897D01*
X005638Y011164D01*
X005105Y011164D01*
X004838Y010897D01*
X004838Y010630D01*
X005105Y010363D01*
X005905Y010363D01*
X005638Y009562D02*
X005105Y009562D01*
X004838Y009829D01*
D13*
X003732Y010346D03*
X004619Y013654D03*
X007039Y016074D03*
X007039Y016074D03*
X010346Y016961D03*
X016074Y013654D03*
X016961Y010346D03*
X016074Y007039D03*
X013654Y004619D03*
X010346Y003732D03*
X007039Y004619D03*
X004619Y007039D03*
D14*
X008945Y007505D02*
X008945Y010126D01*
X009085Y010265D01*
X011705Y010265D01*
X011705Y007505D01*
X008945Y007505D01*
X009104Y009965D02*
X009106Y009988D01*
X009112Y010011D01*
X009121Y010032D01*
X009134Y010052D01*
X009150Y010069D01*
X009168Y010083D01*
X009188Y010094D01*
X009210Y010102D01*
X009233Y010106D01*
X009257Y010106D01*
X009280Y010102D01*
X009302Y010094D01*
X009322Y010083D01*
X009340Y010069D01*
X009356Y010052D01*
X009369Y010032D01*
X009378Y010011D01*
X009384Y009988D01*
X009386Y009965D01*
X009384Y009942D01*
X009378Y009919D01*
X009369Y009898D01*
X009356Y009878D01*
X009340Y009861D01*
X009322Y009847D01*
X009302Y009836D01*
X009280Y009828D01*
X009257Y009824D01*
X009233Y009824D01*
X009210Y009828D01*
X009188Y009836D01*
X009168Y009847D01*
X009150Y009861D01*
X009134Y009878D01*
X009121Y009898D01*
X009112Y009919D01*
X009106Y009942D01*
X009104Y009965D01*
D15*
G36*
X004140Y005013D02*
X004393Y004732D01*
X004356Y004699D01*
X004103Y004980D01*
X004140Y005013D01*
G37*
G36*
X003617Y005691D02*
X003839Y005384D01*
X003799Y005355D01*
X003577Y005662D01*
X003617Y005691D01*
G37*
G36*
X003167Y006421D02*
X003356Y006092D01*
X003313Y006067D01*
X003124Y006396D01*
X003167Y006421D01*
G37*
G36*
X002796Y007192D02*
X002950Y006846D01*
X002904Y006826D01*
X002750Y007172D01*
X002796Y007192D01*
G37*
G36*
X002508Y007999D02*
X002624Y007639D01*
X002576Y007623D01*
X002460Y007983D01*
X002508Y007999D01*
G37*
G36*
X002305Y008831D02*
X002383Y008460D01*
X002335Y008449D01*
X002257Y008820D01*
X002305Y008831D01*
G37*
G36*
X002190Y009680D02*
X002229Y009303D01*
X002180Y009298D01*
X002141Y009675D01*
X002190Y009680D01*
G37*
X001094Y010211D03*
G36*
X002229Y011390D02*
X002190Y011013D01*
X002141Y011018D01*
X002180Y011395D01*
X002229Y011390D01*
G37*
G36*
X002383Y012232D02*
X002305Y011861D01*
X002257Y011872D01*
X002335Y012243D01*
X002383Y012232D01*
G37*
G36*
X002624Y013054D02*
X002508Y012694D01*
X002460Y012710D01*
X002576Y013070D01*
X002624Y013054D01*
G37*
G36*
X002950Y013847D02*
X002796Y013501D01*
X002750Y013521D01*
X002904Y013867D01*
X002950Y013847D01*
G37*
G36*
X003356Y014601D02*
X003167Y014272D01*
X003124Y014297D01*
X003313Y014626D01*
X003356Y014601D01*
G37*
G36*
X003839Y015309D02*
X003617Y015002D01*
X003577Y015031D01*
X003799Y015338D01*
X003839Y015309D01*
G37*
G36*
X004393Y015961D02*
X004140Y015680D01*
X004103Y015713D01*
X004356Y015994D01*
X004393Y015961D01*
G37*
G36*
X005013Y016552D02*
X004732Y016299D01*
X004699Y016336D01*
X004980Y016589D01*
X005013Y016552D01*
G37*
G36*
X005691Y017076D02*
X005384Y016854D01*
X005355Y016894D01*
X005662Y017116D01*
X005691Y017076D01*
G37*
G36*
X006421Y017526D02*
X006092Y017337D01*
X006067Y017380D01*
X006396Y017569D01*
X006421Y017526D01*
G37*
G36*
X007192Y017897D02*
X006846Y017743D01*
X006826Y017789D01*
X007172Y017943D01*
X007192Y017897D01*
G37*
G36*
X007999Y018185D02*
X007639Y018069D01*
X007623Y018117D01*
X007983Y018233D01*
X007999Y018185D01*
G37*
G36*
X008831Y018388D02*
X008460Y018310D01*
X008449Y018358D01*
X008820Y018436D01*
X008831Y018388D01*
G37*
G36*
X009680Y018502D02*
X009303Y018463D01*
X009298Y018512D01*
X009675Y018551D01*
X009680Y018502D01*
G37*
X010346Y018552D03*
G36*
X011390Y018463D02*
X011013Y018502D01*
X011018Y018551D01*
X011395Y018512D01*
X011390Y018463D01*
G37*
G36*
X012232Y018310D02*
X011861Y018388D01*
X011872Y018436D01*
X012243Y018358D01*
X012232Y018310D01*
G37*
G36*
X013054Y018069D02*
X012694Y018185D01*
X012710Y018233D01*
X013070Y018117D01*
X013054Y018069D01*
G37*
G36*
X013847Y017743D02*
X013501Y017897D01*
X013521Y017943D01*
X013867Y017789D01*
X013847Y017743D01*
G37*
G36*
X014601Y017337D02*
X014272Y017526D01*
X014297Y017569D01*
X014626Y017380D01*
X014601Y017337D01*
G37*
G36*
X015309Y016854D02*
X015002Y017076D01*
X015031Y017116D01*
X015338Y016894D01*
X015309Y016854D01*
G37*
G36*
X015961Y016299D02*
X015680Y016552D01*
X015713Y016589D01*
X015994Y016336D01*
X015961Y016299D01*
G37*
G36*
X016552Y015680D02*
X016299Y015961D01*
X016336Y015994D01*
X016589Y015713D01*
X016552Y015680D01*
G37*
G36*
X017076Y015002D02*
X016854Y015309D01*
X016894Y015338D01*
X017116Y015031D01*
X017076Y015002D01*
G37*
G36*
X017526Y014272D02*
X017337Y014601D01*
X017380Y014626D01*
X017569Y014297D01*
X017526Y014272D01*
G37*
G36*
X017897Y013501D02*
X017743Y013847D01*
X017789Y013867D01*
X017943Y013521D01*
X017897Y013501D01*
G37*
G36*
X018185Y012694D02*
X018069Y013054D01*
X018117Y013070D01*
X018233Y012710D01*
X018185Y012694D01*
G37*
G36*
X018388Y011861D02*
X018310Y012232D01*
X018358Y012243D01*
X018436Y011872D01*
X018388Y011861D01*
G37*
G36*
X018502Y011013D02*
X018463Y011390D01*
X018512Y011395D01*
X018551Y011018D01*
X018502Y011013D01*
G37*
X019598Y010481D03*
G36*
X018463Y009303D02*
X018502Y009680D01*
X018551Y009675D01*
X018512Y009298D01*
X018463Y009303D01*
G37*
G36*
X018310Y008460D02*
X018388Y008831D01*
X018436Y008820D01*
X018358Y008449D01*
X018310Y008460D01*
G37*
G36*
X018069Y007639D02*
X018185Y007999D01*
X018233Y007983D01*
X018117Y007623D01*
X018069Y007639D01*
G37*
G36*
X017743Y006846D02*
X017897Y007192D01*
X017943Y007172D01*
X017789Y006826D01*
X017743Y006846D01*
G37*
G36*
X017337Y006092D02*
X017526Y006421D01*
X017569Y006396D01*
X017380Y006067D01*
X017337Y006092D01*
G37*
G36*
X016854Y005384D02*
X017076Y005691D01*
X017116Y005662D01*
X016894Y005355D01*
X016854Y005384D01*
G37*
G36*
X016299Y004732D02*
X016552Y005013D01*
X016589Y004980D01*
X016336Y004699D01*
X016299Y004732D01*
G37*
G36*
X015680Y004140D02*
X015961Y004393D01*
X015994Y004356D01*
X015713Y004103D01*
X015680Y004140D01*
G37*
G36*
X015002Y003617D02*
X015309Y003839D01*
X015338Y003799D01*
X015031Y003577D01*
X015002Y003617D01*
G37*
G36*
X014272Y003167D02*
X014601Y003356D01*
X014626Y003313D01*
X014297Y003124D01*
X014272Y003167D01*
G37*
G36*
X013501Y002796D02*
X013847Y002950D01*
X013867Y002904D01*
X013521Y002750D01*
X013501Y002796D01*
G37*
G36*
X012694Y002508D02*
X013054Y002624D01*
X013070Y002576D01*
X012710Y002460D01*
X012694Y002508D01*
G37*
G36*
X011861Y002305D02*
X012232Y002383D01*
X012243Y002335D01*
X011872Y002257D01*
X011861Y002305D01*
G37*
G36*
X011013Y002190D02*
X011390Y002229D01*
X011395Y002180D01*
X011018Y002141D01*
X011013Y002190D01*
G37*
X010346Y002141D03*
G36*
X009303Y002229D02*
X009680Y002190D01*
X009675Y002141D01*
X009298Y002180D01*
X009303Y002229D01*
G37*
G36*
X008460Y002383D02*
X008831Y002305D01*
X008820Y002257D01*
X008449Y002335D01*
X008460Y002383D01*
G37*
G36*
X007639Y002624D02*
X007999Y002508D01*
X007983Y002460D01*
X007623Y002576D01*
X007639Y002624D01*
G37*
G36*
X006846Y002950D02*
X007192Y002796D01*
X007172Y002750D01*
X006826Y002904D01*
X006846Y002950D01*
G37*
G36*
X006092Y003356D02*
X006421Y003167D01*
X006396Y003124D01*
X006067Y003313D01*
X006092Y003356D01*
G37*
G36*
X005384Y003839D02*
X005691Y003617D01*
X005662Y003577D01*
X005355Y003799D01*
X005384Y003839D01*
G37*
G36*
X004732Y004393D02*
X005013Y004140D01*
X004980Y004103D01*
X004699Y004356D01*
X004732Y004393D01*
G37*
G36*
X005721Y002114D02*
X005910Y002443D01*
X005953Y002418D01*
X005764Y002089D01*
X005721Y002114D01*
G37*
G36*
X002224Y005531D02*
X002553Y005720D01*
X002578Y005677D01*
X002249Y005488D01*
X002224Y005531D01*
G37*
G36*
X002114Y014972D02*
X002443Y014783D01*
X002418Y014740D01*
X002089Y014929D01*
X002114Y014972D01*
G37*
G36*
X005531Y018469D02*
X005720Y018140D01*
X005677Y018115D01*
X005488Y018444D01*
X005531Y018469D01*
G37*
G36*
X014972Y018579D02*
X014783Y018250D01*
X014740Y018275D01*
X014929Y018604D01*
X014972Y018579D01*
G37*
G36*
X018469Y015162D02*
X018140Y014973D01*
X018115Y015016D01*
X018444Y015205D01*
X018469Y015162D01*
G37*
G36*
X018579Y005721D02*
X018250Y005910D01*
X018275Y005953D01*
X018604Y005764D01*
X018579Y005721D01*
G37*
G36*
X015162Y002224D02*
X014973Y002553D01*
X015016Y002578D01*
X015205Y002249D01*
X015162Y002224D01*
G37*
D16*
X010481Y001094D03*
X018552Y010346D03*
X010211Y019598D03*
X002141Y010346D03*
M02*
