G75*
G70*
%OFA0B0*%
%FSLAX24Y24*%
%IPPOS*%
%LPD*%
%AMOC8*
5,1,8,0,0,1.08239X$1,22.5*
%
%ADD10C,0.0004*%
%ADD11C,0.0000*%
%ADD12C,0.0130*%
%ADD13C,0.0060*%
%ADD14C,0.0050*%
D10*
X000161Y010296D02*
X000173Y010779D01*
X000208Y011261D01*
X000268Y011740D01*
X000350Y012216D01*
X000456Y012688D01*
X000585Y013153D01*
X000736Y013612D01*
X000910Y014063D01*
X001106Y014504D01*
X001323Y014936D01*
X001561Y015356D01*
X001820Y015764D01*
X002098Y016159D01*
X002395Y016540D01*
X002711Y016906D01*
X003044Y017256D01*
X003394Y017589D01*
X003760Y017905D01*
X004141Y018202D01*
X004536Y018480D01*
X004944Y018739D01*
X005364Y018977D01*
X005796Y019194D01*
X006237Y019390D01*
X006688Y019564D01*
X007147Y019715D01*
X007612Y019844D01*
X008084Y019950D01*
X008560Y020032D01*
X009039Y020092D01*
X009521Y020127D01*
X010004Y020139D01*
X010487Y020127D01*
X010969Y020092D01*
X011448Y020032D01*
X011924Y019950D01*
X012396Y019844D01*
X012861Y019715D01*
X013320Y019564D01*
X013771Y019390D01*
X014212Y019194D01*
X014644Y018977D01*
X015064Y018739D01*
X015472Y018480D01*
X015867Y018202D01*
X016248Y017905D01*
X016614Y017589D01*
X016964Y017256D01*
X017297Y016906D01*
X017613Y016540D01*
X017910Y016159D01*
X018188Y015764D01*
X018447Y015356D01*
X018685Y014936D01*
X018902Y014504D01*
X019098Y014063D01*
X019272Y013612D01*
X019423Y013153D01*
X019552Y012688D01*
X019658Y012216D01*
X019740Y011740D01*
X019800Y011261D01*
X019835Y010779D01*
X019847Y010296D01*
X019835Y009813D01*
X019800Y009331D01*
X019740Y008852D01*
X019658Y008376D01*
X019552Y007904D01*
X019423Y007439D01*
X019272Y006980D01*
X019098Y006529D01*
X018902Y006088D01*
X018685Y005656D01*
X018447Y005236D01*
X018188Y004828D01*
X017910Y004433D01*
X017613Y004052D01*
X017297Y003686D01*
X016964Y003336D01*
X016614Y003003D01*
X016248Y002687D01*
X015867Y002390D01*
X015472Y002112D01*
X015064Y001853D01*
X014644Y001615D01*
X014212Y001398D01*
X013771Y001202D01*
X013320Y001028D01*
X012861Y000877D01*
X012396Y000748D01*
X011924Y000642D01*
X011448Y000560D01*
X010969Y000500D01*
X010487Y000465D01*
X010004Y000453D01*
X009521Y000465D01*
X009039Y000500D01*
X008560Y000560D01*
X008084Y000642D01*
X007612Y000748D01*
X007147Y000877D01*
X006688Y001028D01*
X006237Y001202D01*
X005796Y001398D01*
X005364Y001615D01*
X004944Y001853D01*
X004536Y002112D01*
X004141Y002390D01*
X003760Y002687D01*
X003394Y003003D01*
X003044Y003336D01*
X002711Y003686D01*
X002395Y004052D01*
X002098Y004433D01*
X001820Y004828D01*
X001561Y005236D01*
X001323Y005656D01*
X001106Y006088D01*
X000910Y006529D01*
X000736Y006980D01*
X000585Y007439D01*
X000456Y007904D01*
X000350Y008376D01*
X000268Y008852D01*
X000208Y009331D01*
X000173Y009813D01*
X000161Y010296D01*
D11*
X009571Y013052D02*
X009573Y013093D01*
X009579Y013134D01*
X009589Y013174D01*
X009602Y013213D01*
X009619Y013250D01*
X009640Y013286D01*
X009664Y013320D01*
X009691Y013351D01*
X009720Y013379D01*
X009753Y013405D01*
X009787Y013427D01*
X009824Y013446D01*
X009862Y013461D01*
X009902Y013473D01*
X009942Y013481D01*
X009983Y013485D01*
X010025Y013485D01*
X010066Y013481D01*
X010106Y013473D01*
X010146Y013461D01*
X010184Y013446D01*
X010220Y013427D01*
X010255Y013405D01*
X010288Y013379D01*
X010317Y013351D01*
X010344Y013320D01*
X010368Y013286D01*
X010389Y013250D01*
X010406Y013213D01*
X010419Y013174D01*
X010429Y013134D01*
X010435Y013093D01*
X010437Y013052D01*
X010435Y013011D01*
X010429Y012970D01*
X010419Y012930D01*
X010406Y012891D01*
X010389Y012854D01*
X010368Y012818D01*
X010344Y012784D01*
X010317Y012753D01*
X010288Y012725D01*
X010255Y012699D01*
X010221Y012677D01*
X010184Y012658D01*
X010146Y012643D01*
X010106Y012631D01*
X010066Y012623D01*
X010025Y012619D01*
X009983Y012619D01*
X009942Y012623D01*
X009902Y012631D01*
X009862Y012643D01*
X009824Y012658D01*
X009788Y012677D01*
X009753Y012699D01*
X009720Y012725D01*
X009691Y012753D01*
X009664Y012784D01*
X009640Y012818D01*
X009619Y012854D01*
X009602Y012891D01*
X009589Y012930D01*
X009579Y012970D01*
X009573Y013011D01*
X009571Y013052D01*
X008961Y003013D02*
X008963Y003039D01*
X008969Y003065D01*
X008979Y003090D01*
X008992Y003113D01*
X009008Y003133D01*
X009028Y003151D01*
X009050Y003166D01*
X009073Y003178D01*
X009099Y003186D01*
X009125Y003190D01*
X009151Y003190D01*
X009177Y003186D01*
X009203Y003178D01*
X009227Y003166D01*
X009248Y003151D01*
X009268Y003133D01*
X009284Y003113D01*
X009297Y003090D01*
X009307Y003065D01*
X009313Y003039D01*
X009315Y003013D01*
X009313Y002987D01*
X009307Y002961D01*
X009297Y002936D01*
X009284Y002913D01*
X009268Y002893D01*
X009248Y002875D01*
X009226Y002860D01*
X009203Y002848D01*
X009177Y002840D01*
X009151Y002836D01*
X009125Y002836D01*
X009099Y002840D01*
X009073Y002848D01*
X009049Y002860D01*
X009028Y002875D01*
X009008Y002893D01*
X008992Y002913D01*
X008979Y002936D01*
X008969Y002961D01*
X008963Y002987D01*
X008961Y003013D01*
X010693Y003013D02*
X010695Y003039D01*
X010701Y003065D01*
X010711Y003090D01*
X010724Y003113D01*
X010740Y003133D01*
X010760Y003151D01*
X010782Y003166D01*
X010805Y003178D01*
X010831Y003186D01*
X010857Y003190D01*
X010883Y003190D01*
X010909Y003186D01*
X010935Y003178D01*
X010959Y003166D01*
X010980Y003151D01*
X011000Y003133D01*
X011016Y003113D01*
X011029Y003090D01*
X011039Y003065D01*
X011045Y003039D01*
X011047Y003013D01*
X011045Y002987D01*
X011039Y002961D01*
X011029Y002936D01*
X011016Y002913D01*
X011000Y002893D01*
X010980Y002875D01*
X010958Y002860D01*
X010935Y002848D01*
X010909Y002840D01*
X010883Y002836D01*
X010857Y002836D01*
X010831Y002840D01*
X010805Y002848D01*
X010781Y002860D01*
X010760Y002875D01*
X010740Y002893D01*
X010724Y002913D01*
X010711Y002936D01*
X010701Y002961D01*
X010695Y002987D01*
X010693Y003013D01*
D12*
X010141Y003862D02*
X009897Y003862D01*
X009776Y003984D01*
X009776Y004106D01*
X009897Y004228D01*
X010263Y004228D01*
X010263Y003984D01*
X010141Y003862D01*
X010263Y004228D02*
X010019Y004471D01*
X009776Y004593D01*
X007278Y004796D02*
X007157Y004675D01*
X006913Y004675D01*
X006791Y004796D01*
X006791Y005040D01*
X006913Y005162D01*
X007035Y005162D01*
X007278Y005040D01*
X007278Y005405D01*
X006791Y005405D01*
X004526Y006797D02*
X004526Y007527D01*
X004891Y007162D01*
X004404Y007162D01*
X003915Y009941D02*
X003672Y009941D01*
X003550Y010063D01*
X003550Y010185D01*
X003672Y010307D01*
X003794Y010307D01*
X003672Y010307D02*
X003550Y010429D01*
X003550Y010550D01*
X003672Y010672D01*
X003915Y010672D01*
X004037Y010550D01*
X004037Y010063D02*
X003915Y009941D01*
X004512Y013141D02*
X004999Y013141D01*
X004512Y013628D01*
X004512Y013750D01*
X004634Y013872D01*
X004877Y013872D01*
X004999Y013750D01*
X006559Y015137D02*
X007046Y015137D01*
X006802Y015137D02*
X006802Y015867D01*
X007046Y015624D01*
X009355Y015971D02*
X009842Y015971D01*
X009355Y016458D01*
X009355Y016579D01*
X009476Y016701D01*
X009720Y016701D01*
X009842Y016579D01*
X010390Y016701D02*
X010390Y015971D01*
X010634Y015971D02*
X010146Y015971D01*
X010634Y016458D02*
X010390Y016701D01*
X012618Y015871D02*
X012618Y015141D01*
X012861Y015141D02*
X012374Y015141D01*
X012861Y015628D02*
X012618Y015871D01*
X013410Y015871D02*
X013653Y015628D01*
X013410Y015871D02*
X013410Y015141D01*
X013653Y015141D02*
X013166Y015141D01*
X014622Y013548D02*
X014501Y013427D01*
X014988Y012940D01*
X014866Y012818D01*
X014622Y012818D01*
X014501Y012940D01*
X014501Y013427D01*
X014622Y013548D02*
X014866Y013548D01*
X014988Y013427D01*
X014988Y012940D01*
X015292Y012818D02*
X015779Y012818D01*
X015536Y012818D02*
X015536Y013548D01*
X015779Y013305D01*
X016062Y010725D02*
X016305Y010725D01*
X016427Y010603D01*
X016427Y010481D01*
X016305Y010359D01*
X015940Y010359D01*
X015940Y010116D02*
X015940Y010603D01*
X016062Y010725D01*
X015940Y010116D02*
X016062Y009994D01*
X016305Y009994D01*
X016427Y010116D01*
X015481Y007588D02*
X015237Y007588D01*
X015116Y007466D01*
X015116Y007344D01*
X015237Y007223D01*
X015481Y007223D01*
X015603Y007344D01*
X015603Y007466D01*
X015481Y007588D01*
X015481Y007223D02*
X015603Y007101D01*
X015603Y006979D01*
X015481Y006857D01*
X015237Y006857D01*
X015116Y006979D01*
X015116Y007101D01*
X015237Y007223D01*
X013208Y005401D02*
X012721Y005401D01*
X012721Y005280D01*
X013208Y004792D01*
X013208Y004671D01*
D13*
X011183Y007453D02*
X011323Y007592D01*
X011323Y010212D01*
X008563Y010212D01*
X008563Y007453D01*
X011183Y007453D01*
X010882Y007753D02*
X010884Y007776D01*
X010890Y007799D01*
X010899Y007820D01*
X010912Y007840D01*
X010928Y007857D01*
X010946Y007871D01*
X010966Y007882D01*
X010988Y007890D01*
X011011Y007894D01*
X011035Y007894D01*
X011058Y007890D01*
X011080Y007882D01*
X011100Y007871D01*
X011118Y007857D01*
X011134Y007840D01*
X011147Y007820D01*
X011156Y007799D01*
X011162Y007776D01*
X011164Y007753D01*
X011162Y007730D01*
X011156Y007707D01*
X011147Y007686D01*
X011134Y007666D01*
X011118Y007649D01*
X011100Y007635D01*
X011080Y007624D01*
X011058Y007616D01*
X011035Y007612D01*
X011011Y007612D01*
X010988Y007616D01*
X010966Y007624D01*
X010946Y007635D01*
X010928Y007649D01*
X010912Y007666D01*
X010899Y007686D01*
X010890Y007707D01*
X010884Y007730D01*
X010882Y007753D01*
D14*
X004751Y003066D02*
X004623Y003158D01*
X004751Y003066D02*
X004878Y002973D01*
X004751Y003066D02*
X004971Y003101D01*
X004716Y003286D01*
X004751Y003066D01*
X004141Y003549D02*
X004024Y003654D01*
X004246Y003666D01*
X004012Y003877D01*
X004024Y003654D01*
X003907Y003760D01*
X003468Y004199D02*
X003362Y004316D01*
X003585Y004305D01*
X003374Y004539D01*
X003362Y004316D01*
X003257Y004433D01*
X002866Y004916D02*
X002774Y005043D01*
X002994Y005008D01*
X002808Y005263D01*
X002774Y005043D01*
X002681Y005170D01*
X002343Y005691D02*
X002264Y005828D01*
X002479Y005770D01*
X002322Y006043D01*
X002264Y005828D01*
X002185Y005964D01*
X001903Y006517D02*
X001839Y006661D01*
X002047Y006581D01*
X001919Y006869D01*
X001839Y006661D01*
X001775Y006805D01*
X001553Y007385D02*
X001504Y007534D01*
X001703Y007433D01*
X001605Y007733D01*
X001504Y007534D01*
X001455Y007684D01*
X001295Y008284D02*
X001262Y008438D01*
X001449Y008317D01*
X001384Y008625D01*
X001262Y008438D01*
X001229Y008592D01*
X001132Y009205D02*
X001116Y009362D01*
X001289Y009222D01*
X001256Y009535D01*
X001116Y009362D01*
X001099Y009518D01*
X001067Y010139D02*
X001067Y010296D01*
X001224Y010139D01*
X001224Y010454D01*
X001067Y010296D01*
X001067Y010454D01*
X001099Y011074D02*
X001116Y011230D01*
X001256Y011057D01*
X001289Y011370D01*
X001116Y011230D01*
X001132Y011387D01*
X001384Y011967D02*
X001262Y012154D01*
X001449Y012275D01*
X001384Y011967D01*
X001229Y012000D02*
X001262Y012154D01*
X001295Y012308D01*
X001455Y012908D02*
X001504Y013058D01*
X001605Y012859D01*
X001703Y013159D01*
X001504Y013058D01*
X001553Y013208D01*
X001775Y013787D02*
X001839Y013931D01*
X001919Y013723D01*
X002047Y014011D01*
X001839Y013931D01*
X001903Y014075D01*
X002322Y014549D02*
X002264Y014765D01*
X002479Y014822D01*
X002322Y014549D01*
X002185Y014628D02*
X002264Y014765D01*
X002343Y014901D01*
X002681Y015422D02*
X002774Y015549D01*
X002808Y015329D01*
X002994Y015584D01*
X002774Y015549D01*
X002866Y015676D01*
X003257Y016159D02*
X003362Y016276D01*
X003374Y016054D01*
X003585Y016288D01*
X003362Y016276D01*
X003468Y016393D01*
X003907Y016832D02*
X004024Y016938D01*
X004012Y016715D01*
X004246Y016926D01*
X004024Y016938D01*
X004141Y017043D01*
X004623Y017434D02*
X004751Y017526D01*
X004716Y017306D01*
X004971Y017491D01*
X004751Y017526D01*
X004878Y017619D01*
X005399Y017957D02*
X005535Y018036D01*
X005478Y017821D01*
X005750Y017978D01*
X005535Y018036D01*
X005672Y018115D01*
X006225Y018396D02*
X006369Y018461D01*
X006289Y018253D01*
X006577Y018381D01*
X006369Y018461D01*
X006512Y018525D01*
X007092Y018747D02*
X007242Y018796D01*
X007141Y018597D01*
X007441Y018695D01*
X007242Y018796D01*
X007392Y018844D01*
X007992Y019005D02*
X008146Y019038D01*
X008024Y018851D01*
X008332Y018916D01*
X008146Y019038D01*
X008300Y019070D01*
X008913Y019168D02*
X009070Y019184D01*
X008929Y019011D01*
X009243Y019044D01*
X009070Y019184D01*
X009226Y019201D01*
X009846Y019233D02*
X010004Y019233D01*
X009846Y019076D01*
X010161Y019076D01*
X010004Y019233D01*
X010161Y019233D01*
X010781Y019201D02*
X010938Y019184D01*
X010765Y019044D01*
X011078Y019011D01*
X010938Y019184D01*
X011095Y019168D01*
X011708Y019070D02*
X011862Y019038D01*
X011675Y018916D01*
X011983Y018851D01*
X011862Y019038D01*
X012016Y019005D01*
X012616Y018844D02*
X012766Y018796D01*
X012567Y018695D01*
X012867Y018597D01*
X012766Y018796D01*
X012915Y018747D01*
X013495Y018525D02*
X013639Y018461D01*
X013431Y018381D01*
X013719Y018253D01*
X013639Y018461D01*
X013783Y018396D01*
X014336Y018115D02*
X014472Y018036D01*
X014257Y017978D01*
X014530Y017821D01*
X014472Y018036D01*
X014609Y017957D01*
X015129Y017619D02*
X015257Y017526D01*
X015037Y017491D01*
X015292Y017306D01*
X015257Y017526D01*
X015384Y017434D01*
X015867Y017043D02*
X015984Y016938D01*
X015761Y016926D01*
X015995Y016715D01*
X015984Y016938D01*
X016101Y016832D01*
X016540Y016393D02*
X016645Y016276D01*
X016423Y016288D01*
X016634Y016054D01*
X016645Y016276D01*
X016751Y016159D01*
X017141Y015676D02*
X017234Y015549D01*
X017014Y015584D01*
X017199Y015329D01*
X017234Y015549D01*
X017327Y015422D01*
X017665Y014901D02*
X017744Y014765D01*
X017529Y014822D01*
X017686Y014549D01*
X017744Y014765D01*
X017822Y014628D01*
X018104Y014075D02*
X018168Y013931D01*
X017960Y014011D01*
X018088Y013723D01*
X018168Y013931D01*
X018232Y013787D01*
X018455Y013208D02*
X018504Y013058D01*
X018305Y013159D01*
X018402Y012859D01*
X018504Y013058D01*
X018552Y012908D01*
X018713Y012308D02*
X018745Y012154D01*
X018559Y012275D01*
X018624Y011967D01*
X018745Y012154D01*
X018778Y012000D01*
X018875Y011387D02*
X018892Y011230D01*
X018719Y011370D01*
X018752Y011057D01*
X018892Y011230D01*
X018908Y011074D01*
X018941Y010454D02*
X018941Y010296D01*
X018783Y010454D01*
X018783Y010139D01*
X018941Y010296D01*
X018941Y010139D01*
X018908Y009518D02*
X018892Y009362D01*
X018752Y009535D01*
X018719Y009222D01*
X018892Y009362D01*
X018875Y009205D01*
X018778Y008592D02*
X018745Y008438D01*
X018624Y008625D01*
X018559Y008317D01*
X018745Y008438D01*
X018713Y008284D01*
X018402Y007733D02*
X018504Y007534D01*
X018305Y007433D01*
X018402Y007733D01*
X018552Y007684D02*
X018504Y007534D01*
X018455Y007385D01*
X018232Y006805D02*
X018168Y006661D01*
X018088Y006869D01*
X017960Y006581D01*
X018168Y006661D01*
X018104Y006517D01*
X017822Y005964D02*
X017744Y005828D01*
X017686Y006043D01*
X017529Y005770D01*
X017744Y005828D01*
X017665Y005691D01*
X017327Y005170D02*
X017234Y005043D01*
X017199Y005263D01*
X017014Y005008D01*
X017234Y005043D01*
X017141Y004916D01*
X016634Y004539D02*
X016645Y004316D01*
X016423Y004305D01*
X016634Y004539D01*
X016751Y004433D02*
X016645Y004316D01*
X016540Y004199D01*
X016101Y003760D02*
X015984Y003654D01*
X015995Y003877D01*
X015761Y003666D01*
X015984Y003654D01*
X015867Y003549D01*
X015292Y003286D02*
X015257Y003066D01*
X015037Y003101D01*
X015292Y003286D01*
X015384Y003158D02*
X015257Y003066D01*
X015129Y002973D01*
X014609Y002635D02*
X014472Y002556D01*
X014530Y002771D01*
X014257Y002614D01*
X014472Y002556D01*
X014336Y002477D01*
X013783Y002196D02*
X013639Y002132D01*
X013719Y002340D01*
X013431Y002211D01*
X013639Y002132D01*
X013495Y002068D01*
X012915Y001845D02*
X012766Y001796D01*
X012867Y001995D01*
X012567Y001897D01*
X012766Y001796D01*
X012616Y001748D01*
X012016Y001587D02*
X011862Y001554D01*
X011983Y001741D01*
X011675Y001676D01*
X011862Y001554D01*
X011708Y001522D01*
X011095Y001424D02*
X010938Y001408D01*
X011078Y001581D01*
X010765Y001548D01*
X010938Y001408D01*
X010781Y001391D01*
X010161Y001359D02*
X010004Y001359D01*
X010161Y001517D01*
X009846Y001517D01*
X010004Y001359D01*
X009846Y001359D01*
X009226Y001391D02*
X009070Y001408D01*
X009243Y001548D01*
X008929Y001581D01*
X009070Y001408D01*
X008913Y001424D01*
X008300Y001522D02*
X008146Y001554D01*
X008332Y001676D01*
X008024Y001741D01*
X008146Y001554D01*
X007992Y001587D01*
X007392Y001748D02*
X007242Y001796D01*
X007441Y001897D01*
X007141Y001995D01*
X007242Y001796D01*
X007092Y001845D01*
X006577Y002211D02*
X006369Y002132D01*
X006289Y002340D01*
X006577Y002211D01*
X006512Y002068D02*
X006369Y002132D01*
X006225Y002196D01*
X005672Y002477D02*
X005535Y002556D01*
X005750Y002614D01*
X005478Y002771D01*
X005535Y002556D01*
X005399Y002635D01*
X006450Y003983D02*
X006529Y004120D01*
X006471Y004335D01*
X006314Y004062D01*
X006529Y004120D01*
X006607Y004256D01*
X009925Y003367D02*
X009925Y003052D01*
X010083Y003209D01*
X009925Y003367D01*
X010083Y003367D02*
X010083Y003209D01*
X010083Y003052D01*
X013400Y004256D02*
X013558Y003983D01*
X013615Y004198D01*
X013400Y004256D01*
X013537Y004335D02*
X013615Y004198D01*
X013694Y004062D01*
X015965Y006763D02*
X016238Y006606D01*
X016180Y006821D01*
X015965Y006763D01*
X016044Y006900D02*
X016180Y006821D01*
X016317Y006742D01*
X016933Y010217D02*
X017090Y010375D01*
X017248Y010217D01*
X016933Y010217D01*
X016933Y010375D02*
X017090Y010375D01*
X017248Y010375D01*
X016044Y013692D02*
X016101Y013908D01*
X016317Y013850D01*
X016044Y013692D01*
X015965Y013829D02*
X016101Y013908D01*
X016238Y013986D01*
X013537Y016257D02*
X013479Y016472D01*
X013694Y016530D01*
X013537Y016257D01*
X013400Y016336D02*
X013479Y016472D01*
X013558Y016609D01*
X010083Y017225D02*
X009925Y017383D01*
X010083Y017540D01*
X010083Y017225D01*
X009925Y017225D02*
X009925Y017383D01*
X009925Y017540D01*
X006607Y016336D02*
X006392Y016394D01*
X006450Y016609D01*
X006607Y016336D01*
X006471Y016257D02*
X006392Y016394D01*
X006314Y016530D01*
X004043Y013829D02*
X003827Y013771D01*
X003770Y013986D01*
X004043Y013829D01*
X003964Y013692D02*
X003827Y013771D01*
X003691Y013850D01*
X003075Y010375D02*
X002760Y010375D01*
X002917Y010217D01*
X003075Y010375D01*
X003075Y010217D02*
X002917Y010217D01*
X002760Y010217D01*
X003964Y006900D02*
X003691Y006742D01*
X003906Y006685D01*
X003964Y006900D01*
X004043Y006763D02*
X003906Y006685D01*
X003770Y006606D01*
M02*
