G75*
G70*
%OFA0B0*%
%FSLAX24Y24*%
%IPPOS*%
%LPD*%
%AMOC8*
5,1,8,0,0,1.08239X$1,22.5*
%
%ADD10C,0.0004*%
%ADD11C,0.0000*%
%ADD12C,0.0906*%
%ADD13R,0.0540X0.0260*%
%ADD14R,0.0260X0.0540*%
%ADD15R,0.0780X0.0780*%
%ADD16OC8,0.0780*%
%ADD17R,0.0512X0.0512*%
%ADD18R,0.0512X0.0512*%
D10*
X000503Y010346D02*
X000515Y010829D01*
X000550Y011311D01*
X000610Y011790D01*
X000692Y012266D01*
X000798Y012738D01*
X000927Y013203D01*
X001078Y013662D01*
X001252Y014113D01*
X001448Y014554D01*
X001665Y014986D01*
X001903Y015406D01*
X002162Y015814D01*
X002440Y016209D01*
X002737Y016590D01*
X003053Y016956D01*
X003386Y017306D01*
X003736Y017639D01*
X004102Y017955D01*
X004483Y018252D01*
X004878Y018530D01*
X005286Y018789D01*
X005706Y019027D01*
X006138Y019244D01*
X006579Y019440D01*
X007030Y019614D01*
X007489Y019765D01*
X007954Y019894D01*
X008426Y020000D01*
X008902Y020082D01*
X009381Y020142D01*
X009863Y020177D01*
X010346Y020189D01*
X010829Y020177D01*
X011311Y020142D01*
X011790Y020082D01*
X012266Y020000D01*
X012738Y019894D01*
X013203Y019765D01*
X013662Y019614D01*
X014113Y019440D01*
X014554Y019244D01*
X014986Y019027D01*
X015406Y018789D01*
X015814Y018530D01*
X016209Y018252D01*
X016590Y017955D01*
X016956Y017639D01*
X017306Y017306D01*
X017639Y016956D01*
X017955Y016590D01*
X018252Y016209D01*
X018530Y015814D01*
X018789Y015406D01*
X019027Y014986D01*
X019244Y014554D01*
X019440Y014113D01*
X019614Y013662D01*
X019765Y013203D01*
X019894Y012738D01*
X020000Y012266D01*
X020082Y011790D01*
X020142Y011311D01*
X020177Y010829D01*
X020189Y010346D01*
X020177Y009863D01*
X020142Y009381D01*
X020082Y008902D01*
X020000Y008426D01*
X019894Y007954D01*
X019765Y007489D01*
X019614Y007030D01*
X019440Y006579D01*
X019244Y006138D01*
X019027Y005706D01*
X018789Y005286D01*
X018530Y004878D01*
X018252Y004483D01*
X017955Y004102D01*
X017639Y003736D01*
X017306Y003386D01*
X016956Y003053D01*
X016590Y002737D01*
X016209Y002440D01*
X015814Y002162D01*
X015406Y001903D01*
X014986Y001665D01*
X014554Y001448D01*
X014113Y001252D01*
X013662Y001078D01*
X013203Y000927D01*
X012738Y000798D01*
X012266Y000692D01*
X011790Y000610D01*
X011311Y000550D01*
X010829Y000515D01*
X010346Y000503D01*
X009863Y000515D01*
X009381Y000550D01*
X008902Y000610D01*
X008426Y000692D01*
X007954Y000798D01*
X007489Y000927D01*
X007030Y001078D01*
X006579Y001252D01*
X006138Y001448D01*
X005706Y001665D01*
X005286Y001903D01*
X004878Y002162D01*
X004483Y002440D01*
X004102Y002737D01*
X003736Y003053D01*
X003386Y003386D01*
X003053Y003736D01*
X002737Y004102D01*
X002440Y004483D01*
X002162Y004878D01*
X001903Y005286D01*
X001665Y005706D01*
X001448Y006138D01*
X001252Y006579D01*
X001078Y007030D01*
X000927Y007489D01*
X000798Y007954D01*
X000692Y008426D01*
X000610Y008902D01*
X000550Y009381D01*
X000515Y009863D01*
X000503Y010346D01*
D11*
X009913Y012709D02*
X009915Y012750D01*
X009921Y012791D01*
X009931Y012831D01*
X009944Y012870D01*
X009961Y012907D01*
X009982Y012943D01*
X010006Y012977D01*
X010033Y013008D01*
X010062Y013036D01*
X010095Y013062D01*
X010129Y013084D01*
X010166Y013103D01*
X010204Y013118D01*
X010244Y013130D01*
X010284Y013138D01*
X010325Y013142D01*
X010367Y013142D01*
X010408Y013138D01*
X010448Y013130D01*
X010488Y013118D01*
X010526Y013103D01*
X010562Y013084D01*
X010597Y013062D01*
X010630Y013036D01*
X010659Y013008D01*
X010686Y012977D01*
X010710Y012943D01*
X010731Y012907D01*
X010748Y012870D01*
X010761Y012831D01*
X010771Y012791D01*
X010777Y012750D01*
X010779Y012709D01*
X010777Y012668D01*
X010771Y012627D01*
X010761Y012587D01*
X010748Y012548D01*
X010731Y012511D01*
X010710Y012475D01*
X010686Y012441D01*
X010659Y012410D01*
X010630Y012382D01*
X010597Y012356D01*
X010563Y012334D01*
X010526Y012315D01*
X010488Y012300D01*
X010448Y012288D01*
X010408Y012280D01*
X010367Y012276D01*
X010325Y012276D01*
X010284Y012280D01*
X010244Y012288D01*
X010204Y012300D01*
X010166Y012315D01*
X010130Y012334D01*
X010095Y012356D01*
X010062Y012382D01*
X010033Y012410D01*
X010006Y012441D01*
X009982Y012475D01*
X009961Y012511D01*
X009944Y012548D01*
X009931Y012587D01*
X009921Y012627D01*
X009915Y012668D01*
X009913Y012709D01*
D12*
X010346Y012709D03*
D13*
X012015Y009988D03*
X012015Y009673D03*
X012015Y009358D03*
X012015Y009043D03*
X012015Y008728D03*
X012015Y008413D03*
X012015Y008098D03*
X012015Y007783D03*
X008635Y007783D03*
X008635Y008098D03*
X008635Y008413D03*
X008635Y008728D03*
X008635Y009043D03*
X008635Y009358D03*
X008635Y009673D03*
X008635Y009988D03*
D14*
X009223Y010575D03*
X009538Y010575D03*
X009853Y010575D03*
X010167Y010575D03*
X010482Y010575D03*
X010797Y010575D03*
X011112Y010575D03*
X011427Y010575D03*
X011427Y007195D03*
X011112Y007195D03*
X010797Y007195D03*
X010482Y007195D03*
X010167Y007195D03*
X009853Y007195D03*
X009538Y007195D03*
X009223Y007195D03*
D15*
X009824Y007994D03*
D16*
X009824Y008894D03*
X009824Y009794D03*
X010824Y009794D03*
X010824Y008894D03*
X010824Y007994D03*
D17*
X010346Y002689D03*
X010346Y001862D03*
X009933Y001094D03*
X010760Y001094D03*
X019598Y009933D03*
X018831Y010346D03*
X019598Y010760D03*
X018004Y010346D03*
X010346Y018004D03*
X010346Y018831D03*
X009933Y019598D03*
X010760Y019598D03*
X002689Y010346D03*
X001862Y010346D03*
X001094Y009933D03*
X001094Y010760D03*
D18*
G36*
X004060Y005030D02*
X004403Y004651D01*
X004024Y004308D01*
X003681Y004687D01*
X004060Y005030D01*
G37*
G36*
X004674Y005584D02*
X005017Y005205D01*
X004638Y004862D01*
X004295Y005241D01*
X004674Y005584D01*
G37*
G36*
X004207Y006202D02*
X004508Y005789D01*
X004095Y005488D01*
X003794Y005901D01*
X004207Y006202D01*
G37*
G36*
X003808Y006867D02*
X004064Y006425D01*
X003622Y006169D01*
X003366Y006611D01*
X003808Y006867D01*
G37*
G36*
X003480Y007569D02*
X003688Y007103D01*
X003222Y006895D01*
X003014Y007361D01*
X003480Y007569D01*
G37*
G36*
X003228Y008302D02*
X003386Y007816D01*
X002900Y007658D01*
X002742Y008144D01*
X003228Y008302D01*
G37*
G36*
X003053Y009057D02*
X003159Y008557D01*
X002659Y008451D01*
X002553Y008951D01*
X003053Y009057D01*
G37*
G36*
X002958Y009827D02*
X003012Y009319D01*
X002504Y009265D01*
X002450Y009773D01*
X002958Y009827D01*
G37*
G36*
X002136Y009741D02*
X002190Y009233D01*
X001682Y009179D01*
X001628Y009687D01*
X002136Y009741D01*
G37*
G36*
X002245Y008886D02*
X002351Y008386D01*
X001851Y008280D01*
X001745Y008780D01*
X002245Y008886D01*
G37*
G36*
X002441Y008047D02*
X002599Y007561D01*
X002113Y007403D01*
X001955Y007889D01*
X002441Y008047D01*
G37*
G36*
X002725Y007233D02*
X002933Y006767D01*
X002467Y006559D01*
X002259Y007025D01*
X002725Y007233D01*
G37*
G36*
X003092Y006453D02*
X003348Y006011D01*
X002906Y005755D01*
X002650Y006197D01*
X003092Y006453D01*
G37*
G36*
X001778Y006171D02*
X002220Y006427D01*
X002476Y005985D01*
X002034Y005729D01*
X001778Y006171D01*
G37*
G36*
X002192Y005455D02*
X002634Y005711D01*
X002890Y005269D01*
X002448Y005013D01*
X002192Y005455D01*
G37*
G36*
X003538Y005716D02*
X003839Y005303D01*
X003426Y005002D01*
X003125Y005415D01*
X003538Y005716D01*
G37*
G36*
X005205Y005017D02*
X005584Y004674D01*
X005241Y004295D01*
X004862Y004638D01*
X005205Y005017D01*
G37*
G36*
X005789Y004508D02*
X006202Y004207D01*
X005901Y003794D01*
X005488Y004095D01*
X005789Y004508D01*
G37*
G36*
X006425Y004064D02*
X006867Y003808D01*
X006611Y003366D01*
X006169Y003622D01*
X006425Y004064D01*
G37*
G36*
X007103Y003688D02*
X007569Y003480D01*
X007361Y003014D01*
X006895Y003222D01*
X007103Y003688D01*
G37*
G36*
X007816Y003386D02*
X008302Y003228D01*
X008144Y002742D01*
X007658Y002900D01*
X007816Y003386D01*
G37*
G36*
X006767Y002933D02*
X007233Y002725D01*
X007025Y002259D01*
X006559Y002467D01*
X006767Y002933D01*
G37*
G36*
X006011Y003348D02*
X006453Y003092D01*
X006197Y002650D01*
X005755Y002906D01*
X006011Y003348D01*
G37*
G36*
X005303Y003839D02*
X005716Y003538D01*
X005415Y003125D01*
X005002Y003426D01*
X005303Y003839D01*
G37*
G36*
X004651Y004403D02*
X005030Y004060D01*
X004687Y003681D01*
X004308Y004024D01*
X004651Y004403D01*
G37*
G36*
X005013Y002448D02*
X005269Y002890D01*
X005711Y002634D01*
X005455Y002192D01*
X005013Y002448D01*
G37*
G36*
X005729Y002034D02*
X005985Y002476D01*
X006427Y002220D01*
X006171Y001778D01*
X005729Y002034D01*
G37*
G36*
X007561Y002599D02*
X008047Y002441D01*
X007889Y001955D01*
X007403Y002113D01*
X007561Y002599D01*
G37*
G36*
X008386Y002351D02*
X008886Y002245D01*
X008780Y001745D01*
X008280Y001851D01*
X008386Y002351D01*
G37*
G36*
X008557Y003159D02*
X009057Y003053D01*
X008951Y002553D01*
X008451Y002659D01*
X008557Y003159D01*
G37*
G36*
X009319Y003012D02*
X009827Y002958D01*
X009773Y002450D01*
X009265Y002504D01*
X009319Y003012D01*
G37*
G36*
X009233Y002190D02*
X009741Y002136D01*
X009687Y001628D01*
X009179Y001682D01*
X009233Y002190D01*
G37*
G36*
X010866Y002958D02*
X011374Y003012D01*
X011428Y002504D01*
X010920Y002450D01*
X010866Y002958D01*
G37*
G36*
X011635Y003053D02*
X012135Y003159D01*
X012241Y002659D01*
X011741Y002553D01*
X011635Y003053D01*
G37*
G36*
X012391Y003228D02*
X012877Y003386D01*
X013035Y002900D01*
X012549Y002742D01*
X012391Y003228D01*
G37*
G36*
X012646Y002441D02*
X013132Y002599D01*
X013290Y002113D01*
X012804Y001955D01*
X012646Y002441D01*
G37*
G36*
X011807Y002245D02*
X012307Y002351D01*
X012413Y001851D01*
X011913Y001745D01*
X011807Y002245D01*
G37*
G36*
X010952Y002136D02*
X011460Y002190D01*
X011514Y001682D01*
X011006Y001628D01*
X010952Y002136D01*
G37*
G36*
X013124Y003480D02*
X013590Y003688D01*
X013798Y003222D01*
X013332Y003014D01*
X013124Y003480D01*
G37*
G36*
X013460Y002725D02*
X013926Y002933D01*
X014134Y002467D01*
X013668Y002259D01*
X013460Y002725D01*
G37*
G36*
X013826Y003808D02*
X014268Y004064D01*
X014524Y003622D01*
X014082Y003366D01*
X013826Y003808D01*
G37*
G36*
X014240Y003092D02*
X014682Y003348D01*
X014938Y002906D01*
X014496Y002650D01*
X014240Y003092D01*
G37*
G36*
X014521Y001778D02*
X014265Y002220D01*
X014707Y002476D01*
X014963Y002034D01*
X014521Y001778D01*
G37*
G36*
X015237Y002192D02*
X014981Y002634D01*
X015423Y002890D01*
X015679Y002448D01*
X015237Y002192D01*
G37*
G36*
X014977Y003538D02*
X015390Y003839D01*
X015691Y003426D01*
X015278Y003125D01*
X014977Y003538D01*
G37*
G36*
X014491Y004207D02*
X014904Y004508D01*
X015205Y004095D01*
X014792Y003794D01*
X014491Y004207D01*
G37*
G36*
X015109Y004674D02*
X015488Y005017D01*
X015831Y004638D01*
X015452Y004295D01*
X015109Y004674D01*
G37*
G36*
X015676Y005205D02*
X016019Y005584D01*
X016398Y005241D01*
X016055Y004862D01*
X015676Y005205D01*
G37*
G36*
X016185Y005789D02*
X016486Y006202D01*
X016899Y005901D01*
X016598Y005488D01*
X016185Y005789D01*
G37*
G36*
X016629Y006425D02*
X016885Y006867D01*
X017327Y006611D01*
X017071Y006169D01*
X016629Y006425D01*
G37*
G36*
X017005Y007103D02*
X017213Y007569D01*
X017679Y007361D01*
X017471Y006895D01*
X017005Y007103D01*
G37*
G36*
X017307Y007816D02*
X017465Y008302D01*
X017951Y008144D01*
X017793Y007658D01*
X017307Y007816D01*
G37*
G36*
X017760Y006767D02*
X017968Y007233D01*
X018434Y007025D01*
X018226Y006559D01*
X017760Y006767D01*
G37*
G36*
X017345Y006011D02*
X017601Y006453D01*
X018043Y006197D01*
X017787Y005755D01*
X017345Y006011D01*
G37*
G36*
X016853Y005303D02*
X017154Y005716D01*
X017567Y005415D01*
X017266Y005002D01*
X016853Y005303D01*
G37*
G36*
X016290Y004651D02*
X016633Y005030D01*
X017012Y004687D01*
X016669Y004308D01*
X016290Y004651D01*
G37*
G36*
X015662Y004060D02*
X016041Y004403D01*
X016384Y004024D01*
X016005Y003681D01*
X015662Y004060D01*
G37*
G36*
X018245Y005013D02*
X017803Y005269D01*
X018059Y005711D01*
X018501Y005455D01*
X018245Y005013D01*
G37*
G36*
X018659Y005729D02*
X018217Y005985D01*
X018473Y006427D01*
X018915Y006171D01*
X018659Y005729D01*
G37*
G36*
X018094Y007561D02*
X018252Y008047D01*
X018738Y007889D01*
X018580Y007403D01*
X018094Y007561D01*
G37*
G36*
X018342Y008386D02*
X018448Y008886D01*
X018948Y008780D01*
X018842Y008280D01*
X018342Y008386D01*
G37*
G36*
X017534Y008557D02*
X017640Y009057D01*
X018140Y008951D01*
X018034Y008451D01*
X017534Y008557D01*
G37*
G36*
X017681Y009319D02*
X017735Y009827D01*
X018243Y009773D01*
X018189Y009265D01*
X017681Y009319D01*
G37*
G36*
X018503Y009233D02*
X018557Y009741D01*
X019065Y009687D01*
X019011Y009179D01*
X018503Y009233D01*
G37*
G36*
X017735Y010866D02*
X017681Y011374D01*
X018189Y011428D01*
X018243Y010920D01*
X017735Y010866D01*
G37*
G36*
X017640Y011635D02*
X017534Y012135D01*
X018034Y012241D01*
X018140Y011741D01*
X017640Y011635D01*
G37*
G36*
X017465Y012391D02*
X017307Y012877D01*
X017793Y013035D01*
X017951Y012549D01*
X017465Y012391D01*
G37*
G36*
X018252Y012646D02*
X018094Y013132D01*
X018580Y013290D01*
X018738Y012804D01*
X018252Y012646D01*
G37*
G36*
X018448Y011807D02*
X018342Y012307D01*
X018842Y012413D01*
X018948Y011913D01*
X018448Y011807D01*
G37*
G36*
X018557Y010952D02*
X018503Y011460D01*
X019011Y011514D01*
X019065Y011006D01*
X018557Y010952D01*
G37*
G36*
X017213Y013124D02*
X017005Y013590D01*
X017471Y013798D01*
X017679Y013332D01*
X017213Y013124D01*
G37*
G36*
X017968Y013460D02*
X017760Y013926D01*
X018226Y014134D01*
X018434Y013668D01*
X017968Y013460D01*
G37*
G36*
X016885Y013826D02*
X016629Y014268D01*
X017071Y014524D01*
X017327Y014082D01*
X016885Y013826D01*
G37*
G36*
X017601Y014240D02*
X017345Y014682D01*
X017787Y014938D01*
X018043Y014496D01*
X017601Y014240D01*
G37*
G36*
X018915Y014521D02*
X018473Y014265D01*
X018217Y014707D01*
X018659Y014963D01*
X018915Y014521D01*
G37*
G36*
X018501Y015237D02*
X018059Y014981D01*
X017803Y015423D01*
X018245Y015679D01*
X018501Y015237D01*
G37*
G36*
X017154Y014977D02*
X016853Y015390D01*
X017266Y015691D01*
X017567Y015278D01*
X017154Y014977D01*
G37*
G36*
X016486Y014491D02*
X016185Y014904D01*
X016598Y015205D01*
X016899Y014792D01*
X016486Y014491D01*
G37*
G36*
X016019Y015109D02*
X015676Y015488D01*
X016055Y015831D01*
X016398Y015452D01*
X016019Y015109D01*
G37*
G36*
X015488Y015676D02*
X015109Y016019D01*
X015452Y016398D01*
X015831Y016055D01*
X015488Y015676D01*
G37*
G36*
X014904Y016185D02*
X014491Y016486D01*
X014792Y016899D01*
X015205Y016598D01*
X014904Y016185D01*
G37*
G36*
X014268Y016629D02*
X013826Y016885D01*
X014082Y017327D01*
X014524Y017071D01*
X014268Y016629D01*
G37*
G36*
X013590Y017005D02*
X013124Y017213D01*
X013332Y017679D01*
X013798Y017471D01*
X013590Y017005D01*
G37*
G36*
X012877Y017307D02*
X012391Y017465D01*
X012549Y017951D01*
X013035Y017793D01*
X012877Y017307D01*
G37*
G36*
X013926Y017760D02*
X013460Y017968D01*
X013668Y018434D01*
X014134Y018226D01*
X013926Y017760D01*
G37*
G36*
X014682Y017345D02*
X014240Y017601D01*
X014496Y018043D01*
X014938Y017787D01*
X014682Y017345D01*
G37*
G36*
X015390Y016853D02*
X014977Y017154D01*
X015278Y017567D01*
X015691Y017266D01*
X015390Y016853D01*
G37*
G36*
X016041Y016290D02*
X015662Y016633D01*
X016005Y017012D01*
X016384Y016669D01*
X016041Y016290D01*
G37*
G36*
X016633Y015662D02*
X016290Y016041D01*
X016669Y016384D01*
X017012Y016005D01*
X016633Y015662D01*
G37*
G36*
X015679Y018245D02*
X015423Y017803D01*
X014981Y018059D01*
X015237Y018501D01*
X015679Y018245D01*
G37*
G36*
X014963Y018659D02*
X014707Y018217D01*
X014265Y018473D01*
X014521Y018915D01*
X014963Y018659D01*
G37*
G36*
X013132Y018094D02*
X012646Y018252D01*
X012804Y018738D01*
X013290Y018580D01*
X013132Y018094D01*
G37*
G36*
X012307Y018342D02*
X011807Y018448D01*
X011913Y018948D01*
X012413Y018842D01*
X012307Y018342D01*
G37*
G36*
X012135Y017534D02*
X011635Y017640D01*
X011741Y018140D01*
X012241Y018034D01*
X012135Y017534D01*
G37*
G36*
X011374Y017681D02*
X010866Y017735D01*
X010920Y018243D01*
X011428Y018189D01*
X011374Y017681D01*
G37*
G36*
X011460Y018503D02*
X010952Y018557D01*
X011006Y019065D01*
X011514Y019011D01*
X011460Y018503D01*
G37*
G36*
X009827Y017735D02*
X009319Y017681D01*
X009265Y018189D01*
X009773Y018243D01*
X009827Y017735D01*
G37*
G36*
X009057Y017640D02*
X008557Y017534D01*
X008451Y018034D01*
X008951Y018140D01*
X009057Y017640D01*
G37*
G36*
X008302Y017465D02*
X007816Y017307D01*
X007658Y017793D01*
X008144Y017951D01*
X008302Y017465D01*
G37*
G36*
X008047Y018252D02*
X007561Y018094D01*
X007403Y018580D01*
X007889Y018738D01*
X008047Y018252D01*
G37*
G36*
X008886Y018448D02*
X008386Y018342D01*
X008280Y018842D01*
X008780Y018948D01*
X008886Y018448D01*
G37*
G36*
X009741Y018557D02*
X009233Y018503D01*
X009179Y019011D01*
X009687Y019065D01*
X009741Y018557D01*
G37*
G36*
X007569Y017213D02*
X007103Y017005D01*
X006895Y017471D01*
X007361Y017679D01*
X007569Y017213D01*
G37*
G36*
X007233Y017968D02*
X006767Y017760D01*
X006559Y018226D01*
X007025Y018434D01*
X007233Y017968D01*
G37*
G36*
X006867Y016885D02*
X006425Y016629D01*
X006169Y017071D01*
X006611Y017327D01*
X006867Y016885D01*
G37*
G36*
X006453Y017601D02*
X006011Y017345D01*
X005755Y017787D01*
X006197Y018043D01*
X006453Y017601D01*
G37*
G36*
X006171Y018915D02*
X006427Y018473D01*
X005985Y018217D01*
X005729Y018659D01*
X006171Y018915D01*
G37*
G36*
X005455Y018501D02*
X005711Y018059D01*
X005269Y017803D01*
X005013Y018245D01*
X005455Y018501D01*
G37*
G36*
X005716Y017154D02*
X005303Y016853D01*
X005002Y017266D01*
X005415Y017567D01*
X005716Y017154D01*
G37*
G36*
X006202Y016486D02*
X005789Y016185D01*
X005488Y016598D01*
X005901Y016899D01*
X006202Y016486D01*
G37*
G36*
X005584Y016019D02*
X005205Y015676D01*
X004862Y016055D01*
X005241Y016398D01*
X005584Y016019D01*
G37*
G36*
X005017Y015488D02*
X004674Y015109D01*
X004295Y015452D01*
X004638Y015831D01*
X005017Y015488D01*
G37*
G36*
X004508Y014904D02*
X004207Y014491D01*
X003794Y014792D01*
X004095Y015205D01*
X004508Y014904D01*
G37*
G36*
X004064Y014268D02*
X003808Y013826D01*
X003366Y014082D01*
X003622Y014524D01*
X004064Y014268D01*
G37*
G36*
X003688Y013590D02*
X003480Y013124D01*
X003014Y013332D01*
X003222Y013798D01*
X003688Y013590D01*
G37*
G36*
X003386Y012877D02*
X003228Y012391D01*
X002742Y012549D01*
X002900Y013035D01*
X003386Y012877D01*
G37*
G36*
X002933Y013926D02*
X002725Y013460D01*
X002259Y013668D01*
X002467Y014134D01*
X002933Y013926D01*
G37*
G36*
X003348Y014682D02*
X003092Y014240D01*
X002650Y014496D01*
X002906Y014938D01*
X003348Y014682D01*
G37*
G36*
X003839Y015390D02*
X003538Y014977D01*
X003125Y015278D01*
X003426Y015691D01*
X003839Y015390D01*
G37*
G36*
X004403Y016041D02*
X004060Y015662D01*
X003681Y016005D01*
X004024Y016384D01*
X004403Y016041D01*
G37*
G36*
X005030Y016633D02*
X004651Y016290D01*
X004308Y016669D01*
X004687Y017012D01*
X005030Y016633D01*
G37*
G36*
X002448Y015679D02*
X002890Y015423D01*
X002634Y014981D01*
X002192Y015237D01*
X002448Y015679D01*
G37*
G36*
X002034Y014963D02*
X002476Y014707D01*
X002220Y014265D01*
X001778Y014521D01*
X002034Y014963D01*
G37*
G36*
X002599Y013132D02*
X002441Y012646D01*
X001955Y012804D01*
X002113Y013290D01*
X002599Y013132D01*
G37*
G36*
X002351Y012307D02*
X002245Y011807D01*
X001745Y011913D01*
X001851Y012413D01*
X002351Y012307D01*
G37*
G36*
X003159Y012135D02*
X003053Y011635D01*
X002553Y011741D01*
X002659Y012241D01*
X003159Y012135D01*
G37*
G36*
X003012Y011374D02*
X002958Y010866D01*
X002450Y010920D01*
X002504Y011428D01*
X003012Y011374D01*
G37*
G36*
X002190Y011460D02*
X002136Y010952D01*
X001628Y011006D01*
X001682Y011514D01*
X002190Y011460D01*
G37*
M02*
