G75*
G70*
%OFA0B0*%
%FSLAX24Y24*%
%IPPOS*%
%LPD*%
%AMOC8*
5,1,8,0,0,1.08239X$1,22.5*
%
%ADD10C,0.0004*%
%ADD11C,0.0000*%
D10*
X000503Y010346D02*
X000515Y010829D01*
X000550Y011311D01*
X000610Y011790D01*
X000692Y012266D01*
X000798Y012738D01*
X000927Y013203D01*
X001078Y013662D01*
X001252Y014113D01*
X001448Y014554D01*
X001665Y014986D01*
X001903Y015406D01*
X002162Y015814D01*
X002440Y016209D01*
X002737Y016590D01*
X003053Y016956D01*
X003386Y017306D01*
X003736Y017639D01*
X004102Y017955D01*
X004483Y018252D01*
X004878Y018530D01*
X005286Y018789D01*
X005706Y019027D01*
X006138Y019244D01*
X006579Y019440D01*
X007030Y019614D01*
X007489Y019765D01*
X007954Y019894D01*
X008426Y020000D01*
X008902Y020082D01*
X009381Y020142D01*
X009863Y020177D01*
X010346Y020189D01*
X010829Y020177D01*
X011311Y020142D01*
X011790Y020082D01*
X012266Y020000D01*
X012738Y019894D01*
X013203Y019765D01*
X013662Y019614D01*
X014113Y019440D01*
X014554Y019244D01*
X014986Y019027D01*
X015406Y018789D01*
X015814Y018530D01*
X016209Y018252D01*
X016590Y017955D01*
X016956Y017639D01*
X017306Y017306D01*
X017639Y016956D01*
X017955Y016590D01*
X018252Y016209D01*
X018530Y015814D01*
X018789Y015406D01*
X019027Y014986D01*
X019244Y014554D01*
X019440Y014113D01*
X019614Y013662D01*
X019765Y013203D01*
X019894Y012738D01*
X020000Y012266D01*
X020082Y011790D01*
X020142Y011311D01*
X020177Y010829D01*
X020189Y010346D01*
X020177Y009863D01*
X020142Y009381D01*
X020082Y008902D01*
X020000Y008426D01*
X019894Y007954D01*
X019765Y007489D01*
X019614Y007030D01*
X019440Y006579D01*
X019244Y006138D01*
X019027Y005706D01*
X018789Y005286D01*
X018530Y004878D01*
X018252Y004483D01*
X017955Y004102D01*
X017639Y003736D01*
X017306Y003386D01*
X016956Y003053D01*
X016590Y002737D01*
X016209Y002440D01*
X015814Y002162D01*
X015406Y001903D01*
X014986Y001665D01*
X014554Y001448D01*
X014113Y001252D01*
X013662Y001078D01*
X013203Y000927D01*
X012738Y000798D01*
X012266Y000692D01*
X011790Y000610D01*
X011311Y000550D01*
X010829Y000515D01*
X010346Y000503D01*
X009863Y000515D01*
X009381Y000550D01*
X008902Y000610D01*
X008426Y000692D01*
X007954Y000798D01*
X007489Y000927D01*
X007030Y001078D01*
X006579Y001252D01*
X006138Y001448D01*
X005706Y001665D01*
X005286Y001903D01*
X004878Y002162D01*
X004483Y002440D01*
X004102Y002737D01*
X003736Y003053D01*
X003386Y003386D01*
X003053Y003736D01*
X002737Y004102D01*
X002440Y004483D01*
X002162Y004878D01*
X001903Y005286D01*
X001665Y005706D01*
X001448Y006138D01*
X001252Y006579D01*
X001078Y007030D01*
X000927Y007489D01*
X000798Y007954D01*
X000692Y008426D01*
X000610Y008902D01*
X000550Y009381D01*
X000515Y009863D01*
X000503Y010346D01*
D11*
X009913Y012709D02*
X009915Y012750D01*
X009921Y012791D01*
X009931Y012831D01*
X009944Y012870D01*
X009961Y012907D01*
X009982Y012943D01*
X010006Y012977D01*
X010033Y013008D01*
X010062Y013036D01*
X010095Y013062D01*
X010129Y013084D01*
X010166Y013103D01*
X010204Y013118D01*
X010244Y013130D01*
X010284Y013138D01*
X010325Y013142D01*
X010367Y013142D01*
X010408Y013138D01*
X010448Y013130D01*
X010488Y013118D01*
X010526Y013103D01*
X010562Y013084D01*
X010597Y013062D01*
X010630Y013036D01*
X010659Y013008D01*
X010686Y012977D01*
X010710Y012943D01*
X010731Y012907D01*
X010748Y012870D01*
X010761Y012831D01*
X010771Y012791D01*
X010777Y012750D01*
X010779Y012709D01*
X010777Y012668D01*
X010771Y012627D01*
X010761Y012587D01*
X010748Y012548D01*
X010731Y012511D01*
X010710Y012475D01*
X010686Y012441D01*
X010659Y012410D01*
X010630Y012382D01*
X010597Y012356D01*
X010563Y012334D01*
X010526Y012315D01*
X010488Y012300D01*
X010448Y012288D01*
X010408Y012280D01*
X010367Y012276D01*
X010325Y012276D01*
X010284Y012280D01*
X010244Y012288D01*
X010204Y012300D01*
X010166Y012315D01*
X010130Y012334D01*
X010095Y012356D01*
X010062Y012382D01*
X010033Y012410D01*
X010006Y012441D01*
X009982Y012475D01*
X009961Y012511D01*
X009944Y012548D01*
X009931Y012587D01*
X009921Y012627D01*
X009915Y012668D01*
X009913Y012709D01*
M02*
