G75*
G70*
%OFA0B0*%
%FSLAX24Y24*%
%IPPOS*%
%LPD*%
%AMOC8*
5,1,8,0,0,1.08239X$1,22.5*
%
%ADD10C,0.0004*%
%ADD11C,0.0000*%
%ADD12C,0.0906*%
%ADD13R,0.0631X0.0552*%
%ADD14R,0.0552X0.0631*%
%ADD15R,0.1024X0.2402*%
%ADD16R,0.0434X0.1024*%
%ADD17C,0.0031*%
%ADD18C,0.0035*%
%ADD19R,0.0276X0.0906*%
%ADD20R,0.1600X0.1600*%
%ADD21R,0.1290X0.1290*%
%ADD22R,0.0434X0.1851*%
%ADD23R,0.0670X0.1379*%
%ADD24R,0.0512X0.1300*%
%ADD25R,0.0512X0.0512*%
%ADD26R,0.0780X0.0780*%
%ADD27OC8,0.0780*%
D10*
X000503Y010346D02*
X000515Y010829D01*
X000550Y011311D01*
X000610Y011790D01*
X000692Y012266D01*
X000798Y012738D01*
X000927Y013203D01*
X001078Y013662D01*
X001252Y014113D01*
X001448Y014554D01*
X001665Y014986D01*
X001903Y015406D01*
X002162Y015814D01*
X002440Y016209D01*
X002737Y016590D01*
X003053Y016956D01*
X003386Y017306D01*
X003736Y017639D01*
X004102Y017955D01*
X004483Y018252D01*
X004878Y018530D01*
X005286Y018789D01*
X005706Y019027D01*
X006138Y019244D01*
X006579Y019440D01*
X007030Y019614D01*
X007489Y019765D01*
X007954Y019894D01*
X008426Y020000D01*
X008902Y020082D01*
X009381Y020142D01*
X009863Y020177D01*
X010346Y020189D01*
X010829Y020177D01*
X011311Y020142D01*
X011790Y020082D01*
X012266Y020000D01*
X012738Y019894D01*
X013203Y019765D01*
X013662Y019614D01*
X014113Y019440D01*
X014554Y019244D01*
X014986Y019027D01*
X015406Y018789D01*
X015814Y018530D01*
X016209Y018252D01*
X016590Y017955D01*
X016956Y017639D01*
X017306Y017306D01*
X017639Y016956D01*
X017955Y016590D01*
X018252Y016209D01*
X018530Y015814D01*
X018789Y015406D01*
X019027Y014986D01*
X019244Y014554D01*
X019440Y014113D01*
X019614Y013662D01*
X019765Y013203D01*
X019894Y012738D01*
X020000Y012266D01*
X020082Y011790D01*
X020142Y011311D01*
X020177Y010829D01*
X020189Y010346D01*
X020177Y009863D01*
X020142Y009381D01*
X020082Y008902D01*
X020000Y008426D01*
X019894Y007954D01*
X019765Y007489D01*
X019614Y007030D01*
X019440Y006579D01*
X019244Y006138D01*
X019027Y005706D01*
X018789Y005286D01*
X018530Y004878D01*
X018252Y004483D01*
X017955Y004102D01*
X017639Y003736D01*
X017306Y003386D01*
X016956Y003053D01*
X016590Y002737D01*
X016209Y002440D01*
X015814Y002162D01*
X015406Y001903D01*
X014986Y001665D01*
X014554Y001448D01*
X014113Y001252D01*
X013662Y001078D01*
X013203Y000927D01*
X012738Y000798D01*
X012266Y000692D01*
X011790Y000610D01*
X011311Y000550D01*
X010829Y000515D01*
X010346Y000503D01*
X009863Y000515D01*
X009381Y000550D01*
X008902Y000610D01*
X008426Y000692D01*
X007954Y000798D01*
X007489Y000927D01*
X007030Y001078D01*
X006579Y001252D01*
X006138Y001448D01*
X005706Y001665D01*
X005286Y001903D01*
X004878Y002162D01*
X004483Y002440D01*
X004102Y002737D01*
X003736Y003053D01*
X003386Y003386D01*
X003053Y003736D01*
X002737Y004102D01*
X002440Y004483D01*
X002162Y004878D01*
X001903Y005286D01*
X001665Y005706D01*
X001448Y006138D01*
X001252Y006579D01*
X001078Y007030D01*
X000927Y007489D01*
X000798Y007954D01*
X000692Y008426D01*
X000610Y008902D01*
X000550Y009381D01*
X000515Y009863D01*
X000503Y010346D01*
D11*
X009913Y012709D02*
X009915Y012750D01*
X009921Y012791D01*
X009931Y012831D01*
X009944Y012870D01*
X009961Y012907D01*
X009982Y012943D01*
X010006Y012977D01*
X010033Y013008D01*
X010062Y013036D01*
X010095Y013062D01*
X010129Y013084D01*
X010166Y013103D01*
X010204Y013118D01*
X010244Y013130D01*
X010284Y013138D01*
X010325Y013142D01*
X010367Y013142D01*
X010408Y013138D01*
X010448Y013130D01*
X010488Y013118D01*
X010526Y013103D01*
X010562Y013084D01*
X010597Y013062D01*
X010630Y013036D01*
X010659Y013008D01*
X010686Y012977D01*
X010710Y012943D01*
X010731Y012907D01*
X010748Y012870D01*
X010761Y012831D01*
X010771Y012791D01*
X010777Y012750D01*
X010779Y012709D01*
X010777Y012668D01*
X010771Y012627D01*
X010761Y012587D01*
X010748Y012548D01*
X010731Y012511D01*
X010710Y012475D01*
X010686Y012441D01*
X010659Y012410D01*
X010630Y012382D01*
X010597Y012356D01*
X010563Y012334D01*
X010526Y012315D01*
X010488Y012300D01*
X010448Y012288D01*
X010408Y012280D01*
X010367Y012276D01*
X010325Y012276D01*
X010284Y012280D01*
X010244Y012288D01*
X010204Y012300D01*
X010166Y012315D01*
X010130Y012334D01*
X010095Y012356D01*
X010062Y012382D01*
X010033Y012410D01*
X010006Y012441D01*
X009982Y012475D01*
X009961Y012511D01*
X009944Y012548D01*
X009931Y012587D01*
X009921Y012627D01*
X009915Y012668D01*
X009913Y012709D01*
D12*
X010346Y012709D03*
D13*
X008004Y013130D03*
X008004Y013878D03*
X007004Y013878D03*
X007004Y013130D03*
X006004Y013130D03*
X006004Y013878D03*
X005004Y013878D03*
X005004Y013130D03*
X007994Y009388D03*
X007994Y008640D03*
X016004Y011630D03*
X016004Y012378D03*
X017004Y012378D03*
X017004Y011630D03*
D14*
X015798Y010254D03*
X015050Y010254D03*
X013958Y010254D03*
X013210Y010254D03*
X008378Y007004D03*
X007630Y007004D03*
X005878Y007504D03*
X005130Y007504D03*
X005130Y008504D03*
X005878Y008504D03*
X005878Y009504D03*
X005130Y009504D03*
X005130Y010504D03*
X005878Y010504D03*
X005878Y011504D03*
X005130Y011504D03*
X007130Y011504D03*
X007878Y011504D03*
D15*
X014504Y006478D03*
D16*
X015004Y008841D03*
X014004Y008841D03*
D17*
X006804Y003613D02*
X006204Y003613D01*
X006204Y005395D01*
X006804Y005395D01*
X006804Y003613D01*
X006804Y003643D02*
X006204Y003643D01*
X006204Y003673D02*
X006804Y003673D01*
X006804Y003703D02*
X006204Y003703D01*
X006204Y003733D02*
X006804Y003733D01*
X006804Y003763D02*
X006204Y003763D01*
X006204Y003793D02*
X006804Y003793D01*
X006804Y003823D02*
X006204Y003823D01*
X006204Y003853D02*
X006804Y003853D01*
X006804Y003883D02*
X006204Y003883D01*
X006204Y003913D02*
X006804Y003913D01*
X006804Y003943D02*
X006204Y003943D01*
X006204Y003973D02*
X006804Y003973D01*
X006804Y004003D02*
X006204Y004003D01*
X006204Y004033D02*
X006804Y004033D01*
X006804Y004063D02*
X006204Y004063D01*
X006204Y004093D02*
X006804Y004093D01*
X006804Y004123D02*
X006204Y004123D01*
X006204Y004153D02*
X006804Y004153D01*
X006804Y004183D02*
X006204Y004183D01*
X006204Y004213D02*
X006804Y004213D01*
X006804Y004243D02*
X006204Y004243D01*
X006204Y004273D02*
X006804Y004273D01*
X006804Y004303D02*
X006204Y004303D01*
X006204Y004333D02*
X006804Y004333D01*
X006804Y004363D02*
X006204Y004363D01*
X006204Y004393D02*
X006804Y004393D01*
X006804Y004423D02*
X006204Y004423D01*
X006204Y004453D02*
X006804Y004453D01*
X006804Y004483D02*
X006204Y004483D01*
X006204Y004513D02*
X006804Y004513D01*
X006804Y004543D02*
X006204Y004543D01*
X006204Y004573D02*
X006804Y004573D01*
X006804Y004603D02*
X006204Y004603D01*
X006204Y004633D02*
X006804Y004633D01*
X006804Y004663D02*
X006204Y004663D01*
X006204Y004693D02*
X006804Y004693D01*
X006804Y004723D02*
X006204Y004723D01*
X006204Y004753D02*
X006804Y004753D01*
X006804Y004783D02*
X006204Y004783D01*
X006204Y004813D02*
X006804Y004813D01*
X006804Y004843D02*
X006204Y004843D01*
X006204Y004873D02*
X006804Y004873D01*
X006804Y004903D02*
X006204Y004903D01*
X006204Y004933D02*
X006804Y004933D01*
X006804Y004963D02*
X006204Y004963D01*
X006204Y004993D02*
X006804Y004993D01*
X006804Y005023D02*
X006204Y005023D01*
X006204Y005053D02*
X006804Y005053D01*
X006804Y005083D02*
X006204Y005083D01*
X006204Y005113D02*
X006804Y005113D01*
X006804Y005143D02*
X006204Y005143D01*
X006204Y005173D02*
X006804Y005173D01*
X006804Y005203D02*
X006204Y005203D01*
X006204Y005233D02*
X006804Y005233D01*
X006804Y005263D02*
X006204Y005263D01*
X006204Y005293D02*
X006804Y005293D01*
X006804Y005323D02*
X006204Y005323D01*
X006204Y005353D02*
X006804Y005353D01*
X006804Y005383D02*
X006204Y005383D01*
D18*
X005857Y003615D02*
X005183Y003615D01*
X005183Y005393D01*
X005857Y005393D01*
X005857Y003615D01*
X005857Y003649D02*
X005183Y003649D01*
X005183Y003683D02*
X005857Y003683D01*
X005857Y003717D02*
X005183Y003717D01*
X005183Y003751D02*
X005857Y003751D01*
X005857Y003785D02*
X005183Y003785D01*
X005183Y003819D02*
X005857Y003819D01*
X005857Y003853D02*
X005183Y003853D01*
X005183Y003887D02*
X005857Y003887D01*
X005857Y003921D02*
X005183Y003921D01*
X005183Y003955D02*
X005857Y003955D01*
X005857Y003989D02*
X005183Y003989D01*
X005183Y004023D02*
X005857Y004023D01*
X005857Y004057D02*
X005183Y004057D01*
X005183Y004091D02*
X005857Y004091D01*
X005857Y004125D02*
X005183Y004125D01*
X005183Y004159D02*
X005857Y004159D01*
X005857Y004193D02*
X005183Y004193D01*
X005183Y004227D02*
X005857Y004227D01*
X005857Y004261D02*
X005183Y004261D01*
X005183Y004295D02*
X005857Y004295D01*
X005857Y004329D02*
X005183Y004329D01*
X005183Y004363D02*
X005857Y004363D01*
X005857Y004397D02*
X005183Y004397D01*
X005183Y004431D02*
X005857Y004431D01*
X005857Y004465D02*
X005183Y004465D01*
X005183Y004499D02*
X005857Y004499D01*
X005857Y004533D02*
X005183Y004533D01*
X005183Y004567D02*
X005857Y004567D01*
X005857Y004601D02*
X005183Y004601D01*
X005183Y004635D02*
X005857Y004635D01*
X005857Y004669D02*
X005183Y004669D01*
X005183Y004703D02*
X005857Y004703D01*
X005857Y004737D02*
X005183Y004737D01*
X005183Y004771D02*
X005857Y004771D01*
X005857Y004805D02*
X005183Y004805D01*
X005183Y004839D02*
X005857Y004839D01*
X005857Y004873D02*
X005183Y004873D01*
X005183Y004907D02*
X005857Y004907D01*
X005857Y004941D02*
X005183Y004941D01*
X005183Y004975D02*
X005857Y004975D01*
X005857Y005009D02*
X005183Y005009D01*
X005183Y005043D02*
X005857Y005043D01*
X005857Y005077D02*
X005183Y005077D01*
X005183Y005111D02*
X005857Y005111D01*
X005857Y005145D02*
X005183Y005145D01*
X005183Y005179D02*
X005857Y005179D01*
X005857Y005213D02*
X005183Y005213D01*
X005183Y005247D02*
X005857Y005247D01*
X005857Y005281D02*
X005183Y005281D01*
X005183Y005315D02*
X005857Y005315D01*
X005857Y005349D02*
X005183Y005349D01*
X005183Y005383D02*
X005857Y005383D01*
X007151Y003615D02*
X007825Y003615D01*
X007151Y003615D02*
X007151Y005393D01*
X007825Y005393D01*
X007825Y003615D01*
X007825Y003649D02*
X007151Y003649D01*
X007151Y003683D02*
X007825Y003683D01*
X007825Y003717D02*
X007151Y003717D01*
X007151Y003751D02*
X007825Y003751D01*
X007825Y003785D02*
X007151Y003785D01*
X007151Y003819D02*
X007825Y003819D01*
X007825Y003853D02*
X007151Y003853D01*
X007151Y003887D02*
X007825Y003887D01*
X007825Y003921D02*
X007151Y003921D01*
X007151Y003955D02*
X007825Y003955D01*
X007825Y003989D02*
X007151Y003989D01*
X007151Y004023D02*
X007825Y004023D01*
X007825Y004057D02*
X007151Y004057D01*
X007151Y004091D02*
X007825Y004091D01*
X007825Y004125D02*
X007151Y004125D01*
X007151Y004159D02*
X007825Y004159D01*
X007825Y004193D02*
X007151Y004193D01*
X007151Y004227D02*
X007825Y004227D01*
X007825Y004261D02*
X007151Y004261D01*
X007151Y004295D02*
X007825Y004295D01*
X007825Y004329D02*
X007151Y004329D01*
X007151Y004363D02*
X007825Y004363D01*
X007825Y004397D02*
X007151Y004397D01*
X007151Y004431D02*
X007825Y004431D01*
X007825Y004465D02*
X007151Y004465D01*
X007151Y004499D02*
X007825Y004499D01*
X007825Y004533D02*
X007151Y004533D01*
X007151Y004567D02*
X007825Y004567D01*
X007825Y004601D02*
X007151Y004601D01*
X007151Y004635D02*
X007825Y004635D01*
X007825Y004669D02*
X007151Y004669D01*
X007151Y004703D02*
X007825Y004703D01*
X007825Y004737D02*
X007151Y004737D01*
X007151Y004771D02*
X007825Y004771D01*
X007825Y004805D02*
X007151Y004805D01*
X007151Y004839D02*
X007825Y004839D01*
X007825Y004873D02*
X007151Y004873D01*
X007151Y004907D02*
X007825Y004907D01*
X007825Y004941D02*
X007151Y004941D01*
X007151Y004975D02*
X007825Y004975D01*
X007825Y005009D02*
X007151Y005009D01*
X007151Y005043D02*
X007825Y005043D01*
X007825Y005077D02*
X007151Y005077D01*
X007151Y005111D02*
X007825Y005111D01*
X007825Y005145D02*
X007151Y005145D01*
X007151Y005179D02*
X007825Y005179D01*
X007825Y005213D02*
X007151Y005213D01*
X007151Y005247D02*
X007825Y005247D01*
X007825Y005281D02*
X007151Y005281D01*
X007151Y005315D02*
X007825Y005315D01*
X007825Y005349D02*
X007151Y005349D01*
X007151Y005383D02*
X007825Y005383D01*
D19*
X013254Y011480D03*
X013754Y011480D03*
X014254Y011480D03*
X014754Y011480D03*
X014754Y013528D03*
X014254Y013528D03*
X013754Y013528D03*
X013254Y013528D03*
D20*
X010504Y017004D03*
D21*
X013604Y017004D03*
X007404Y017004D03*
D22*
X010110Y005961D03*
X010898Y005961D03*
D23*
X011843Y003913D03*
X009165Y003913D03*
D24*
X003858Y006299D03*
X002283Y006299D03*
X002283Y008976D03*
X003858Y008976D03*
X003815Y011122D03*
X002240Y011122D03*
X002240Y013799D03*
X003815Y013799D03*
D25*
X016091Y014004D03*
X016917Y014004D03*
D26*
X009824Y007994D03*
D27*
X009824Y008894D03*
X009824Y009794D03*
X010824Y009794D03*
X010824Y008894D03*
X010824Y007994D03*
M02*
