G75*
G70*
%OFA0B0*%
%FSLAX24Y24*%
%IPPOS*%
%LPD*%
%AMOC8*
5,1,8,0,0,1.08239X$1,22.5*
%
%ADD10C,0.0004*%
%ADD11C,0.0000*%
%ADD12R,0.0220X0.0500*%
%ADD13R,0.0500X0.0220*%
%ADD14R,0.0472X0.0472*%
%ADD15R,0.0472X0.0472*%
D10*
X000161Y010296D02*
X000173Y010779D01*
X000208Y011261D01*
X000268Y011740D01*
X000350Y012216D01*
X000456Y012688D01*
X000585Y013153D01*
X000736Y013612D01*
X000910Y014063D01*
X001106Y014504D01*
X001323Y014936D01*
X001561Y015356D01*
X001820Y015764D01*
X002098Y016159D01*
X002395Y016540D01*
X002711Y016906D01*
X003044Y017256D01*
X003394Y017589D01*
X003760Y017905D01*
X004141Y018202D01*
X004536Y018480D01*
X004944Y018739D01*
X005364Y018977D01*
X005796Y019194D01*
X006237Y019390D01*
X006688Y019564D01*
X007147Y019715D01*
X007612Y019844D01*
X008084Y019950D01*
X008560Y020032D01*
X009039Y020092D01*
X009521Y020127D01*
X010004Y020139D01*
X010487Y020127D01*
X010969Y020092D01*
X011448Y020032D01*
X011924Y019950D01*
X012396Y019844D01*
X012861Y019715D01*
X013320Y019564D01*
X013771Y019390D01*
X014212Y019194D01*
X014644Y018977D01*
X015064Y018739D01*
X015472Y018480D01*
X015867Y018202D01*
X016248Y017905D01*
X016614Y017589D01*
X016964Y017256D01*
X017297Y016906D01*
X017613Y016540D01*
X017910Y016159D01*
X018188Y015764D01*
X018447Y015356D01*
X018685Y014936D01*
X018902Y014504D01*
X019098Y014063D01*
X019272Y013612D01*
X019423Y013153D01*
X019552Y012688D01*
X019658Y012216D01*
X019740Y011740D01*
X019800Y011261D01*
X019835Y010779D01*
X019847Y010296D01*
X019835Y009813D01*
X019800Y009331D01*
X019740Y008852D01*
X019658Y008376D01*
X019552Y007904D01*
X019423Y007439D01*
X019272Y006980D01*
X019098Y006529D01*
X018902Y006088D01*
X018685Y005656D01*
X018447Y005236D01*
X018188Y004828D01*
X017910Y004433D01*
X017613Y004052D01*
X017297Y003686D01*
X016964Y003336D01*
X016614Y003003D01*
X016248Y002687D01*
X015867Y002390D01*
X015472Y002112D01*
X015064Y001853D01*
X014644Y001615D01*
X014212Y001398D01*
X013771Y001202D01*
X013320Y001028D01*
X012861Y000877D01*
X012396Y000748D01*
X011924Y000642D01*
X011448Y000560D01*
X010969Y000500D01*
X010487Y000465D01*
X010004Y000453D01*
X009521Y000465D01*
X009039Y000500D01*
X008560Y000560D01*
X008084Y000642D01*
X007612Y000748D01*
X007147Y000877D01*
X006688Y001028D01*
X006237Y001202D01*
X005796Y001398D01*
X005364Y001615D01*
X004944Y001853D01*
X004536Y002112D01*
X004141Y002390D01*
X003760Y002687D01*
X003394Y003003D01*
X003044Y003336D01*
X002711Y003686D01*
X002395Y004052D01*
X002098Y004433D01*
X001820Y004828D01*
X001561Y005236D01*
X001323Y005656D01*
X001106Y006088D01*
X000910Y006529D01*
X000736Y006980D01*
X000585Y007439D01*
X000456Y007904D01*
X000350Y008376D01*
X000268Y008852D01*
X000208Y009331D01*
X000173Y009813D01*
X000161Y010296D01*
D11*
X009571Y013052D02*
X009573Y013093D01*
X009579Y013134D01*
X009589Y013174D01*
X009602Y013213D01*
X009619Y013250D01*
X009640Y013286D01*
X009664Y013320D01*
X009691Y013351D01*
X009720Y013379D01*
X009753Y013405D01*
X009787Y013427D01*
X009824Y013446D01*
X009862Y013461D01*
X009902Y013473D01*
X009942Y013481D01*
X009983Y013485D01*
X010025Y013485D01*
X010066Y013481D01*
X010106Y013473D01*
X010146Y013461D01*
X010184Y013446D01*
X010220Y013427D01*
X010255Y013405D01*
X010288Y013379D01*
X010317Y013351D01*
X010344Y013320D01*
X010368Y013286D01*
X010389Y013250D01*
X010406Y013213D01*
X010419Y013174D01*
X010429Y013134D01*
X010435Y013093D01*
X010437Y013052D01*
X010435Y013011D01*
X010429Y012970D01*
X010419Y012930D01*
X010406Y012891D01*
X010389Y012854D01*
X010368Y012818D01*
X010344Y012784D01*
X010317Y012753D01*
X010288Y012725D01*
X010255Y012699D01*
X010221Y012677D01*
X010184Y012658D01*
X010146Y012643D01*
X010106Y012631D01*
X010066Y012623D01*
X010025Y012619D01*
X009983Y012619D01*
X009942Y012623D01*
X009902Y012631D01*
X009862Y012643D01*
X009824Y012658D01*
X009788Y012677D01*
X009753Y012699D01*
X009720Y012725D01*
X009691Y012753D01*
X009664Y012784D01*
X009640Y012818D01*
X009619Y012854D01*
X009602Y012891D01*
X009589Y012930D01*
X009579Y012970D01*
X009573Y013011D01*
X009571Y013052D01*
X008961Y003013D02*
X008963Y003039D01*
X008969Y003065D01*
X008979Y003090D01*
X008992Y003113D01*
X009008Y003133D01*
X009028Y003151D01*
X009050Y003166D01*
X009073Y003178D01*
X009099Y003186D01*
X009125Y003190D01*
X009151Y003190D01*
X009177Y003186D01*
X009203Y003178D01*
X009227Y003166D01*
X009248Y003151D01*
X009268Y003133D01*
X009284Y003113D01*
X009297Y003090D01*
X009307Y003065D01*
X009313Y003039D01*
X009315Y003013D01*
X009313Y002987D01*
X009307Y002961D01*
X009297Y002936D01*
X009284Y002913D01*
X009268Y002893D01*
X009248Y002875D01*
X009226Y002860D01*
X009203Y002848D01*
X009177Y002840D01*
X009151Y002836D01*
X009125Y002836D01*
X009099Y002840D01*
X009073Y002848D01*
X009049Y002860D01*
X009028Y002875D01*
X009008Y002893D01*
X008992Y002913D01*
X008979Y002936D01*
X008969Y002961D01*
X008963Y002987D01*
X008961Y003013D01*
X010693Y003013D02*
X010695Y003039D01*
X010701Y003065D01*
X010711Y003090D01*
X010724Y003113D01*
X010740Y003133D01*
X010760Y003151D01*
X010782Y003166D01*
X010805Y003178D01*
X010831Y003186D01*
X010857Y003190D01*
X010883Y003190D01*
X010909Y003186D01*
X010935Y003178D01*
X010959Y003166D01*
X010980Y003151D01*
X011000Y003133D01*
X011016Y003113D01*
X011029Y003090D01*
X011039Y003065D01*
X011045Y003039D01*
X011047Y003013D01*
X011045Y002987D01*
X011039Y002961D01*
X011029Y002936D01*
X011016Y002913D01*
X011000Y002893D01*
X010980Y002875D01*
X010958Y002860D01*
X010935Y002848D01*
X010909Y002840D01*
X010883Y002836D01*
X010857Y002836D01*
X010831Y002840D01*
X010805Y002848D01*
X010781Y002860D01*
X010760Y002875D01*
X010740Y002893D01*
X010724Y002913D01*
X010711Y002936D01*
X010701Y002961D01*
X010695Y002987D01*
X010693Y003013D01*
D12*
X010730Y007143D03*
X010415Y007143D03*
X010100Y007143D03*
X009785Y007143D03*
X009470Y007143D03*
X009155Y007143D03*
X008840Y007143D03*
X011045Y007143D03*
X011045Y010523D03*
X010730Y010523D03*
X010415Y010523D03*
X010100Y010523D03*
X009785Y010523D03*
X009470Y010523D03*
X009155Y010523D03*
X008840Y010523D03*
D13*
X008253Y009935D03*
X008253Y009620D03*
X008253Y009305D03*
X008253Y008990D03*
X008253Y008675D03*
X008253Y008360D03*
X008253Y008045D03*
X008253Y007730D03*
X011633Y007730D03*
X011633Y008045D03*
X011633Y008360D03*
X011633Y008675D03*
X011633Y008990D03*
X011633Y009305D03*
X011633Y009620D03*
X011633Y009935D03*
D14*
X017090Y009883D03*
X017090Y010709D03*
X018449Y010296D03*
X019275Y010296D03*
X010417Y003209D03*
X009590Y003209D03*
X010004Y001851D03*
X010004Y001024D03*
X002917Y009883D03*
X002917Y010709D03*
X001559Y010296D03*
X000732Y010296D03*
X009590Y017383D03*
X010417Y017383D03*
X010004Y018741D03*
X010004Y019568D03*
D15*
G36*
X004606Y002466D02*
X004225Y002743D01*
X004502Y003124D01*
X004883Y002847D01*
X004606Y002466D01*
G37*
G36*
X005454Y001944D02*
X005046Y002180D01*
X005282Y002588D01*
X005690Y002352D01*
X005454Y001944D01*
G37*
G36*
X006352Y001515D02*
X005922Y001707D01*
X006114Y002137D01*
X006544Y001945D01*
X006352Y001515D01*
G37*
G36*
X007290Y001181D02*
X006842Y001327D01*
X006988Y001775D01*
X007436Y001629D01*
X007290Y001181D01*
G37*
G36*
X008257Y000948D02*
X007797Y001046D01*
X007895Y001506D01*
X008355Y001408D01*
X008257Y000948D01*
G37*
G36*
X009245Y000816D02*
X008776Y000865D01*
X008825Y001334D01*
X009294Y001285D01*
X009245Y000816D01*
G37*
G36*
X009331Y001638D02*
X008862Y001687D01*
X008911Y002156D01*
X009380Y002107D01*
X009331Y001638D01*
G37*
G36*
X008429Y001757D02*
X007969Y001855D01*
X008067Y002315D01*
X008527Y002217D01*
X008429Y001757D01*
G37*
G36*
X007545Y001967D02*
X007097Y002113D01*
X007243Y002561D01*
X007691Y002415D01*
X007545Y001967D01*
G37*
G36*
X006688Y002270D02*
X006258Y002462D01*
X006450Y002892D01*
X006880Y002700D01*
X006688Y002270D01*
G37*
G36*
X005867Y002660D02*
X005459Y002896D01*
X005695Y003304D01*
X006103Y003068D01*
X005867Y002660D01*
G37*
G36*
X005092Y003135D02*
X004711Y003412D01*
X004988Y003793D01*
X005369Y003516D01*
X005092Y003135D01*
G37*
G36*
X004370Y003687D02*
X004020Y004003D01*
X004336Y004353D01*
X004686Y004037D01*
X004370Y003687D01*
G37*
G36*
X003817Y003073D02*
X003467Y003389D01*
X003783Y003739D01*
X004133Y003423D01*
X003817Y003073D01*
G37*
G36*
X003097Y003759D02*
X002781Y004109D01*
X003131Y004425D01*
X003447Y004075D01*
X003097Y003759D01*
G37*
G36*
X003711Y004312D02*
X003395Y004662D01*
X003745Y004978D01*
X004061Y004628D01*
X003711Y004312D01*
G37*
G36*
X002451Y004517D02*
X002174Y004898D01*
X002555Y005175D01*
X002832Y004794D01*
X002451Y004517D01*
G37*
G36*
X003120Y005003D02*
X002843Y005384D01*
X003224Y005661D01*
X003501Y005280D01*
X003120Y005003D01*
G37*
G36*
X001888Y005338D02*
X001652Y005746D01*
X002060Y005982D01*
X002296Y005574D01*
X001888Y005338D01*
G37*
G36*
X002604Y005752D02*
X002368Y006160D01*
X002776Y006396D01*
X003012Y005988D01*
X002604Y005752D01*
G37*
G36*
X001415Y006214D02*
X001223Y006644D01*
X001653Y006836D01*
X001845Y006406D01*
X001415Y006214D01*
G37*
G36*
X002170Y006550D02*
X001978Y006980D01*
X002408Y007172D01*
X002600Y006742D01*
X002170Y006550D01*
G37*
G36*
X001035Y007134D02*
X000889Y007582D01*
X001337Y007728D01*
X001483Y007280D01*
X001035Y007134D01*
G37*
G36*
X001821Y007389D02*
X001675Y007837D01*
X002123Y007983D01*
X002269Y007535D01*
X001821Y007389D01*
G37*
G36*
X000754Y008089D02*
X000656Y008549D01*
X001116Y008647D01*
X001214Y008187D01*
X000754Y008089D01*
G37*
G36*
X001563Y008261D02*
X001465Y008721D01*
X001925Y008819D01*
X002023Y008359D01*
X001563Y008261D01*
G37*
G36*
X000573Y009068D02*
X000524Y009537D01*
X000993Y009586D01*
X001042Y009117D01*
X000573Y009068D01*
G37*
G36*
X001395Y009154D02*
X001346Y009623D01*
X001815Y009672D01*
X001864Y009203D01*
X001395Y009154D01*
G37*
G36*
X001346Y010969D02*
X001395Y011438D01*
X001864Y011389D01*
X001815Y010920D01*
X001346Y010969D01*
G37*
G36*
X000524Y011055D02*
X000573Y011524D01*
X001042Y011475D01*
X000993Y011006D01*
X000524Y011055D01*
G37*
G36*
X001465Y011871D02*
X001563Y012331D01*
X002023Y012233D01*
X001925Y011773D01*
X001465Y011871D01*
G37*
G36*
X000656Y012043D02*
X000754Y012503D01*
X001214Y012405D01*
X001116Y011945D01*
X000656Y012043D01*
G37*
G36*
X001675Y012755D02*
X001821Y013203D01*
X002269Y013057D01*
X002123Y012609D01*
X001675Y012755D01*
G37*
G36*
X000889Y013010D02*
X001035Y013458D01*
X001483Y013312D01*
X001337Y012864D01*
X000889Y013010D01*
G37*
G36*
X001223Y013948D02*
X001415Y014378D01*
X001845Y014186D01*
X001653Y013756D01*
X001223Y013948D01*
G37*
G36*
X001978Y013612D02*
X002170Y014042D01*
X002600Y013850D01*
X002408Y013420D01*
X001978Y013612D01*
G37*
G36*
X002368Y014433D02*
X002604Y014841D01*
X003012Y014605D01*
X002776Y014197D01*
X002368Y014433D01*
G37*
G36*
X001652Y014846D02*
X001888Y015254D01*
X002296Y015018D01*
X002060Y014610D01*
X001652Y014846D01*
G37*
G36*
X002174Y015694D02*
X002451Y016075D01*
X002832Y015798D01*
X002555Y015417D01*
X002174Y015694D01*
G37*
G36*
X002843Y015208D02*
X003120Y015589D01*
X003501Y015312D01*
X003224Y014931D01*
X002843Y015208D01*
G37*
G36*
X003395Y015930D02*
X003711Y016280D01*
X004061Y015964D01*
X003745Y015614D01*
X003395Y015930D01*
G37*
G36*
X002781Y016483D02*
X003097Y016833D01*
X003447Y016517D01*
X003131Y016167D01*
X002781Y016483D01*
G37*
G36*
X003467Y017203D02*
X003817Y017519D01*
X004133Y017169D01*
X003783Y016853D01*
X003467Y017203D01*
G37*
G36*
X004020Y016589D02*
X004370Y016905D01*
X004686Y016555D01*
X004336Y016239D01*
X004020Y016589D01*
G37*
G36*
X004711Y017180D02*
X005092Y017457D01*
X005369Y017076D01*
X004988Y016799D01*
X004711Y017180D01*
G37*
G36*
X004225Y017849D02*
X004606Y018126D01*
X004883Y017745D01*
X004502Y017468D01*
X004225Y017849D01*
G37*
G36*
X005046Y018412D02*
X005454Y018648D01*
X005690Y018240D01*
X005282Y018004D01*
X005046Y018412D01*
G37*
G36*
X005459Y017696D02*
X005867Y017932D01*
X006103Y017524D01*
X005695Y017288D01*
X005459Y017696D01*
G37*
G36*
X006258Y018130D02*
X006688Y018322D01*
X006880Y017892D01*
X006450Y017700D01*
X006258Y018130D01*
G37*
G36*
X005922Y018885D02*
X006352Y019077D01*
X006544Y018647D01*
X006114Y018455D01*
X005922Y018885D01*
G37*
G36*
X006842Y019265D02*
X007290Y019411D01*
X007436Y018963D01*
X006988Y018817D01*
X006842Y019265D01*
G37*
G36*
X007097Y018479D02*
X007545Y018625D01*
X007691Y018177D01*
X007243Y018031D01*
X007097Y018479D01*
G37*
G36*
X007969Y018737D02*
X008429Y018835D01*
X008527Y018375D01*
X008067Y018277D01*
X007969Y018737D01*
G37*
G36*
X007797Y019546D02*
X008257Y019644D01*
X008355Y019184D01*
X007895Y019086D01*
X007797Y019546D01*
G37*
G36*
X008776Y019727D02*
X009245Y019776D01*
X009294Y019307D01*
X008825Y019258D01*
X008776Y019727D01*
G37*
G36*
X008862Y018905D02*
X009331Y018954D01*
X009380Y018485D01*
X008911Y018436D01*
X008862Y018905D01*
G37*
G36*
X010677Y018954D02*
X011146Y018905D01*
X011097Y018436D01*
X010628Y018485D01*
X010677Y018954D01*
G37*
G36*
X010763Y019776D02*
X011232Y019727D01*
X011183Y019258D01*
X010714Y019307D01*
X010763Y019776D01*
G37*
G36*
X011750Y019644D02*
X012210Y019546D01*
X012112Y019086D01*
X011652Y019184D01*
X011750Y019644D01*
G37*
G36*
X012718Y019411D02*
X013166Y019265D01*
X013020Y018817D01*
X012572Y018963D01*
X012718Y019411D01*
G37*
G36*
X013656Y019077D02*
X014086Y018885D01*
X013894Y018455D01*
X013464Y018647D01*
X013656Y019077D01*
G37*
G36*
X012462Y018625D02*
X012910Y018479D01*
X012764Y018031D01*
X012316Y018177D01*
X012462Y018625D01*
G37*
G36*
X011579Y018835D02*
X012039Y018737D01*
X011941Y018277D01*
X011481Y018375D01*
X011579Y018835D01*
G37*
G36*
X013320Y018322D02*
X013750Y018130D01*
X013558Y017700D01*
X013128Y017892D01*
X013320Y018322D01*
G37*
G36*
X014140Y017932D02*
X014548Y017696D01*
X014312Y017288D01*
X013904Y017524D01*
X014140Y017932D01*
G37*
G36*
X014554Y018648D02*
X014962Y018412D01*
X014726Y018004D01*
X014318Y018240D01*
X014554Y018648D01*
G37*
G36*
X015401Y018126D02*
X015782Y017849D01*
X015505Y017468D01*
X015124Y017745D01*
X015401Y018126D01*
G37*
G36*
X014916Y017457D02*
X015297Y017180D01*
X015020Y016799D01*
X014639Y017076D01*
X014916Y017457D01*
G37*
G36*
X015637Y016905D02*
X015987Y016589D01*
X015671Y016239D01*
X015321Y016555D01*
X015637Y016905D01*
G37*
G36*
X016191Y017519D02*
X016541Y017203D01*
X016225Y016853D01*
X015875Y017169D01*
X016191Y017519D01*
G37*
G36*
X016911Y016833D02*
X017227Y016483D01*
X016877Y016167D01*
X016561Y016517D01*
X016911Y016833D01*
G37*
G36*
X016297Y016280D02*
X016613Y015930D01*
X016263Y015614D01*
X015947Y015964D01*
X016297Y016280D01*
G37*
G36*
X017557Y016075D02*
X017834Y015694D01*
X017453Y015417D01*
X017176Y015798D01*
X017557Y016075D01*
G37*
G36*
X016888Y015589D02*
X017165Y015208D01*
X016784Y014931D01*
X016507Y015312D01*
X016888Y015589D01*
G37*
G36*
X018119Y015254D02*
X018355Y014846D01*
X017947Y014610D01*
X017711Y015018D01*
X018119Y015254D01*
G37*
G36*
X017403Y014841D02*
X017639Y014433D01*
X017231Y014197D01*
X016995Y014605D01*
X017403Y014841D01*
G37*
G36*
X018593Y014378D02*
X018785Y013948D01*
X018355Y013756D01*
X018163Y014186D01*
X018593Y014378D01*
G37*
G36*
X017838Y014042D02*
X018030Y013612D01*
X017600Y013420D01*
X017408Y013850D01*
X017838Y014042D01*
G37*
G36*
X018973Y013458D02*
X019119Y013010D01*
X018671Y012864D01*
X018525Y013312D01*
X018973Y013458D01*
G37*
G36*
X018186Y013203D02*
X018332Y012755D01*
X017884Y012609D01*
X017738Y013057D01*
X018186Y013203D01*
G37*
G36*
X019254Y012503D02*
X019352Y012043D01*
X018892Y011945D01*
X018794Y012405D01*
X019254Y012503D01*
G37*
G36*
X018445Y012331D02*
X018543Y011871D01*
X018083Y011773D01*
X017985Y012233D01*
X018445Y012331D01*
G37*
G36*
X018613Y011438D02*
X018662Y010969D01*
X018193Y010920D01*
X018144Y011389D01*
X018613Y011438D01*
G37*
G36*
X019435Y011524D02*
X019484Y011055D01*
X019015Y011006D01*
X018966Y011475D01*
X019435Y011524D01*
G37*
G36*
X018662Y009623D02*
X018613Y009154D01*
X018144Y009203D01*
X018193Y009672D01*
X018662Y009623D01*
G37*
G36*
X019484Y009537D02*
X019435Y009068D01*
X018966Y009117D01*
X019015Y009586D01*
X019484Y009537D01*
G37*
G36*
X018543Y008721D02*
X018445Y008261D01*
X017985Y008359D01*
X018083Y008819D01*
X018543Y008721D01*
G37*
G36*
X019352Y008549D02*
X019254Y008089D01*
X018794Y008187D01*
X018892Y008647D01*
X019352Y008549D01*
G37*
G36*
X018332Y007837D02*
X018186Y007389D01*
X017738Y007535D01*
X017884Y007983D01*
X018332Y007837D01*
G37*
G36*
X019119Y007582D02*
X018973Y007134D01*
X018525Y007280D01*
X018671Y007728D01*
X019119Y007582D01*
G37*
G36*
X018785Y006644D02*
X018593Y006214D01*
X018163Y006406D01*
X018355Y006836D01*
X018785Y006644D01*
G37*
G36*
X018030Y006980D02*
X017838Y006550D01*
X017408Y006742D01*
X017600Y007172D01*
X018030Y006980D01*
G37*
G36*
X017639Y006160D02*
X017403Y005752D01*
X016995Y005988D01*
X017231Y006396D01*
X017639Y006160D01*
G37*
G36*
X018355Y005746D02*
X018119Y005338D01*
X017711Y005574D01*
X017947Y005982D01*
X018355Y005746D01*
G37*
G36*
X017165Y005384D02*
X016888Y005003D01*
X016507Y005280D01*
X016784Y005661D01*
X017165Y005384D01*
G37*
G36*
X017834Y004898D02*
X017557Y004517D01*
X017176Y004794D01*
X017453Y005175D01*
X017834Y004898D01*
G37*
G36*
X017227Y004109D02*
X016911Y003759D01*
X016561Y004075D01*
X016877Y004425D01*
X017227Y004109D01*
G37*
G36*
X016613Y004662D02*
X016297Y004312D01*
X015947Y004628D01*
X016263Y004978D01*
X016613Y004662D01*
G37*
G36*
X015987Y004003D02*
X015637Y003687D01*
X015321Y004037D01*
X015671Y004353D01*
X015987Y004003D01*
G37*
G36*
X016541Y003389D02*
X016191Y003073D01*
X015875Y003423D01*
X016225Y003739D01*
X016541Y003389D01*
G37*
G36*
X015782Y002743D02*
X015401Y002466D01*
X015124Y002847D01*
X015505Y003124D01*
X015782Y002743D01*
G37*
G36*
X014962Y002180D02*
X014554Y001944D01*
X014318Y002352D01*
X014726Y002588D01*
X014962Y002180D01*
G37*
G36*
X014548Y002896D02*
X014140Y002660D01*
X013904Y003068D01*
X014312Y003304D01*
X014548Y002896D01*
G37*
G36*
X015297Y003412D02*
X014916Y003135D01*
X014639Y003516D01*
X015020Y003793D01*
X015297Y003412D01*
G37*
G36*
X013991Y004688D02*
X014227Y004280D01*
X013819Y004044D01*
X013583Y004452D01*
X013991Y004688D01*
G37*
G36*
X013275Y004274D02*
X013511Y003866D01*
X013103Y003630D01*
X012867Y004038D01*
X013275Y004274D01*
G37*
G36*
X013750Y002462D02*
X013320Y002270D01*
X013128Y002700D01*
X013558Y002892D01*
X013750Y002462D01*
G37*
G36*
X014086Y001707D02*
X013656Y001515D01*
X013464Y001945D01*
X013894Y002137D01*
X014086Y001707D01*
G37*
G36*
X013166Y001327D02*
X012718Y001181D01*
X012572Y001629D01*
X013020Y001775D01*
X013166Y001327D01*
G37*
G36*
X012210Y001046D02*
X011750Y000948D01*
X011652Y001408D01*
X012112Y001506D01*
X012210Y001046D01*
G37*
G36*
X011232Y000865D02*
X010763Y000816D01*
X010714Y001285D01*
X011183Y001334D01*
X011232Y000865D01*
G37*
G36*
X011146Y001687D02*
X010677Y001638D01*
X010628Y002107D01*
X011097Y002156D01*
X011146Y001687D01*
G37*
G36*
X012039Y001855D02*
X011579Y001757D01*
X011481Y002217D01*
X011941Y002315D01*
X012039Y001855D01*
G37*
G36*
X012910Y002113D02*
X012462Y001967D01*
X012316Y002415D01*
X012764Y002561D01*
X012910Y002113D01*
G37*
G36*
X007141Y004038D02*
X006905Y003630D01*
X006497Y003866D01*
X006733Y004274D01*
X007141Y004038D01*
G37*
G36*
X006424Y004452D02*
X006188Y004044D01*
X005780Y004280D01*
X006016Y004688D01*
X006424Y004452D01*
G37*
G36*
X004395Y006309D02*
X003987Y006073D01*
X003751Y006481D01*
X004159Y006717D01*
X004395Y006309D01*
G37*
G36*
X003982Y007025D02*
X003574Y006789D01*
X003338Y007197D01*
X003746Y007433D01*
X003982Y007025D01*
G37*
G36*
X003746Y013159D02*
X003338Y013395D01*
X003574Y013803D01*
X003982Y013567D01*
X003746Y013159D01*
G37*
G36*
X004159Y013875D02*
X003751Y014111D01*
X003987Y014519D01*
X004395Y014283D01*
X004159Y013875D01*
G37*
G36*
X006016Y015904D02*
X005780Y016312D01*
X006188Y016548D01*
X006424Y016140D01*
X006016Y015904D01*
G37*
G36*
X006733Y016318D02*
X006497Y016726D01*
X006905Y016962D01*
X007141Y016554D01*
X006733Y016318D01*
G37*
G36*
X012867Y016554D02*
X013103Y016962D01*
X013511Y016726D01*
X013275Y016318D01*
X012867Y016554D01*
G37*
G36*
X013583Y016140D02*
X013819Y016548D01*
X014227Y016312D01*
X013991Y015904D01*
X013583Y016140D01*
G37*
G36*
X015612Y014283D02*
X016020Y014519D01*
X016256Y014111D01*
X015848Y013875D01*
X015612Y014283D01*
G37*
G36*
X016025Y013567D02*
X016433Y013803D01*
X016669Y013395D01*
X016261Y013159D01*
X016025Y013567D01*
G37*
G36*
X016261Y007433D02*
X016669Y007197D01*
X016433Y006789D01*
X016025Y007025D01*
X016261Y007433D01*
G37*
G36*
X015848Y006717D02*
X016256Y006481D01*
X016020Y006073D01*
X015612Y006309D01*
X015848Y006717D01*
G37*
M02*
