%
M48
M72
T01C0.0110
T02C0.0400
T03C0.0866
%
T01
X7900Y12200
X7000Y12300
X5900Y12200
X5550Y12050
X5500Y10500
X8700Y5950
X8100Y4550
X5000Y10450
X9000Y6250
X8350Y6250
X7000Y7400
X6600Y7100
X9800Y8050
X10000Y6000
X5900Y7350
X11950Y8550
X8600Y8200
X5500Y5750
X5150Y11700
X8600Y8950
X7000Y8450
X8600Y8550
X14950Y11850
X7400Y7100
X6600Y6500
X5200Y5100
X8350Y6650
X8500Y1850
X13800Y3750
X17800Y8500
X17400Y4500
X15050Y14700
X15200Y16450
X13600Y17950
X5950Y13750
X2850Y8950
X2800Y11700
X6800Y14950
X16400Y15150
X17700Y13850
X7950Y2800
X10600Y2650
X3800Y9050
X3850Y12050
X4950Y13000
X7350Y15650
X12100Y4100
X16800Y8550
X13000Y3350
X15200Y3250
X9400Y1050
X2750Y8650
X2700Y13500
X5500Y14350
X18250Y9400
X16350Y13000
X16850Y5300
X1800Y9450
X3100Y14300
X7650Y18050
X14500Y2650
X13600Y1750
X16300Y6550
X14950Y3500
X2300Y6900
X3000Y3900
X8500Y1500
X7400Y1250
X11900Y2100
X4700Y2550
X5950Y2150
X2900Y9250
X4200Y14400
X4100Y11000
X3450Y11650
X11000Y19050
X12700Y17350
X14900Y14100
X14100Y15250
X6500Y12150
X16950Y10300
X17100Y6200
X3500Y14950
X1950Y11950
X4100Y10000
X12200Y3350
X15850Y7150
X14350Y16800
X13850Y14600
X4200Y4100
X11050Y1850
X4300Y8500
X1350Y12100
X16250Y10500
X15600Y7700
X18550Y10300
X8100Y4200
X8100Y3700
X13850Y17650
X13850Y15700
X18350Y13100
X17300Y15150
X9000Y19050
X4200Y7600
X4650Y8500
X9450Y1800
X10800Y3550
X14100Y4600
X14800Y4600
X16400Y7750
X6550Y6800
X14000Y13950
X16800Y9250
X18800Y9000
X15000Y15000
X2600Y4650
X6050Y1600
X1100Y7900
X10300Y1050
X1100Y12450
X7550Y3700
X4950Y7500
X3950Y5650
X6050Y14600
X6150Y14000
X5900Y17650
X15000Y2550
X12200Y12150
X12850Y12400
X11250Y9800
X12300Y13700
X11050Y7350
X8600Y9600
X7500Y5850
X8400Y6950
X10800Y7150
X9550Y10550
T02
X9320Y7490
X10320Y7490
X9320Y8390
X10320Y8390
X9320Y9290
X10320Y9290
T03
X9843Y12205
M30
