G75*
G70*
%OFA0B0*%
%FSLAX24Y24*%
%IPPOS*%
%LPD*%
%AMOC8*
5,1,8,0,0,1.08239X$1,22.5*
%
%ADD10C,0.0004*%
%ADD11C,0.0000*%
%ADD12C,0.0906*%
%ADD13R,0.0631X0.0552*%
%ADD14R,0.0552X0.0631*%
%ADD15R,0.1024X0.2402*%
%ADD16R,0.0434X0.1024*%
%ADD17C,0.0031*%
%ADD18C,0.0035*%
%ADD19R,0.0276X0.0906*%
%ADD20R,0.1600X0.1600*%
%ADD21R,0.1290X0.1290*%
%ADD22R,0.0512X0.1300*%
%ADD23R,0.0780X0.0780*%
%ADD24OC8,0.0780*%
%ADD25R,0.0827X0.0985*%
%ADD26R,0.0237X0.1221*%
%ADD27C,0.0394*%
%ADD28C,0.0207*%
%ADD29R,0.0512X0.0512*%
D10*
X000161Y010296D02*
X000173Y010779D01*
X000208Y011261D01*
X000268Y011740D01*
X000350Y012216D01*
X000456Y012688D01*
X000585Y013153D01*
X000736Y013612D01*
X000910Y014063D01*
X001106Y014504D01*
X001323Y014936D01*
X001561Y015356D01*
X001820Y015764D01*
X002098Y016159D01*
X002395Y016540D01*
X002711Y016906D01*
X003044Y017256D01*
X003394Y017589D01*
X003760Y017905D01*
X004141Y018202D01*
X004536Y018480D01*
X004944Y018739D01*
X005364Y018977D01*
X005796Y019194D01*
X006237Y019390D01*
X006688Y019564D01*
X007147Y019715D01*
X007612Y019844D01*
X008084Y019950D01*
X008560Y020032D01*
X009039Y020092D01*
X009521Y020127D01*
X010004Y020139D01*
X010487Y020127D01*
X010969Y020092D01*
X011448Y020032D01*
X011924Y019950D01*
X012396Y019844D01*
X012861Y019715D01*
X013320Y019564D01*
X013771Y019390D01*
X014212Y019194D01*
X014644Y018977D01*
X015064Y018739D01*
X015472Y018480D01*
X015867Y018202D01*
X016248Y017905D01*
X016614Y017589D01*
X016964Y017256D01*
X017297Y016906D01*
X017613Y016540D01*
X017910Y016159D01*
X018188Y015764D01*
X018447Y015356D01*
X018685Y014936D01*
X018902Y014504D01*
X019098Y014063D01*
X019272Y013612D01*
X019423Y013153D01*
X019552Y012688D01*
X019658Y012216D01*
X019740Y011740D01*
X019800Y011261D01*
X019835Y010779D01*
X019847Y010296D01*
X019835Y009813D01*
X019800Y009331D01*
X019740Y008852D01*
X019658Y008376D01*
X019552Y007904D01*
X019423Y007439D01*
X019272Y006980D01*
X019098Y006529D01*
X018902Y006088D01*
X018685Y005656D01*
X018447Y005236D01*
X018188Y004828D01*
X017910Y004433D01*
X017613Y004052D01*
X017297Y003686D01*
X016964Y003336D01*
X016614Y003003D01*
X016248Y002687D01*
X015867Y002390D01*
X015472Y002112D01*
X015064Y001853D01*
X014644Y001615D01*
X014212Y001398D01*
X013771Y001202D01*
X013320Y001028D01*
X012861Y000877D01*
X012396Y000748D01*
X011924Y000642D01*
X011448Y000560D01*
X010969Y000500D01*
X010487Y000465D01*
X010004Y000453D01*
X009521Y000465D01*
X009039Y000500D01*
X008560Y000560D01*
X008084Y000642D01*
X007612Y000748D01*
X007147Y000877D01*
X006688Y001028D01*
X006237Y001202D01*
X005796Y001398D01*
X005364Y001615D01*
X004944Y001853D01*
X004536Y002112D01*
X004141Y002390D01*
X003760Y002687D01*
X003394Y003003D01*
X003044Y003336D01*
X002711Y003686D01*
X002395Y004052D01*
X002098Y004433D01*
X001820Y004828D01*
X001561Y005236D01*
X001323Y005656D01*
X001106Y006088D01*
X000910Y006529D01*
X000736Y006980D01*
X000585Y007439D01*
X000456Y007904D01*
X000350Y008376D01*
X000268Y008852D01*
X000208Y009331D01*
X000173Y009813D01*
X000161Y010296D01*
D11*
X009571Y013052D02*
X009573Y013093D01*
X009579Y013134D01*
X009589Y013174D01*
X009602Y013213D01*
X009619Y013250D01*
X009640Y013286D01*
X009664Y013320D01*
X009691Y013351D01*
X009720Y013379D01*
X009753Y013405D01*
X009787Y013427D01*
X009824Y013446D01*
X009862Y013461D01*
X009902Y013473D01*
X009942Y013481D01*
X009983Y013485D01*
X010025Y013485D01*
X010066Y013481D01*
X010106Y013473D01*
X010146Y013461D01*
X010184Y013446D01*
X010220Y013427D01*
X010255Y013405D01*
X010288Y013379D01*
X010317Y013351D01*
X010344Y013320D01*
X010368Y013286D01*
X010389Y013250D01*
X010406Y013213D01*
X010419Y013174D01*
X010429Y013134D01*
X010435Y013093D01*
X010437Y013052D01*
X010435Y013011D01*
X010429Y012970D01*
X010419Y012930D01*
X010406Y012891D01*
X010389Y012854D01*
X010368Y012818D01*
X010344Y012784D01*
X010317Y012753D01*
X010288Y012725D01*
X010255Y012699D01*
X010221Y012677D01*
X010184Y012658D01*
X010146Y012643D01*
X010106Y012631D01*
X010066Y012623D01*
X010025Y012619D01*
X009983Y012619D01*
X009942Y012623D01*
X009902Y012631D01*
X009862Y012643D01*
X009824Y012658D01*
X009788Y012677D01*
X009753Y012699D01*
X009720Y012725D01*
X009691Y012753D01*
X009664Y012784D01*
X009640Y012818D01*
X009619Y012854D01*
X009602Y012891D01*
X009589Y012930D01*
X009579Y012970D01*
X009573Y013011D01*
X009571Y013052D01*
X008961Y003013D02*
X008963Y003039D01*
X008969Y003065D01*
X008979Y003090D01*
X008992Y003113D01*
X009008Y003133D01*
X009028Y003151D01*
X009050Y003166D01*
X009073Y003178D01*
X009099Y003186D01*
X009125Y003190D01*
X009151Y003190D01*
X009177Y003186D01*
X009203Y003178D01*
X009227Y003166D01*
X009248Y003151D01*
X009268Y003133D01*
X009284Y003113D01*
X009297Y003090D01*
X009307Y003065D01*
X009313Y003039D01*
X009315Y003013D01*
X009313Y002987D01*
X009307Y002961D01*
X009297Y002936D01*
X009284Y002913D01*
X009268Y002893D01*
X009248Y002875D01*
X009226Y002860D01*
X009203Y002848D01*
X009177Y002840D01*
X009151Y002836D01*
X009125Y002836D01*
X009099Y002840D01*
X009073Y002848D01*
X009049Y002860D01*
X009028Y002875D01*
X009008Y002893D01*
X008992Y002913D01*
X008979Y002936D01*
X008969Y002961D01*
X008963Y002987D01*
X008961Y003013D01*
X010693Y003013D02*
X010695Y003039D01*
X010701Y003065D01*
X010711Y003090D01*
X010724Y003113D01*
X010740Y003133D01*
X010760Y003151D01*
X010782Y003166D01*
X010805Y003178D01*
X010831Y003186D01*
X010857Y003190D01*
X010883Y003190D01*
X010909Y003186D01*
X010935Y003178D01*
X010959Y003166D01*
X010980Y003151D01*
X011000Y003133D01*
X011016Y003113D01*
X011029Y003090D01*
X011039Y003065D01*
X011045Y003039D01*
X011047Y003013D01*
X011045Y002987D01*
X011039Y002961D01*
X011029Y002936D01*
X011016Y002913D01*
X011000Y002893D01*
X010980Y002875D01*
X010958Y002860D01*
X010935Y002848D01*
X010909Y002840D01*
X010883Y002836D01*
X010857Y002836D01*
X010831Y002840D01*
X010805Y002848D01*
X010781Y002860D01*
X010760Y002875D01*
X010740Y002893D01*
X010724Y002913D01*
X010711Y002936D01*
X010701Y002961D01*
X010695Y002987D01*
X010693Y003013D01*
D12*
X010004Y013052D03*
D13*
X006911Y004580D03*
X006911Y005328D03*
X006911Y006330D03*
X006911Y007078D03*
X012911Y007078D03*
X012911Y006330D03*
X012911Y005328D03*
X012911Y004580D03*
X013791Y010580D03*
X013791Y011328D03*
X013949Y013580D03*
X013949Y014328D03*
X015199Y014328D03*
X015199Y013580D03*
X016449Y013580D03*
X016449Y014328D03*
X012661Y014328D03*
X012661Y013580D03*
D14*
X015537Y015454D03*
X016285Y015454D03*
X007035Y011954D03*
X006287Y011954D03*
X005035Y011954D03*
X004287Y011954D03*
X004287Y010704D03*
X005035Y010704D03*
X006287Y010704D03*
X007035Y010704D03*
X005035Y009454D03*
X004287Y009454D03*
X004287Y008204D03*
X005035Y008204D03*
X009630Y005965D03*
X010378Y005965D03*
X013882Y008471D03*
X014630Y008471D03*
X015535Y008471D03*
X016283Y008471D03*
D15*
X015291Y004428D03*
D16*
X014791Y006790D03*
X015791Y006790D03*
D17*
X005802Y006254D02*
X005802Y005654D01*
X004020Y005654D01*
X004020Y006254D01*
X005802Y006254D01*
X005802Y005684D02*
X004020Y005684D01*
X004020Y005714D02*
X005802Y005714D01*
X005802Y005744D02*
X004020Y005744D01*
X004020Y005774D02*
X005802Y005774D01*
X005802Y005804D02*
X004020Y005804D01*
X004020Y005834D02*
X005802Y005834D01*
X005802Y005864D02*
X004020Y005864D01*
X004020Y005894D02*
X005802Y005894D01*
X005802Y005924D02*
X004020Y005924D01*
X004020Y005954D02*
X005802Y005954D01*
X005802Y005984D02*
X004020Y005984D01*
X004020Y006014D02*
X005802Y006014D01*
X005802Y006044D02*
X004020Y006044D01*
X004020Y006074D02*
X005802Y006074D01*
X005802Y006104D02*
X004020Y006104D01*
X004020Y006134D02*
X005802Y006134D01*
X005802Y006164D02*
X004020Y006164D01*
X004020Y006194D02*
X005802Y006194D01*
X005802Y006224D02*
X004020Y006224D01*
X004020Y006254D02*
X005802Y006254D01*
D18*
X005800Y006601D02*
X005800Y007275D01*
X005800Y006601D02*
X004022Y006601D01*
X004022Y007275D01*
X005800Y007275D01*
X005800Y006635D02*
X004022Y006635D01*
X004022Y006669D02*
X005800Y006669D01*
X005800Y006703D02*
X004022Y006703D01*
X004022Y006737D02*
X005800Y006737D01*
X005800Y006771D02*
X004022Y006771D01*
X004022Y006805D02*
X005800Y006805D01*
X005800Y006839D02*
X004022Y006839D01*
X004022Y006873D02*
X005800Y006873D01*
X005800Y006907D02*
X004022Y006907D01*
X004022Y006941D02*
X005800Y006941D01*
X005800Y006975D02*
X004022Y006975D01*
X004022Y007009D02*
X005800Y007009D01*
X005800Y007043D02*
X004022Y007043D01*
X004022Y007077D02*
X005800Y007077D01*
X005800Y007111D02*
X004022Y007111D01*
X004022Y007145D02*
X005800Y007145D01*
X005800Y007179D02*
X004022Y007179D01*
X004022Y007213D02*
X005800Y007213D01*
X005800Y007247D02*
X004022Y007247D01*
X005800Y005306D02*
X005800Y004632D01*
X004022Y004632D01*
X004022Y005306D01*
X005800Y005306D01*
X005800Y004666D02*
X004022Y004666D01*
X004022Y004700D02*
X005800Y004700D01*
X005800Y004734D02*
X004022Y004734D01*
X004022Y004768D02*
X005800Y004768D01*
X005800Y004802D02*
X004022Y004802D01*
X004022Y004836D02*
X005800Y004836D01*
X005800Y004870D02*
X004022Y004870D01*
X004022Y004904D02*
X005800Y004904D01*
X005800Y004938D02*
X004022Y004938D01*
X004022Y004972D02*
X005800Y004972D01*
X005800Y005006D02*
X004022Y005006D01*
X004022Y005040D02*
X005800Y005040D01*
X005800Y005074D02*
X004022Y005074D01*
X004022Y005108D02*
X005800Y005108D01*
X005800Y005142D02*
X004022Y005142D01*
X004022Y005176D02*
X005800Y005176D01*
X005800Y005210D02*
X004022Y005210D01*
X004022Y005244D02*
X005800Y005244D01*
X005800Y005278D02*
X004022Y005278D01*
D19*
X014647Y009930D03*
X015147Y009930D03*
X015647Y009930D03*
X016147Y009930D03*
X016147Y011977D03*
X015647Y011977D03*
X015147Y011977D03*
X014647Y011977D03*
D20*
X010004Y016989D03*
D21*
X013104Y016989D03*
X006904Y016989D03*
D22*
X002523Y011635D03*
X000949Y011635D03*
X000949Y008957D03*
X002523Y008957D03*
X017484Y008957D03*
X019059Y008957D03*
X019059Y011635D03*
X017484Y011635D03*
D23*
X009491Y009714D03*
D24*
X010491Y009714D03*
X010591Y008814D03*
X009391Y008814D03*
X009491Y007914D03*
X010491Y007914D03*
D25*
X011736Y003997D03*
X011736Y002422D03*
X008271Y002422D03*
X008271Y003997D03*
D26*
X009374Y004298D03*
X009689Y004298D03*
X010004Y004298D03*
X010319Y004298D03*
X010634Y004298D03*
D27*
X010870Y003013D03*
X009138Y003013D03*
D28*
X008845Y004750D02*
X008225Y004750D01*
X008225Y005764D01*
X008845Y005764D01*
X008845Y004750D01*
X008845Y004956D02*
X008225Y004956D01*
X008225Y005162D02*
X008845Y005162D01*
X008845Y005368D02*
X008225Y005368D01*
X008225Y005574D02*
X008845Y005574D01*
X011162Y004750D02*
X011782Y004750D01*
X011162Y004750D02*
X011162Y005764D01*
X011782Y005764D01*
X011782Y004750D01*
X011782Y004956D02*
X011162Y004956D01*
X011162Y005162D02*
X011782Y005162D01*
X011782Y005368D02*
X011162Y005368D01*
X011162Y005574D02*
X011782Y005574D01*
D29*
X013578Y015434D03*
X014405Y015434D03*
M02*
