G75*
G70*
%OFA0B0*%
%FSLAX24Y24*%
%IPPOS*%
%LPD*%
%AMOC8*
5,1,8,0,0,1.08239X$1,22.5*
%
%ADD10C,0.0004*%
%ADD11C,0.0000*%
%ADD12R,0.0500X0.0220*%
%ADD13R,0.0220X0.0500*%
%ADD14R,0.0472X0.0472*%
%ADD15R,0.0472X0.0472*%
D10*
X000503Y010346D02*
X000515Y010829D01*
X000550Y011311D01*
X000610Y011790D01*
X000692Y012266D01*
X000798Y012738D01*
X000927Y013203D01*
X001078Y013662D01*
X001252Y014113D01*
X001448Y014554D01*
X001665Y014986D01*
X001903Y015406D01*
X002162Y015814D01*
X002440Y016209D01*
X002737Y016590D01*
X003053Y016956D01*
X003386Y017306D01*
X003736Y017639D01*
X004102Y017955D01*
X004483Y018252D01*
X004878Y018530D01*
X005286Y018789D01*
X005706Y019027D01*
X006138Y019244D01*
X006579Y019440D01*
X007030Y019614D01*
X007489Y019765D01*
X007954Y019894D01*
X008426Y020000D01*
X008902Y020082D01*
X009381Y020142D01*
X009863Y020177D01*
X010346Y020189D01*
X010829Y020177D01*
X011311Y020142D01*
X011790Y020082D01*
X012266Y020000D01*
X012738Y019894D01*
X013203Y019765D01*
X013662Y019614D01*
X014113Y019440D01*
X014554Y019244D01*
X014986Y019027D01*
X015406Y018789D01*
X015814Y018530D01*
X016209Y018252D01*
X016590Y017955D01*
X016956Y017639D01*
X017306Y017306D01*
X017639Y016956D01*
X017955Y016590D01*
X018252Y016209D01*
X018530Y015814D01*
X018789Y015406D01*
X019027Y014986D01*
X019244Y014554D01*
X019440Y014113D01*
X019614Y013662D01*
X019765Y013203D01*
X019894Y012738D01*
X020000Y012266D01*
X020082Y011790D01*
X020142Y011311D01*
X020177Y010829D01*
X020189Y010346D01*
X020177Y009863D01*
X020142Y009381D01*
X020082Y008902D01*
X020000Y008426D01*
X019894Y007954D01*
X019765Y007489D01*
X019614Y007030D01*
X019440Y006579D01*
X019244Y006138D01*
X019027Y005706D01*
X018789Y005286D01*
X018530Y004878D01*
X018252Y004483D01*
X017955Y004102D01*
X017639Y003736D01*
X017306Y003386D01*
X016956Y003053D01*
X016590Y002737D01*
X016209Y002440D01*
X015814Y002162D01*
X015406Y001903D01*
X014986Y001665D01*
X014554Y001448D01*
X014113Y001252D01*
X013662Y001078D01*
X013203Y000927D01*
X012738Y000798D01*
X012266Y000692D01*
X011790Y000610D01*
X011311Y000550D01*
X010829Y000515D01*
X010346Y000503D01*
X009863Y000515D01*
X009381Y000550D01*
X008902Y000610D01*
X008426Y000692D01*
X007954Y000798D01*
X007489Y000927D01*
X007030Y001078D01*
X006579Y001252D01*
X006138Y001448D01*
X005706Y001665D01*
X005286Y001903D01*
X004878Y002162D01*
X004483Y002440D01*
X004102Y002737D01*
X003736Y003053D01*
X003386Y003386D01*
X003053Y003736D01*
X002737Y004102D01*
X002440Y004483D01*
X002162Y004878D01*
X001903Y005286D01*
X001665Y005706D01*
X001448Y006138D01*
X001252Y006579D01*
X001078Y007030D01*
X000927Y007489D01*
X000798Y007954D01*
X000692Y008426D01*
X000610Y008902D01*
X000550Y009381D01*
X000515Y009863D01*
X000503Y010346D01*
D11*
X009913Y012709D02*
X009915Y012750D01*
X009921Y012791D01*
X009931Y012831D01*
X009944Y012870D01*
X009961Y012907D01*
X009982Y012943D01*
X010006Y012977D01*
X010033Y013008D01*
X010062Y013036D01*
X010095Y013062D01*
X010129Y013084D01*
X010166Y013103D01*
X010204Y013118D01*
X010244Y013130D01*
X010284Y013138D01*
X010325Y013142D01*
X010367Y013142D01*
X010408Y013138D01*
X010448Y013130D01*
X010488Y013118D01*
X010526Y013103D01*
X010562Y013084D01*
X010597Y013062D01*
X010630Y013036D01*
X010659Y013008D01*
X010686Y012977D01*
X010710Y012943D01*
X010731Y012907D01*
X010748Y012870D01*
X010761Y012831D01*
X010771Y012791D01*
X010777Y012750D01*
X010779Y012709D01*
X010777Y012668D01*
X010771Y012627D01*
X010761Y012587D01*
X010748Y012548D01*
X010731Y012511D01*
X010710Y012475D01*
X010686Y012441D01*
X010659Y012410D01*
X010630Y012382D01*
X010597Y012356D01*
X010563Y012334D01*
X010526Y012315D01*
X010488Y012300D01*
X010448Y012288D01*
X010408Y012280D01*
X010367Y012276D01*
X010325Y012276D01*
X010284Y012280D01*
X010244Y012288D01*
X010204Y012300D01*
X010166Y012315D01*
X010130Y012334D01*
X010095Y012356D01*
X010062Y012382D01*
X010033Y012410D01*
X010006Y012441D01*
X009982Y012475D01*
X009961Y012511D01*
X009944Y012548D01*
X009931Y012587D01*
X009921Y012627D01*
X009915Y012668D01*
X009913Y012709D01*
D12*
X008635Y009988D03*
X008635Y009673D03*
X008635Y009358D03*
X008635Y009043D03*
X008635Y008728D03*
X008635Y008413D03*
X008635Y008098D03*
X008635Y007783D03*
X012015Y007783D03*
X012015Y008098D03*
X012015Y008413D03*
X012015Y008728D03*
X012015Y009043D03*
X012015Y009358D03*
X012015Y009673D03*
X012015Y009988D03*
D13*
X011427Y010575D03*
X011112Y010575D03*
X010797Y010575D03*
X010482Y010575D03*
X010167Y010575D03*
X009853Y010575D03*
X009538Y010575D03*
X009223Y010575D03*
X009223Y007195D03*
X009538Y007195D03*
X009853Y007195D03*
X010167Y007195D03*
X010482Y007195D03*
X010797Y007195D03*
X011112Y007195D03*
X011427Y007195D03*
D14*
X010346Y002689D03*
X010346Y001862D03*
X009933Y001094D03*
X010760Y001094D03*
X019598Y009933D03*
X018831Y010346D03*
X019598Y010760D03*
X018004Y010346D03*
X010346Y018004D03*
X010346Y018831D03*
X009933Y019598D03*
X010760Y019598D03*
X002689Y010346D03*
X001862Y010346D03*
X001094Y009933D03*
X001094Y010760D03*
D15*
G36*
X004059Y005002D02*
X004375Y004652D01*
X004025Y004336D01*
X003709Y004686D01*
X004059Y005002D01*
G37*
G36*
X004673Y005556D02*
X004989Y005206D01*
X004639Y004890D01*
X004323Y005240D01*
X004673Y005556D01*
G37*
G36*
X004203Y006174D02*
X004480Y005793D01*
X004099Y005516D01*
X003822Y005897D01*
X004203Y006174D01*
G37*
G36*
X003801Y006840D02*
X004037Y006432D01*
X003629Y006196D01*
X003393Y006604D01*
X003801Y006840D01*
G37*
G36*
X003470Y007543D02*
X003662Y007113D01*
X003232Y006921D01*
X003040Y007351D01*
X003470Y007543D01*
G37*
G36*
X003215Y008277D02*
X003361Y007829D01*
X002913Y007683D01*
X002767Y008131D01*
X003215Y008277D01*
G37*
G36*
X003037Y009033D02*
X003135Y008573D01*
X002675Y008475D01*
X002577Y008935D01*
X003037Y009033D01*
G37*
G36*
X002941Y009805D02*
X002990Y009336D01*
X002521Y009287D01*
X002472Y009756D01*
X002941Y009805D01*
G37*
G36*
X002119Y009719D02*
X002168Y009250D01*
X001699Y009201D01*
X001650Y009670D01*
X002119Y009719D01*
G37*
G36*
X002229Y008862D02*
X002327Y008402D01*
X001867Y008304D01*
X001769Y008764D01*
X002229Y008862D01*
G37*
G36*
X002428Y008022D02*
X002574Y007574D01*
X002126Y007428D01*
X001980Y007876D01*
X002428Y008022D01*
G37*
G36*
X002715Y007207D02*
X002907Y006777D01*
X002477Y006585D01*
X002285Y007015D01*
X002715Y007207D01*
G37*
G36*
X003085Y006426D02*
X003321Y006018D01*
X002913Y005782D01*
X002677Y006190D01*
X003085Y006426D01*
G37*
G36*
X001805Y006164D02*
X002213Y006400D01*
X002449Y005992D01*
X002041Y005756D01*
X001805Y006164D01*
G37*
G36*
X002219Y005448D02*
X002627Y005684D01*
X002863Y005276D01*
X002455Y005040D01*
X002219Y005448D01*
G37*
G36*
X003534Y005688D02*
X003811Y005307D01*
X003430Y005030D01*
X003153Y005411D01*
X003534Y005688D01*
G37*
G36*
X005206Y004989D02*
X005556Y004673D01*
X005240Y004323D01*
X004890Y004639D01*
X005206Y004989D01*
G37*
G36*
X005793Y004480D02*
X006174Y004203D01*
X005897Y003822D01*
X005516Y004099D01*
X005793Y004480D01*
G37*
G36*
X006432Y004037D02*
X006840Y003801D01*
X006604Y003393D01*
X006196Y003629D01*
X006432Y004037D01*
G37*
G36*
X007113Y003662D02*
X007543Y003470D01*
X007351Y003040D01*
X006921Y003232D01*
X007113Y003662D01*
G37*
G36*
X007829Y003361D02*
X008277Y003215D01*
X008131Y002767D01*
X007683Y002913D01*
X007829Y003361D01*
G37*
G36*
X006777Y002907D02*
X007207Y002715D01*
X007015Y002285D01*
X006585Y002477D01*
X006777Y002907D01*
G37*
G36*
X006018Y003321D02*
X006426Y003085D01*
X006190Y002677D01*
X005782Y002913D01*
X006018Y003321D01*
G37*
G36*
X005307Y003811D02*
X005688Y003534D01*
X005411Y003153D01*
X005030Y003430D01*
X005307Y003811D01*
G37*
G36*
X004652Y004375D02*
X005002Y004059D01*
X004686Y003709D01*
X004336Y004025D01*
X004652Y004375D01*
G37*
G36*
X005040Y002455D02*
X005276Y002863D01*
X005684Y002627D01*
X005448Y002219D01*
X005040Y002455D01*
G37*
G36*
X005756Y002041D02*
X005992Y002449D01*
X006400Y002213D01*
X006164Y001805D01*
X005756Y002041D01*
G37*
G36*
X007574Y002574D02*
X008022Y002428D01*
X007876Y001980D01*
X007428Y002126D01*
X007574Y002574D01*
G37*
G36*
X008402Y002327D02*
X008862Y002229D01*
X008764Y001769D01*
X008304Y001867D01*
X008402Y002327D01*
G37*
G36*
X008573Y003135D02*
X009033Y003037D01*
X008935Y002577D01*
X008475Y002675D01*
X008573Y003135D01*
G37*
G36*
X009336Y002990D02*
X009805Y002941D01*
X009756Y002472D01*
X009287Y002521D01*
X009336Y002990D01*
G37*
G36*
X009250Y002168D02*
X009719Y002119D01*
X009670Y001650D01*
X009201Y001699D01*
X009250Y002168D01*
G37*
G36*
X010888Y002941D02*
X011357Y002990D01*
X011406Y002521D01*
X010937Y002472D01*
X010888Y002941D01*
G37*
G36*
X011659Y003037D02*
X012119Y003135D01*
X012217Y002675D01*
X011757Y002577D01*
X011659Y003037D01*
G37*
G36*
X012416Y003215D02*
X012864Y003361D01*
X013010Y002913D01*
X012562Y002767D01*
X012416Y003215D01*
G37*
G36*
X012671Y002428D02*
X013119Y002574D01*
X013265Y002126D01*
X012817Y001980D01*
X012671Y002428D01*
G37*
G36*
X011831Y002229D02*
X012291Y002327D01*
X012389Y001867D01*
X011929Y001769D01*
X011831Y002229D01*
G37*
G36*
X010974Y002119D02*
X011443Y002168D01*
X011492Y001699D01*
X011023Y001650D01*
X010974Y002119D01*
G37*
G36*
X013150Y003470D02*
X013580Y003662D01*
X013772Y003232D01*
X013342Y003040D01*
X013150Y003470D01*
G37*
G36*
X013486Y002715D02*
X013916Y002907D01*
X014108Y002477D01*
X013678Y002285D01*
X013486Y002715D01*
G37*
G36*
X013853Y003801D02*
X014261Y004037D01*
X014497Y003629D01*
X014089Y003393D01*
X013853Y003801D01*
G37*
G36*
X014267Y003085D02*
X014675Y003321D01*
X014911Y002913D01*
X014503Y002677D01*
X014267Y003085D01*
G37*
G36*
X014528Y001805D02*
X014292Y002213D01*
X014700Y002449D01*
X014936Y002041D01*
X014528Y001805D01*
G37*
G36*
X015244Y002219D02*
X015008Y002627D01*
X015416Y002863D01*
X015652Y002455D01*
X015244Y002219D01*
G37*
G36*
X015005Y003534D02*
X015386Y003811D01*
X015663Y003430D01*
X015282Y003153D01*
X015005Y003534D01*
G37*
G36*
X014519Y004203D02*
X014900Y004480D01*
X015177Y004099D01*
X014796Y003822D01*
X014519Y004203D01*
G37*
G36*
X015137Y004673D02*
X015487Y004989D01*
X015803Y004639D01*
X015453Y004323D01*
X015137Y004673D01*
G37*
G36*
X015704Y005206D02*
X016020Y005556D01*
X016370Y005240D01*
X016054Y004890D01*
X015704Y005206D01*
G37*
G36*
X016213Y005793D02*
X016490Y006174D01*
X016871Y005897D01*
X016594Y005516D01*
X016213Y005793D01*
G37*
G36*
X016656Y006432D02*
X016892Y006840D01*
X017300Y006604D01*
X017064Y006196D01*
X016656Y006432D01*
G37*
G36*
X017031Y007113D02*
X017223Y007543D01*
X017653Y007351D01*
X017461Y006921D01*
X017031Y007113D01*
G37*
G36*
X017332Y007829D02*
X017478Y008277D01*
X017926Y008131D01*
X017780Y007683D01*
X017332Y007829D01*
G37*
G36*
X017786Y006777D02*
X017978Y007207D01*
X018408Y007015D01*
X018216Y006585D01*
X017786Y006777D01*
G37*
G36*
X017372Y006018D02*
X017608Y006426D01*
X018016Y006190D01*
X017780Y005782D01*
X017372Y006018D01*
G37*
G36*
X016881Y005307D02*
X017158Y005688D01*
X017539Y005411D01*
X017262Y005030D01*
X016881Y005307D01*
G37*
G36*
X016318Y004652D02*
X016634Y005002D01*
X016984Y004686D01*
X016668Y004336D01*
X016318Y004652D01*
G37*
G36*
X015690Y004059D02*
X016040Y004375D01*
X016356Y004025D01*
X016006Y003709D01*
X015690Y004059D01*
G37*
G36*
X018238Y005040D02*
X017830Y005276D01*
X018066Y005684D01*
X018474Y005448D01*
X018238Y005040D01*
G37*
G36*
X018652Y005756D02*
X018244Y005992D01*
X018480Y006400D01*
X018888Y006164D01*
X018652Y005756D01*
G37*
G36*
X018119Y007574D02*
X018265Y008022D01*
X018713Y007876D01*
X018567Y007428D01*
X018119Y007574D01*
G37*
G36*
X018366Y008402D02*
X018464Y008862D01*
X018924Y008764D01*
X018826Y008304D01*
X018366Y008402D01*
G37*
G36*
X017558Y008573D02*
X017656Y009033D01*
X018116Y008935D01*
X018018Y008475D01*
X017558Y008573D01*
G37*
G36*
X017703Y009336D02*
X017752Y009805D01*
X018221Y009756D01*
X018172Y009287D01*
X017703Y009336D01*
G37*
G36*
X018525Y009250D02*
X018574Y009719D01*
X019043Y009670D01*
X018994Y009201D01*
X018525Y009250D01*
G37*
G36*
X017752Y010888D02*
X017703Y011357D01*
X018172Y011406D01*
X018221Y010937D01*
X017752Y010888D01*
G37*
G36*
X017656Y011659D02*
X017558Y012119D01*
X018018Y012217D01*
X018116Y011757D01*
X017656Y011659D01*
G37*
G36*
X017478Y012416D02*
X017332Y012864D01*
X017780Y013010D01*
X017926Y012562D01*
X017478Y012416D01*
G37*
G36*
X017223Y013150D02*
X017031Y013580D01*
X017461Y013772D01*
X017653Y013342D01*
X017223Y013150D01*
G37*
G36*
X017978Y013486D02*
X017786Y013916D01*
X018216Y014108D01*
X018408Y013678D01*
X017978Y013486D01*
G37*
G36*
X018265Y012671D02*
X018119Y013119D01*
X018567Y013265D01*
X018713Y012817D01*
X018265Y012671D01*
G37*
G36*
X018464Y011831D02*
X018366Y012291D01*
X018826Y012389D01*
X018924Y011929D01*
X018464Y011831D01*
G37*
G36*
X018574Y010974D02*
X018525Y011443D01*
X018994Y011492D01*
X019043Y011023D01*
X018574Y010974D01*
G37*
G36*
X016892Y013853D02*
X016656Y014261D01*
X017064Y014497D01*
X017300Y014089D01*
X016892Y013853D01*
G37*
G36*
X017608Y014267D02*
X017372Y014675D01*
X017780Y014911D01*
X018016Y014503D01*
X017608Y014267D01*
G37*
G36*
X018888Y014528D02*
X018480Y014292D01*
X018244Y014700D01*
X018652Y014936D01*
X018888Y014528D01*
G37*
G36*
X018474Y015244D02*
X018066Y015008D01*
X017830Y015416D01*
X018238Y015652D01*
X018474Y015244D01*
G37*
G36*
X017158Y015005D02*
X016881Y015386D01*
X017262Y015663D01*
X017539Y015282D01*
X017158Y015005D01*
G37*
G36*
X016490Y014519D02*
X016213Y014900D01*
X016594Y015177D01*
X016871Y014796D01*
X016490Y014519D01*
G37*
G36*
X016020Y015137D02*
X015704Y015487D01*
X016054Y015803D01*
X016370Y015453D01*
X016020Y015137D01*
G37*
G36*
X015487Y015704D02*
X015137Y016020D01*
X015453Y016370D01*
X015803Y016054D01*
X015487Y015704D01*
G37*
G36*
X014900Y016213D02*
X014519Y016490D01*
X014796Y016871D01*
X015177Y016594D01*
X014900Y016213D01*
G37*
G36*
X014261Y016656D02*
X013853Y016892D01*
X014089Y017300D01*
X014497Y017064D01*
X014261Y016656D01*
G37*
G36*
X013580Y017031D02*
X013150Y017223D01*
X013342Y017653D01*
X013772Y017461D01*
X013580Y017031D01*
G37*
G36*
X012864Y017332D02*
X012416Y017478D01*
X012562Y017926D01*
X013010Y017780D01*
X012864Y017332D01*
G37*
G36*
X013916Y017786D02*
X013486Y017978D01*
X013678Y018408D01*
X014108Y018216D01*
X013916Y017786D01*
G37*
G36*
X014675Y017372D02*
X014267Y017608D01*
X014503Y018016D01*
X014911Y017780D01*
X014675Y017372D01*
G37*
G36*
X015386Y016881D02*
X015005Y017158D01*
X015282Y017539D01*
X015663Y017262D01*
X015386Y016881D01*
G37*
G36*
X016040Y016318D02*
X015690Y016634D01*
X016006Y016984D01*
X016356Y016668D01*
X016040Y016318D01*
G37*
G36*
X016634Y015690D02*
X016318Y016040D01*
X016668Y016356D01*
X016984Y016006D01*
X016634Y015690D01*
G37*
G36*
X015652Y018238D02*
X015416Y017830D01*
X015008Y018066D01*
X015244Y018474D01*
X015652Y018238D01*
G37*
G36*
X014936Y018652D02*
X014700Y018244D01*
X014292Y018480D01*
X014528Y018888D01*
X014936Y018652D01*
G37*
G36*
X013119Y018119D02*
X012671Y018265D01*
X012817Y018713D01*
X013265Y018567D01*
X013119Y018119D01*
G37*
G36*
X012291Y018366D02*
X011831Y018464D01*
X011929Y018924D01*
X012389Y018826D01*
X012291Y018366D01*
G37*
G36*
X012119Y017558D02*
X011659Y017656D01*
X011757Y018116D01*
X012217Y018018D01*
X012119Y017558D01*
G37*
G36*
X011357Y017703D02*
X010888Y017752D01*
X010937Y018221D01*
X011406Y018172D01*
X011357Y017703D01*
G37*
G36*
X011443Y018525D02*
X010974Y018574D01*
X011023Y019043D01*
X011492Y018994D01*
X011443Y018525D01*
G37*
G36*
X009805Y017752D02*
X009336Y017703D01*
X009287Y018172D01*
X009756Y018221D01*
X009805Y017752D01*
G37*
G36*
X009033Y017656D02*
X008573Y017558D01*
X008475Y018018D01*
X008935Y018116D01*
X009033Y017656D01*
G37*
G36*
X008277Y017478D02*
X007829Y017332D01*
X007683Y017780D01*
X008131Y017926D01*
X008277Y017478D01*
G37*
G36*
X008022Y018265D02*
X007574Y018119D01*
X007428Y018567D01*
X007876Y018713D01*
X008022Y018265D01*
G37*
G36*
X008862Y018464D02*
X008402Y018366D01*
X008304Y018826D01*
X008764Y018924D01*
X008862Y018464D01*
G37*
G36*
X009719Y018574D02*
X009250Y018525D01*
X009201Y018994D01*
X009670Y019043D01*
X009719Y018574D01*
G37*
G36*
X007543Y017223D02*
X007113Y017031D01*
X006921Y017461D01*
X007351Y017653D01*
X007543Y017223D01*
G37*
G36*
X007207Y017978D02*
X006777Y017786D01*
X006585Y018216D01*
X007015Y018408D01*
X007207Y017978D01*
G37*
G36*
X006840Y016892D02*
X006432Y016656D01*
X006196Y017064D01*
X006604Y017300D01*
X006840Y016892D01*
G37*
G36*
X006426Y017608D02*
X006018Y017372D01*
X005782Y017780D01*
X006190Y018016D01*
X006426Y017608D01*
G37*
G36*
X006164Y018888D02*
X006400Y018480D01*
X005992Y018244D01*
X005756Y018652D01*
X006164Y018888D01*
G37*
G36*
X005448Y018474D02*
X005684Y018066D01*
X005276Y017830D01*
X005040Y018238D01*
X005448Y018474D01*
G37*
G36*
X005688Y017158D02*
X005307Y016881D01*
X005030Y017262D01*
X005411Y017539D01*
X005688Y017158D01*
G37*
G36*
X006174Y016490D02*
X005793Y016213D01*
X005516Y016594D01*
X005897Y016871D01*
X006174Y016490D01*
G37*
G36*
X005556Y016020D02*
X005206Y015704D01*
X004890Y016054D01*
X005240Y016370D01*
X005556Y016020D01*
G37*
G36*
X004989Y015487D02*
X004673Y015137D01*
X004323Y015453D01*
X004639Y015803D01*
X004989Y015487D01*
G37*
G36*
X004480Y014900D02*
X004203Y014519D01*
X003822Y014796D01*
X004099Y015177D01*
X004480Y014900D01*
G37*
G36*
X004037Y014261D02*
X003801Y013853D01*
X003393Y014089D01*
X003629Y014497D01*
X004037Y014261D01*
G37*
G36*
X003662Y013580D02*
X003470Y013150D01*
X003040Y013342D01*
X003232Y013772D01*
X003662Y013580D01*
G37*
G36*
X003361Y012864D02*
X003215Y012416D01*
X002767Y012562D01*
X002913Y013010D01*
X003361Y012864D01*
G37*
G36*
X002907Y013916D02*
X002715Y013486D01*
X002285Y013678D01*
X002477Y014108D01*
X002907Y013916D01*
G37*
G36*
X003321Y014675D02*
X003085Y014267D01*
X002677Y014503D01*
X002913Y014911D01*
X003321Y014675D01*
G37*
G36*
X003811Y015386D02*
X003534Y015005D01*
X003153Y015282D01*
X003430Y015663D01*
X003811Y015386D01*
G37*
G36*
X004375Y016040D02*
X004059Y015690D01*
X003709Y016006D01*
X004025Y016356D01*
X004375Y016040D01*
G37*
G36*
X005002Y016634D02*
X004652Y016318D01*
X004336Y016668D01*
X004686Y016984D01*
X005002Y016634D01*
G37*
G36*
X002455Y015652D02*
X002863Y015416D01*
X002627Y015008D01*
X002219Y015244D01*
X002455Y015652D01*
G37*
G36*
X002041Y014936D02*
X002449Y014700D01*
X002213Y014292D01*
X001805Y014528D01*
X002041Y014936D01*
G37*
G36*
X002574Y013119D02*
X002428Y012671D01*
X001980Y012817D01*
X002126Y013265D01*
X002574Y013119D01*
G37*
G36*
X002327Y012291D02*
X002229Y011831D01*
X001769Y011929D01*
X001867Y012389D01*
X002327Y012291D01*
G37*
G36*
X003135Y012119D02*
X003037Y011659D01*
X002577Y011757D01*
X002675Y012217D01*
X003135Y012119D01*
G37*
G36*
X002990Y011357D02*
X002941Y010888D01*
X002472Y010937D01*
X002521Y011406D01*
X002990Y011357D01*
G37*
G36*
X002168Y011443D02*
X002119Y010974D01*
X001650Y011023D01*
X001699Y011492D01*
X002168Y011443D01*
G37*
M02*
