G04 This is an RS-274x file exported by *
G04 gerbv version 2.5.0 *
G04 More information is available about gerbv at *
G04 http://gerbv.gpleda.org/ *
G04 --End of header info--*
%MOIN*%
%FSLAX23Y23*%
%IPPOS*%
G04 --Define apertures--*
%ADD10C,0.0004*%
%ADD11C,0.0000*%
%ADD12C,0.0906*%
%ADD13R,0.0260X0.0540*%
%ADD14R,0.0540X0.0260*%
%ADD15R,0.0780X0.0780*%
%AMMACRO16*
5,1,8,0.000000,0.000000,0.084426,22.500000*
%
%ADD16MACRO16*%
%ADD17C,0.0394*%
%ADD18R,0.0512X0.0512*%
%ADD19R,0.0512X0.0512*%
G04 --Start main section--*
G54D10*
G01X00016Y01030D02*
G01X00017Y01078D01*
G01X00017Y01078D02*
G01X00021Y01126D01*
G01X00021Y01126D02*
G01X00027Y01174D01*
G01X00027Y01174D02*
G01X00035Y01222D01*
G01X00035Y01222D02*
G01X00046Y01269D01*
G01X00046Y01269D02*
G01X00059Y01315D01*
G01X00059Y01315D02*
G01X00074Y01361D01*
G01X00074Y01361D02*
G01X00091Y01406D01*
G01X00091Y01406D02*
G01X00111Y01450D01*
G01X00111Y01450D02*
G01X00132Y01494D01*
G01X00132Y01494D02*
G01X00156Y01536D01*
G01X00156Y01536D02*
G01X00182Y01576D01*
G01X00182Y01576D02*
G01X00210Y01616D01*
G01X00210Y01616D02*
G01X00240Y01654D01*
G01X00240Y01654D02*
G01X00271Y01691D01*
G01X00271Y01691D02*
G01X00304Y01726D01*
G01X00304Y01726D02*
G01X00339Y01759D01*
G01X00339Y01759D02*
G01X00376Y01791D01*
G01X00376Y01791D02*
G01X00414Y01820D01*
G01X00414Y01820D02*
G01X00454Y01848D01*
G01X00454Y01848D02*
G01X00494Y01874D01*
G01X00494Y01874D02*
G01X00536Y01898D01*
G01X00536Y01898D02*
G01X00580Y01919D01*
G01X00580Y01919D02*
G01X00624Y01939D01*
G01X00624Y01939D02*
G01X00669Y01956D01*
G01X00669Y01956D02*
G01X00715Y01972D01*
G01X00715Y01972D02*
G01X00761Y01984D01*
G01X00761Y01984D02*
G01X00808Y01995D01*
G01X00808Y01995D02*
G01X00856Y02003D01*
G01X00856Y02003D02*
G01X00904Y02009D01*
G01X00904Y02009D02*
G01X00952Y02013D01*
G01X00952Y02013D02*
G01X01000Y02014D01*
G01X01000Y02014D02*
G01X01049Y02013D01*
G01X01049Y02013D02*
G01X01097Y02009D01*
G01X01097Y02009D02*
G01X01145Y02003D01*
G01X01145Y02003D02*
G01X01192Y01995D01*
G01X01192Y01995D02*
G01X01240Y01984D01*
G01X01240Y01984D02*
G01X01286Y01972D01*
G01X01286Y01972D02*
G01X01332Y01956D01*
G01X01332Y01956D02*
G01X01377Y01939D01*
G01X01377Y01939D02*
G01X01421Y01919D01*
G01X01421Y01919D02*
G01X01464Y01898D01*
G01X01464Y01898D02*
G01X01506Y01874D01*
G01X01506Y01874D02*
G01X01547Y01848D01*
G01X01547Y01848D02*
G01X01587Y01820D01*
G01X01587Y01820D02*
G01X01625Y01791D01*
G01X01625Y01791D02*
G01X01661Y01759D01*
G01X01661Y01759D02*
G01X01696Y01726D01*
G01X01696Y01726D02*
G01X01730Y01691D01*
G01X01730Y01691D02*
G01X01761Y01654D01*
G01X01761Y01654D02*
G01X01791Y01616D01*
G01X01791Y01616D02*
G01X01819Y01576D01*
G01X01819Y01576D02*
G01X01845Y01536D01*
G01X01845Y01536D02*
G01X01869Y01494D01*
G01X01869Y01494D02*
G01X01890Y01450D01*
G01X01890Y01450D02*
G01X01910Y01406D01*
G01X01910Y01406D02*
G01X01927Y01361D01*
G01X01927Y01361D02*
G01X01942Y01315D01*
G01X01942Y01315D02*
G01X01955Y01269D01*
G01X01955Y01269D02*
G01X01966Y01222D01*
G01X01966Y01222D02*
G01X01974Y01174D01*
G01X01974Y01174D02*
G01X01980Y01126D01*
G01X01980Y01126D02*
G01X01984Y01078D01*
G01X01984Y01078D02*
G01X01985Y01030D01*
G01X01985Y01030D02*
G01X01984Y00981D01*
G01X01984Y00981D02*
G01X01980Y00933D01*
G01X01980Y00933D02*
G01X01974Y00885D01*
G01X01974Y00885D02*
G01X01966Y00838D01*
G01X01966Y00838D02*
G01X01955Y00790D01*
G01X01955Y00790D02*
G01X01942Y00744D01*
G01X01942Y00744D02*
G01X01927Y00698D01*
G01X01927Y00698D02*
G01X01910Y00653D01*
G01X01910Y00653D02*
G01X01890Y00609D01*
G01X01890Y00609D02*
G01X01869Y00566D01*
G01X01869Y00566D02*
G01X01845Y00524D01*
G01X01845Y00524D02*
G01X01819Y00483D01*
G01X01819Y00483D02*
G01X01791Y00443D01*
G01X01791Y00443D02*
G01X01761Y00405D01*
G01X01761Y00405D02*
G01X01730Y00369D01*
G01X01730Y00369D02*
G01X01696Y00334D01*
G01X01696Y00334D02*
G01X01661Y00300D01*
G01X01661Y00300D02*
G01X01625Y00269D01*
G01X01625Y00269D02*
G01X01587Y00239D01*
G01X01587Y00239D02*
G01X01547Y00211D01*
G01X01547Y00211D02*
G01X01506Y00185D01*
G01X01506Y00185D02*
G01X01464Y00162D01*
G01X01464Y00162D02*
G01X01421Y00140D01*
G01X01421Y00140D02*
G01X01377Y00120D01*
G01X01377Y00120D02*
G01X01332Y00103D01*
G01X01332Y00103D02*
G01X01286Y00088D01*
G01X01286Y00088D02*
G01X01240Y00075D01*
G01X01240Y00075D02*
G01X01192Y00064D01*
G01X01192Y00064D02*
G01X01145Y00056D01*
G01X01145Y00056D02*
G01X01097Y00050D01*
G01X01097Y00050D02*
G01X01049Y00047D01*
G01X01049Y00047D02*
G01X01000Y00045D01*
G01X01000Y00045D02*
G01X00952Y00047D01*
G01X00952Y00047D02*
G01X00904Y00050D01*
G01X00904Y00050D02*
G01X00856Y00056D01*
G01X00856Y00056D02*
G01X00808Y00064D01*
G01X00808Y00064D02*
G01X00761Y00075D01*
G01X00761Y00075D02*
G01X00715Y00088D01*
G01X00715Y00088D02*
G01X00669Y00103D01*
G01X00669Y00103D02*
G01X00624Y00120D01*
G01X00624Y00120D02*
G01X00580Y00140D01*
G01X00580Y00140D02*
G01X00536Y00162D01*
G01X00536Y00162D02*
G01X00494Y00185D01*
G01X00494Y00185D02*
G01X00454Y00211D01*
G01X00454Y00211D02*
G01X00414Y00239D01*
G01X00414Y00239D02*
G01X00376Y00269D01*
G01X00376Y00269D02*
G01X00339Y00300D01*
G01X00339Y00300D02*
G01X00304Y00334D01*
G01X00304Y00334D02*
G01X00271Y00369D01*
G01X00271Y00369D02*
G01X00240Y00405D01*
G01X00240Y00405D02*
G01X00210Y00443D01*
G01X00210Y00443D02*
G01X00182Y00483D01*
G01X00182Y00483D02*
G01X00156Y00524D01*
G01X00156Y00524D02*
G01X00132Y00566D01*
G01X00132Y00566D02*
G01X00111Y00609D01*
G01X00111Y00609D02*
G01X00091Y00653D01*
G01X00091Y00653D02*
G01X00074Y00698D01*
G01X00074Y00698D02*
G01X00059Y00744D01*
G01X00059Y00744D02*
G01X00046Y00790D01*
G01X00046Y00790D02*
G01X00035Y00838D01*
G01X00035Y00838D02*
G01X00027Y00885D01*
G01X00027Y00885D02*
G01X00021Y00933D01*
G01X00021Y00933D02*
G01X00017Y00981D01*
G01X00017Y00981D02*
G01X00016Y01030D01*
G54D11*
G01X00957Y01305D02*
G01X00957Y01309D01*
G01X00957Y01309D02*
G01X00958Y01313D01*
G01X00958Y01313D02*
G01X00959Y01317D01*
G01X00959Y01317D02*
G01X00960Y01321D01*
G01X00960Y01321D02*
G01X00962Y01325D01*
G01X00962Y01325D02*
G01X00964Y01329D01*
G01X00964Y01329D02*
G01X00966Y01332D01*
G01X00966Y01332D02*
G01X00969Y01335D01*
G01X00969Y01335D02*
G01X00972Y01338D01*
G01X00972Y01338D02*
G01X00975Y01341D01*
G01X00975Y01341D02*
G01X00979Y01343D01*
G01X00979Y01343D02*
G01X00982Y01345D01*
G01X00982Y01345D02*
G01X00986Y01346D01*
G01X00986Y01346D02*
G01X00990Y01347D01*
G01X00990Y01347D02*
G01X00994Y01348D01*
G01X00994Y01348D02*
G01X00998Y01349D01*
G01X00998Y01349D02*
G01X01003Y01349D01*
G01X01003Y01349D02*
G01X01007Y01348D01*
G01X01007Y01348D02*
G01X01011Y01347D01*
G01X01011Y01347D02*
G01X01015Y01346D01*
G01X01015Y01346D02*
G01X01018Y01345D01*
G01X01018Y01345D02*
G01X01022Y01343D01*
G01X01022Y01343D02*
G01X01026Y01341D01*
G01X01026Y01341D02*
G01X01029Y01338D01*
G01X01029Y01338D02*
G01X01032Y01335D01*
G01X01032Y01335D02*
G01X01034Y01332D01*
G01X01034Y01332D02*
G01X01037Y01329D01*
G01X01037Y01329D02*
G01X01039Y01325D01*
G01X01039Y01325D02*
G01X01041Y01321D01*
G01X01041Y01321D02*
G01X01042Y01317D01*
G01X01042Y01317D02*
G01X01043Y01313D01*
G01X01043Y01313D02*
G01X01044Y01309D01*
G01X01044Y01309D02*
G01X01044Y01305D01*
G01X01044Y01305D02*
G01X01044Y01301D01*
G01X01044Y01301D02*
G01X01043Y01297D01*
G01X01043Y01297D02*
G01X01042Y01293D01*
G01X01042Y01293D02*
G01X01041Y01289D01*
G01X01041Y01289D02*
G01X01039Y01285D01*
G01X01039Y01285D02*
G01X01037Y01282D01*
G01X01037Y01282D02*
G01X01034Y01278D01*
G01X01034Y01278D02*
G01X01032Y01275D01*
G01X01032Y01275D02*
G01X01029Y01273D01*
G01X01029Y01273D02*
G01X01026Y01270D01*
G01X01026Y01270D02*
G01X01022Y01268D01*
G01X01022Y01268D02*
G01X01018Y01266D01*
G01X01018Y01266D02*
G01X01015Y01264D01*
G01X01015Y01264D02*
G01X01011Y01263D01*
G01X01011Y01263D02*
G01X01007Y01262D01*
G01X01007Y01262D02*
G01X01003Y01262D01*
G01X01003Y01262D02*
G01X00998Y01262D01*
G01X00998Y01262D02*
G01X00994Y01262D01*
G01X00994Y01262D02*
G01X00990Y01263D01*
G01X00990Y01263D02*
G01X00986Y01264D01*
G01X00986Y01264D02*
G01X00982Y01266D01*
G01X00982Y01266D02*
G01X00979Y01268D01*
G01X00979Y01268D02*
G01X00975Y01270D01*
G01X00975Y01270D02*
G01X00972Y01273D01*
G01X00972Y01273D02*
G01X00969Y01275D01*
G01X00969Y01275D02*
G01X00966Y01278D01*
G01X00966Y01278D02*
G01X00964Y01282D01*
G01X00964Y01282D02*
G01X00962Y01285D01*
G01X00962Y01285D02*
G01X00960Y01289D01*
G01X00960Y01289D02*
G01X00959Y01293D01*
G01X00959Y01293D02*
G01X00958Y01297D01*
G01X00958Y01297D02*
G01X00957Y01301D01*
G01X00957Y01301D02*
G01X00957Y01305D01*
G01X00896Y00301D02*
G01X00896Y00304D01*
G01X00896Y00304D02*
G01X00897Y00307D01*
G01X00897Y00307D02*
G01X00898Y00309D01*
G01X00898Y00309D02*
G01X00899Y00311D01*
G01X00899Y00311D02*
G01X00901Y00313D01*
G01X00901Y00313D02*
G01X00903Y00315D01*
G01X00903Y00315D02*
G01X00905Y00317D01*
G01X00905Y00317D02*
G01X00907Y00318D01*
G01X00907Y00318D02*
G01X00910Y00319D01*
G01X00910Y00319D02*
G01X00913Y00319D01*
G01X00913Y00319D02*
G01X00915Y00319D01*
G01X00915Y00319D02*
G01X00918Y00319D01*
G01X00918Y00319D02*
G01X00920Y00318D01*
G01X00920Y00318D02*
G01X00923Y00317D01*
G01X00923Y00317D02*
G01X00925Y00315D01*
G01X00925Y00315D02*
G01X00927Y00313D01*
G01X00927Y00313D02*
G01X00928Y00311D01*
G01X00928Y00311D02*
G01X00930Y00309D01*
G01X00930Y00309D02*
G01X00931Y00307D01*
G01X00931Y00307D02*
G01X00931Y00304D01*
G01X00931Y00304D02*
G01X00932Y00301D01*
G01X00932Y00301D02*
G01X00931Y00299D01*
G01X00931Y00299D02*
G01X00931Y00296D01*
G01X00931Y00296D02*
G01X00930Y00294D01*
G01X00930Y00294D02*
G01X00928Y00291D01*
G01X00928Y00291D02*
G01X00927Y00289D01*
G01X00927Y00289D02*
G01X00925Y00288D01*
G01X00925Y00288D02*
G01X00923Y00286D01*
G01X00923Y00286D02*
G01X00920Y00285D01*
G01X00920Y00285D02*
G01X00918Y00284D01*
G01X00918Y00284D02*
G01X00915Y00284D01*
G01X00915Y00284D02*
G01X00913Y00284D01*
G01X00913Y00284D02*
G01X00910Y00284D01*
G01X00910Y00284D02*
G01X00907Y00285D01*
G01X00907Y00285D02*
G01X00905Y00286D01*
G01X00905Y00286D02*
G01X00903Y00288D01*
G01X00903Y00288D02*
G01X00901Y00289D01*
G01X00901Y00289D02*
G01X00899Y00291D01*
G01X00899Y00291D02*
G01X00898Y00294D01*
G01X00898Y00294D02*
G01X00897Y00296D01*
G01X00897Y00296D02*
G01X00896Y00299D01*
G01X00896Y00299D02*
G01X00896Y00301D01*
G01X01069Y00301D02*
G01X01070Y00304D01*
G01X01070Y00304D02*
G01X01070Y00307D01*
G01X01070Y00307D02*
G01X01071Y00309D01*
G01X01071Y00309D02*
G01X01072Y00311D01*
G01X01072Y00311D02*
G01X01074Y00313D01*
G01X01074Y00313D02*
G01X01076Y00315D01*
G01X01076Y00315D02*
G01X01078Y00317D01*
G01X01078Y00317D02*
G01X01081Y00318D01*
G01X01081Y00318D02*
G01X01083Y00319D01*
G01X01083Y00319D02*
G01X01086Y00319D01*
G01X01086Y00319D02*
G01X01088Y00319D01*
G01X01088Y00319D02*
G01X01091Y00319D01*
G01X01091Y00319D02*
G01X01094Y00318D01*
G01X01094Y00318D02*
G01X01096Y00317D01*
G01X01096Y00317D02*
G01X01098Y00315D01*
G01X01098Y00315D02*
G01X01100Y00313D01*
G01X01100Y00313D02*
G01X01102Y00311D01*
G01X01102Y00311D02*
G01X01103Y00309D01*
G01X01103Y00309D02*
G01X01104Y00307D01*
G01X01104Y00307D02*
G01X01105Y00304D01*
G01X01105Y00304D02*
G01X01105Y00301D01*
G01X01105Y00301D02*
G01X01105Y00299D01*
G01X01105Y00299D02*
G01X01104Y00296D01*
G01X01104Y00296D02*
G01X01103Y00294D01*
G01X01103Y00294D02*
G01X01102Y00291D01*
G01X01102Y00291D02*
G01X01100Y00289D01*
G01X01100Y00289D02*
G01X01098Y00288D01*
G01X01098Y00288D02*
G01X01096Y00286D01*
G01X01096Y00286D02*
G01X01094Y00285D01*
G01X01094Y00285D02*
G01X01091Y00284D01*
G01X01091Y00284D02*
G01X01088Y00284D01*
G01X01088Y00284D02*
G01X01086Y00284D01*
G01X01086Y00284D02*
G01X01083Y00284D01*
G01X01083Y00284D02*
G01X01081Y00285D01*
G01X01081Y00285D02*
G01X01078Y00286D01*
G01X01078Y00286D02*
G01X01076Y00288D01*
G01X01076Y00288D02*
G01X01074Y00289D01*
G01X01074Y00289D02*
G01X01072Y00291D01*
G01X01072Y00291D02*
G01X01071Y00294D01*
G01X01071Y00294D02*
G01X01070Y00296D01*
G01X01070Y00296D02*
G01X01070Y00299D01*
G01X01070Y00299D02*
G01X01069Y00301D01*
G54D12*
G01X01000Y01305D03*
G54D13*
G01X01010Y01052D03*
G01X00979Y01052D03*
G01X00947Y01052D03*
G01X00916Y01052D03*
G01X00884Y01052D03*
G01X01042Y01052D03*
G01X01073Y01052D03*
G01X01105Y01052D03*
G01X01105Y00714D03*
G01X01073Y00714D03*
G01X01042Y00714D03*
G01X01010Y00714D03*
G01X00979Y00714D03*
G01X00947Y00714D03*
G01X00916Y00714D03*
G01X00884Y00714D03*
G54D14*
G01X00825Y00773D03*
G01X00825Y00805D03*
G01X00825Y00836D03*
G01X00825Y00868D03*
G01X00825Y00899D03*
G01X00825Y00931D03*
G01X00825Y00962D03*
G01X00825Y00994D03*
G01X01163Y00994D03*
G01X01163Y00962D03*
G01X01163Y00931D03*
G01X01163Y00899D03*
G01X01163Y00868D03*
G01X01163Y00836D03*
G01X01163Y00805D03*
G01X01163Y00773D03*
G54D17*
G01X01087Y00301D03*
G01X00914Y00301D03*
G54D18*
G01X00959Y00321D03*
G01X01042Y00321D03*
G01X01000Y00185D03*
G01X01000Y00102D03*
G01X01709Y00988D03*
G01X01709Y01071D03*
G01X01845Y01030D03*
G01X01928Y01030D03*
G01X01042Y01738D03*
G01X00959Y01738D03*
G01X01000Y01874D03*
G01X01000Y01957D03*
G01X00292Y01071D03*
G01X00292Y00988D03*
G01X00156Y01030D03*
G01X00073Y01030D03*
G54D19*
G36*
G01X00461Y00244D02*
G01X00420Y00274D01*
G01X00450Y00315D01*
G01X00491Y00285D01*
G01X00461Y00244D01*
G37*
G36*
G01X00546Y00192D02*
G01X00502Y00217D01*
G01X00528Y00262D01*
G01X00572Y00236D01*
G01X00546Y00192D01*
G37*
G36*
G01X00636Y00149D02*
G01X00590Y00170D01*
G01X00610Y00216D01*
G01X00657Y00196D01*
G01X00636Y00149D01*
G37*
G36*
G01X00730Y00116D02*
G01X00682Y00131D01*
G01X00698Y00180D01*
G01X00746Y00164D01*
G01X00730Y00116D01*
G37*
G36*
G01X00827Y00092D02*
G01X00777Y00103D01*
G01X00788Y00153D01*
G01X00838Y00142D01*
G01X00827Y00092D01*
G37*
G36*
G01X00926Y00079D02*
G01X00875Y00085D01*
G01X00881Y00136D01*
G01X00932Y00130D01*
G01X00926Y00079D01*
G37*
G36*
G01X00935Y00162D02*
G01X00884Y00167D01*
G01X00889Y00218D01*
G01X00940Y00212D01*
G01X00935Y00162D01*
G37*
G36*
G01X00845Y00173D02*
G01X00795Y00184D01*
G01X00805Y00234D01*
G01X00855Y00223D01*
G01X00845Y00173D01*
G37*
G36*
G01X00756Y00194D02*
G01X00707Y00210D01*
G01X00723Y00259D01*
G01X00772Y00243D01*
G01X00756Y00194D01*
G37*
G36*
G01X00670Y00224D02*
G01X00623Y00245D01*
G01X00644Y00292D01*
G01X00691Y00271D01*
G01X00670Y00224D01*
G37*
G36*
G01X00587Y00263D02*
G01X00543Y00289D01*
G01X00569Y00333D01*
G01X00613Y00308D01*
G01X00587Y00263D01*
G37*
G36*
G01X00510Y00311D02*
G01X00468Y00341D01*
G01X00498Y00382D01*
G01X00540Y00352D01*
G01X00510Y00311D01*
G37*
G36*
G01X00437Y00366D02*
G01X00399Y00400D01*
G01X00434Y00438D01*
G01X00471Y00404D01*
G01X00437Y00366D01*
G37*
G36*
G01X00382Y00305D02*
G01X00344Y00339D01*
G01X00378Y00377D01*
G01X00416Y00342D01*
G01X00382Y00305D01*
G37*
G36*
G01X00310Y00373D02*
G01X00275Y00411D01*
G01X00313Y00445D01*
G01X00348Y00407D01*
G01X00310Y00373D01*
G37*
G36*
G01X00371Y00428D02*
G01X00337Y00466D01*
G01X00375Y00501D01*
G01X00409Y00463D01*
G01X00371Y00428D01*
G37*
G36*
G01X00245Y00449D02*
G01X00215Y00490D01*
G01X00256Y00520D01*
G01X00286Y00479D01*
G01X00245Y00449D01*
G37*
G36*
G01X00312Y00498D02*
G01X00282Y00539D01*
G01X00323Y00569D01*
G01X00353Y00528D01*
G01X00312Y00498D01*
G37*
G36*
G01X00188Y00531D02*
G01X00163Y00575D01*
G01X00207Y00601D01*
G01X00232Y00557D01*
G01X00188Y00531D01*
G37*
G36*
G01X00260Y00573D02*
G01X00234Y00617D01*
G01X00278Y00642D01*
G01X00304Y00598D01*
G01X00260Y00573D01*
G37*
G36*
G01X00141Y00619D02*
G01X00120Y00665D01*
G01X00166Y00686D01*
G01X00187Y00640D01*
G01X00141Y00619D01*
G37*
G36*
G01X00216Y00652D02*
G01X00195Y00699D01*
G01X00242Y00720D01*
G01X00263Y00673D01*
G01X00216Y00652D01*
G37*
G36*
G01X00102Y00711D02*
G01X00086Y00760D01*
G01X00135Y00775D01*
G01X00151Y00727D01*
G01X00102Y00711D01*
G37*
G36*
G01X00181Y00736D02*
G01X00165Y00785D01*
G01X00214Y00801D01*
G01X00229Y00752D01*
G01X00181Y00736D01*
G37*
G36*
G01X00074Y00807D02*
G01X00063Y00857D01*
G01X00113Y00867D01*
G01X00124Y00817D01*
G01X00074Y00807D01*
G37*
G36*
G01X00155Y00824D02*
G01X00144Y00874D01*
G01X00194Y00884D01*
G01X00205Y00834D01*
G01X00155Y00824D01*
G37*
G36*
G01X00056Y00905D02*
G01X00050Y00955D01*
G01X00101Y00961D01*
G01X00106Y00910D01*
G01X00056Y00905D01*
G37*
G36*
G01X00138Y00913D02*
G01X00132Y00964D01*
G01X00183Y00969D01*
G01X00189Y00919D01*
G01X00138Y00913D01*
G37*
G36*
G01X00401Y00702D02*
G01X00357Y00676D01*
G01X00331Y00720D01*
G01X00375Y00746D01*
G01X00401Y00702D01*
G37*
G36*
G01X00442Y00630D02*
G01X00398Y00605D01*
G01X00372Y00649D01*
G01X00417Y00674D01*
G01X00442Y00630D01*
G37*
G36*
G01X00645Y00446D02*
G01X00620Y00402D01*
G01X00575Y00427D01*
G01X00601Y00472D01*
G01X00645Y00446D01*
G37*
G36*
G01X00717Y00405D02*
G01X00691Y00360D01*
G01X00647Y00386D01*
G01X00673Y00430D01*
G01X00717Y00405D01*
G37*
G36*
G01X01117Y00167D02*
G01X01066Y00162D01*
G01X01061Y00212D01*
G01X01111Y00218D01*
G01X01117Y00167D01*
G37*
G36*
G01X01206Y00184D02*
G01X01156Y00173D01*
G01X01146Y00223D01*
G01X01196Y00234D01*
G01X01206Y00184D01*
G37*
G36*
G01X01294Y00210D02*
G01X01245Y00194D01*
G01X01229Y00243D01*
G01X01278Y00259D01*
G01X01294Y00210D01*
G37*
G36*
G01X01378Y00245D02*
G01X01331Y00224D01*
G01X01310Y00271D01*
G01X01357Y00292D01*
G01X01378Y00245D01*
G37*
G36*
G01X01458Y00289D02*
G01X01413Y00263D01*
G01X01388Y00308D01*
G01X01432Y00333D01*
G01X01458Y00289D01*
G37*
G36*
G01X01499Y00217D02*
G01X01455Y00192D01*
G01X01429Y00236D01*
G01X01473Y00262D01*
G01X01499Y00217D01*
G37*
G36*
G01X01581Y00274D02*
G01X01540Y00244D01*
G01X01510Y00285D01*
G01X01551Y00315D01*
G01X01581Y00274D01*
G37*
G36*
G01X01657Y00339D02*
G01X01619Y00305D01*
G01X01585Y00342D01*
G01X01623Y00377D01*
G01X01657Y00339D01*
G37*
G36*
G01X01602Y00400D02*
G01X01564Y00366D01*
G01X01529Y00404D01*
G01X01567Y00438D01*
G01X01602Y00400D01*
G37*
G36*
G01X01664Y00466D02*
G01X01630Y00428D01*
G01X01592Y00463D01*
G01X01626Y00501D01*
G01X01664Y00466D01*
G37*
G36*
G01X01726Y00411D02*
G01X01691Y00373D01*
G01X01653Y00407D01*
G01X01688Y00445D01*
G01X01726Y00411D01*
G37*
G36*
G01X01786Y00490D02*
G01X01756Y00449D01*
G01X01715Y00479D01*
G01X01745Y00520D01*
G01X01786Y00490D01*
G37*
G36*
G01X01838Y00575D02*
G01X01813Y00531D01*
G01X01768Y00557D01*
G01X01794Y00601D01*
G01X01838Y00575D01*
G37*
G36*
G01X01881Y00665D02*
G01X01860Y00619D01*
G01X01814Y00640D01*
G01X01835Y00686D01*
G01X01881Y00665D01*
G37*
G36*
G01X01914Y00760D02*
G01X01899Y00711D01*
G01X01850Y00727D01*
G01X01866Y00775D01*
G01X01914Y00760D01*
G37*
G36*
G01X01938Y00857D02*
G01X01927Y00807D01*
G01X01877Y00817D01*
G01X01888Y00867D01*
G01X01938Y00857D01*
G37*
G36*
G01X01951Y00955D02*
G01X01945Y00905D01*
G01X01894Y00910D01*
G01X01900Y00961D01*
G01X01951Y00955D01*
G37*
G36*
G01X01868Y00964D02*
G01X01863Y00913D01*
G01X01812Y00919D01*
G01X01818Y00969D01*
G01X01868Y00964D01*
G37*
G36*
G01X01857Y00874D02*
G01X01846Y00824D01*
G01X01796Y00834D01*
G01X01807Y00884D01*
G01X01857Y00874D01*
G37*
G36*
G01X01836Y00785D02*
G01X01820Y00736D01*
G01X01771Y00752D01*
G01X01787Y00801D01*
G01X01836Y00785D01*
G37*
G36*
G01X01806Y00699D02*
G01X01785Y00652D01*
G01X01738Y00673D01*
G01X01759Y00720D01*
G01X01806Y00699D01*
G37*
G36*
G01X01767Y00617D02*
G01X01741Y00573D01*
G01X01697Y00598D01*
G01X01722Y00642D01*
G01X01767Y00617D01*
G37*
G36*
G01X01719Y00539D02*
G01X01689Y00498D01*
G01X01648Y00528D01*
G01X01678Y00569D01*
G01X01719Y00539D01*
G37*
G36*
G01X01584Y00674D02*
G01X01628Y00649D01*
G01X01603Y00605D01*
G01X01559Y00630D01*
G01X01584Y00674D01*
G37*
G36*
G01X01625Y00746D02*
G01X01670Y00720D01*
G01X01644Y00676D01*
G01X01600Y00702D01*
G01X01625Y00746D01*
G37*
G36*
G01X01400Y00472D02*
G01X01425Y00427D01*
G01X01381Y00402D01*
G01X01356Y00446D01*
G01X01400Y00472D01*
G37*
G36*
G01X01328Y00430D02*
G01X01354Y00386D01*
G01X01310Y00360D01*
G01X01284Y00405D01*
G01X01328Y00430D01*
G37*
G36*
G01X01533Y00341D02*
G01X01491Y00311D01*
G01X01461Y00352D01*
G01X01502Y00382D01*
G01X01533Y00341D01*
G37*
G36*
G01X01411Y00170D02*
G01X01365Y00149D01*
G01X01344Y00196D01*
G01X01390Y00216D01*
G01X01411Y00170D01*
G37*
G36*
G01X01319Y00131D02*
G01X01271Y00116D01*
G01X01255Y00164D01*
G01X01303Y00180D01*
G01X01319Y00131D01*
G37*
G36*
G01X01223Y00103D02*
G01X01173Y00092D01*
G01X01163Y00142D01*
G01X01213Y00153D01*
G01X01223Y00103D01*
G37*
G36*
G01X01125Y00085D02*
G01X01075Y00079D01*
G01X01069Y00130D01*
G01X01120Y00136D01*
G01X01125Y00085D01*
G37*
G36*
G01X01863Y01146D02*
G01X01868Y01095D01*
G01X01818Y01090D01*
G01X01812Y01141D01*
G01X01863Y01146D01*
G37*
G36*
G01X01945Y01155D02*
G01X01951Y01104D01*
G01X01900Y01098D01*
G01X01894Y01149D01*
G01X01945Y01155D01*
G37*
G36*
G01X01927Y01253D02*
G01X01938Y01203D01*
G01X01888Y01192D01*
G01X01877Y01242D01*
G01X01927Y01253D01*
G37*
G36*
G01X01899Y01348D02*
G01X01914Y01300D01*
G01X01866Y01284D01*
G01X01850Y01333D01*
G01X01899Y01348D01*
G37*
G36*
G01X01860Y01440D02*
G01X01881Y01394D01*
G01X01835Y01373D01*
G01X01814Y01420D01*
G01X01860Y01440D01*
G37*
G36*
G01X01813Y01528D02*
G01X01838Y01484D01*
G01X01794Y01458D01*
G01X01768Y01503D01*
G01X01813Y01528D01*
G37*
G36*
G01X01756Y01610D02*
G01X01786Y01569D01*
G01X01745Y01539D01*
G01X01715Y01580D01*
G01X01756Y01610D01*
G37*
G36*
G01X01691Y01686D02*
G01X01726Y01648D01*
G01X01688Y01614D01*
G01X01653Y01652D01*
G01X01691Y01686D01*
G37*
G36*
G01X01619Y01755D02*
G01X01657Y01720D01*
G01X01623Y01683D01*
G01X01585Y01717D01*
G01X01619Y01755D01*
G37*
G36*
G01X01540Y01815D02*
G01X01581Y01785D01*
G01X01551Y01744D01*
G01X01510Y01774D01*
G01X01540Y01815D01*
G37*
G36*
G01X01455Y01868D02*
G01X01499Y01842D01*
G01X01473Y01798D01*
G01X01429Y01823D01*
G01X01455Y01868D01*
G37*
G36*
G01X01365Y01910D02*
G01X01411Y01890D01*
G01X01390Y01843D01*
G01X01344Y01864D01*
G01X01365Y01910D01*
G37*
G36*
G01X01271Y01944D02*
G01X01319Y01928D01*
G01X01303Y01879D01*
G01X01255Y01895D01*
G01X01271Y01944D01*
G37*
G36*
G01X01173Y01967D02*
G01X01223Y01956D01*
G01X01213Y01906D01*
G01X01163Y01917D01*
G01X01173Y01967D01*
G37*
G36*
G01X01075Y01980D02*
G01X01125Y01974D01*
G01X01120Y01924D01*
G01X01069Y01929D01*
G01X01075Y01980D01*
G37*
G36*
G01X01066Y01898D02*
G01X01117Y01892D01*
G01X01111Y01841D01*
G01X01061Y01847D01*
G01X01066Y01898D01*
G37*
G36*
G01X01156Y01886D02*
G01X01206Y01875D01*
G01X01196Y01825D01*
G01X01146Y01836D01*
G01X01156Y01886D01*
G37*
G36*
G01X01245Y01865D02*
G01X01294Y01849D01*
G01X01278Y01801D01*
G01X01229Y01816D01*
G01X01245Y01865D01*
G37*
G36*
G01X01331Y01835D02*
G01X01378Y01814D01*
G01X01357Y01767D01*
G01X01310Y01788D01*
G01X01331Y01835D01*
G37*
G36*
G01X01413Y01796D02*
G01X01458Y01770D01*
G01X01432Y01726D01*
G01X01388Y01752D01*
G01X01413Y01796D01*
G37*
G36*
G01X01491Y01749D02*
G01X01533Y01718D01*
G01X01502Y01677D01*
G01X01461Y01707D01*
G01X01491Y01749D01*
G37*
G36*
G01X01564Y01693D02*
G01X01602Y01659D01*
G01X01567Y01621D01*
G01X01529Y01655D01*
G01X01564Y01693D01*
G37*
G36*
G01X01630Y01631D02*
G01X01664Y01593D01*
G01X01626Y01559D01*
G01X01592Y01597D01*
G01X01630Y01631D01*
G37*
G36*
G01X01689Y01562D02*
G01X01719Y01520D01*
G01X01678Y01490D01*
G01X01648Y01532D01*
G01X01689Y01562D01*
G37*
G36*
G01X01741Y01487D02*
G01X01767Y01443D01*
G01X01722Y01417D01*
G01X01697Y01461D01*
G01X01741Y01487D01*
G37*
G36*
G01X01559Y01429D02*
G01X01603Y01455D01*
G01X01628Y01410D01*
G01X01584Y01385D01*
G01X01559Y01429D01*
G37*
G36*
G01X01600Y01357D02*
G01X01644Y01383D01*
G01X01670Y01339D01*
G01X01625Y01313D01*
G01X01600Y01357D01*
G37*
G36*
G01X01785Y01407D02*
G01X01806Y01360D01*
G01X01759Y01339D01*
G01X01738Y01386D01*
G01X01785Y01407D01*
G37*
G36*
G01X01820Y01323D02*
G01X01836Y01274D01*
G01X01787Y01258D01*
G01X01771Y01307D01*
G01X01820Y01323D01*
G37*
G36*
G01X01846Y01236D02*
G01X01857Y01186D01*
G01X01807Y01175D01*
G01X01796Y01225D01*
G01X01846Y01236D01*
G37*
G36*
G01X01356Y01613D02*
G01X01381Y01658D01*
G01X01425Y01632D01*
G01X01400Y01588D01*
G01X01356Y01613D01*
G37*
G36*
G01X01284Y01655D02*
G01X01310Y01699D01*
G01X01354Y01673D01*
G01X01328Y01629D01*
G01X01284Y01655D01*
G37*
G36*
G01X00884Y01892D02*
G01X00935Y01898D01*
G01X00940Y01847D01*
G01X00889Y01841D01*
G01X00884Y01892D01*
G37*
G36*
G01X00795Y01875D02*
G01X00845Y01886D01*
G01X00855Y01836D01*
G01X00805Y01825D01*
G01X00795Y01875D01*
G37*
G36*
G01X00707Y01849D02*
G01X00756Y01865D01*
G01X00772Y01816D01*
G01X00723Y01801D01*
G01X00707Y01849D01*
G37*
G36*
G01X00590Y01890D02*
G01X00636Y01910D01*
G01X00657Y01864D01*
G01X00610Y01843D01*
G01X00590Y01890D01*
G37*
G36*
G01X00502Y01842D02*
G01X00546Y01868D01*
G01X00572Y01823D01*
G01X00528Y01798D01*
G01X00502Y01842D01*
G37*
G36*
G01X00420Y01785D02*
G01X00461Y01815D01*
G01X00491Y01774D01*
G01X00450Y01744D01*
G01X00420Y01785D01*
G37*
G36*
G01X00344Y01720D02*
G01X00382Y01755D01*
G01X00416Y01717D01*
G01X00378Y01683D01*
G01X00344Y01720D01*
G37*
G36*
G01X00275Y01648D02*
G01X00310Y01686D01*
G01X00348Y01652D01*
G01X00313Y01614D01*
G01X00275Y01648D01*
G37*
G36*
G01X00337Y01593D02*
G01X00371Y01631D01*
G01X00409Y01597D01*
G01X00375Y01559D01*
G01X00337Y01593D01*
G37*
G36*
G01X00215Y01569D02*
G01X00245Y01610D01*
G01X00286Y01580D01*
G01X00256Y01539D01*
G01X00215Y01569D01*
G37*
G36*
G01X00163Y01484D02*
G01X00188Y01528D01*
G01X00232Y01503D01*
G01X00207Y01458D01*
G01X00163Y01484D01*
G37*
G36*
G01X00234Y01443D02*
G01X00260Y01487D01*
G01X00304Y01461D01*
G01X00278Y01417D01*
G01X00234Y01443D01*
G37*
G36*
G01X00120Y01394D02*
G01X00141Y01440D01*
G01X00187Y01420D01*
G01X00166Y01373D01*
G01X00120Y01394D01*
G37*
G36*
G01X00086Y01300D02*
G01X00102Y01348D01*
G01X00151Y01333D01*
G01X00135Y01284D01*
G01X00086Y01300D01*
G37*
G36*
G01X00063Y01203D02*
G01X00074Y01253D01*
G01X00124Y01242D01*
G01X00113Y01192D01*
G01X00063Y01203D01*
G37*
G36*
G01X00144Y01186D02*
G01X00155Y01236D01*
G01X00205Y01225D01*
G01X00194Y01175D01*
G01X00144Y01186D01*
G37*
G36*
G01X00132Y01095D02*
G01X00138Y01146D01*
G01X00189Y01141D01*
G01X00183Y01090D01*
G01X00132Y01095D01*
G37*
G36*
G01X00050Y01104D02*
G01X00056Y01155D01*
G01X00106Y01149D01*
G01X00101Y01098D01*
G01X00050Y01104D01*
G37*
G36*
G01X00165Y01274D02*
G01X00181Y01323D01*
G01X00229Y01307D01*
G01X00214Y01258D01*
G01X00165Y01274D01*
G37*
G36*
G01X00195Y01360D02*
G01X00216Y01407D01*
G01X00263Y01386D01*
G01X00242Y01339D01*
G01X00195Y01360D01*
G37*
G36*
G01X00375Y01313D02*
G01X00331Y01339D01*
G01X00357Y01383D01*
G01X00401Y01357D01*
G01X00375Y01313D01*
G37*
G36*
G01X00417Y01385D02*
G01X00372Y01410D01*
G01X00398Y01455D01*
G01X00442Y01429D01*
G01X00417Y01385D01*
G37*
G36*
G01X00282Y01520D02*
G01X00312Y01562D01*
G01X00353Y01532D01*
G01X00323Y01490D01*
G01X00282Y01520D01*
G37*
G36*
G01X00399Y01659D02*
G01X00437Y01693D01*
G01X00471Y01655D01*
G01X00434Y01621D01*
G01X00399Y01659D01*
G37*
G36*
G01X00468Y01718D02*
G01X00510Y01749D01*
G01X00540Y01707D01*
G01X00498Y01677D01*
G01X00468Y01718D01*
G37*
G36*
G01X00543Y01770D02*
G01X00587Y01796D01*
G01X00613Y01752D01*
G01X00569Y01726D01*
G01X00543Y01770D01*
G37*
G36*
G01X00623Y01814D02*
G01X00670Y01835D01*
G01X00691Y01788D01*
G01X00644Y01767D01*
G01X00623Y01814D01*
G37*
G36*
G01X00682Y01928D02*
G01X00730Y01944D01*
G01X00746Y01895D01*
G01X00698Y01879D01*
G01X00682Y01928D01*
G37*
G36*
G01X00777Y01956D02*
G01X00827Y01967D01*
G01X00838Y01917D01*
G01X00788Y01906D01*
G01X00777Y01956D01*
G37*
G36*
G01X00875Y01974D02*
G01X00926Y01980D01*
G01X00932Y01929D01*
G01X00881Y01924D01*
G01X00875Y01974D01*
G37*
G36*
G01X00673Y01629D02*
G01X00647Y01673D01*
G01X00691Y01699D01*
G01X00717Y01655D01*
G01X00673Y01629D01*
G37*
G36*
G01X00601Y01588D02*
G01X00575Y01632D01*
G01X00620Y01658D01*
G01X00645Y01613D01*
G01X00601Y01588D01*
G37*
M02*
