G75*
G70*
%OFA0B0*%
%FSLAX24Y24*%
%IPPOS*%
%LPD*%
%AMOC8*
5,1,8,0,0,1.08239X$1,22.5*
%
%ADD10C,0.0004*%
%ADD11C,0.0000*%
%ADD12C,0.0050*%
%ADD13C,0.0040*%
%ADD14C,0.0110*%
%ADD15C,0.0080*%
%ADD16C,0.0060*%
%ADD17C,0.0030*%
%ADD18R,0.0021X0.0007*%
%ADD19R,0.0035X0.0007*%
%ADD20R,0.0042X0.0007*%
%ADD21R,0.0063X0.0007*%
%ADD22R,0.0070X0.0007*%
%ADD23R,0.0091X0.0007*%
%ADD24R,0.0105X0.0007*%
%ADD25R,0.0119X0.0007*%
%ADD26R,0.0133X0.0007*%
%ADD27R,0.0147X0.0007*%
%ADD28R,0.0161X0.0007*%
%ADD29R,0.0175X0.0007*%
%ADD30R,0.0189X0.0007*%
%ADD31R,0.0203X0.0007*%
%ADD32R,0.0224X0.0007*%
%ADD33R,0.0231X0.0007*%
%ADD34R,0.0231X0.0007*%
%ADD35R,0.0231X0.0007*%
%ADD36R,0.0231X0.0007*%
%ADD37R,0.0224X0.0007*%
%ADD38R,0.0224X0.0007*%
%ADD39R,0.1043X0.0007*%
%ADD40R,0.0896X0.0007*%
%ADD41R,0.1036X0.0007*%
%ADD42R,0.0896X0.0007*%
%ADD43R,0.1022X0.0007*%
%ADD44R,0.1015X0.0007*%
%ADD45R,0.1001X0.0007*%
%ADD46R,0.0994X0.0007*%
%ADD47R,0.0980X0.0007*%
%ADD48R,0.0973X0.0007*%
%ADD49R,0.0959X0.0007*%
%ADD50R,0.0952X0.0007*%
%ADD51R,0.0945X0.0007*%
%ADD52R,0.0938X0.0007*%
%ADD53R,0.0924X0.0007*%
%ADD54R,0.0917X0.0007*%
%ADD55R,0.0903X0.0007*%
%ADD56R,0.0889X0.0007*%
%ADD57R,0.0875X0.0007*%
%ADD58R,0.0868X0.0007*%
%ADD59R,0.0854X0.0007*%
%ADD60R,0.0140X0.0007*%
%ADD61R,0.0133X0.0007*%
%ADD62R,0.0140X0.0007*%
%ADD63R,0.0133X0.0007*%
%ADD64R,0.0189X0.0007*%
%ADD65R,0.0245X0.0007*%
%ADD66R,0.0770X0.0007*%
%ADD67R,0.0623X0.0007*%
%ADD68R,0.0280X0.0007*%
%ADD69R,0.0770X0.0007*%
%ADD70R,0.0693X0.0007*%
%ADD71R,0.0315X0.0007*%
%ADD72R,0.0728X0.0007*%
%ADD73R,0.0343X0.0007*%
%ADD74R,0.0777X0.0007*%
%ADD75R,0.0742X0.0007*%
%ADD76R,0.0371X0.0007*%
%ADD77R,0.0756X0.0007*%
%ADD78R,0.0385X0.0007*%
%ADD79R,0.0763X0.0007*%
%ADD80R,0.0413X0.0007*%
%ADD81R,0.0777X0.0007*%
%ADD82R,0.0427X0.0007*%
%ADD83R,0.0441X0.0007*%
%ADD84R,0.0784X0.0007*%
%ADD85R,0.0469X0.0007*%
%ADD86R,0.0791X0.0007*%
%ADD87R,0.0476X0.0007*%
%ADD88R,0.0483X0.0007*%
%ADD89R,0.0798X0.0007*%
%ADD90R,0.0497X0.0007*%
%ADD91R,0.0798X0.0007*%
%ADD92R,0.0644X0.0007*%
%ADD93R,0.0805X0.0007*%
%ADD94R,0.0784X0.0007*%
%ADD95R,0.0651X0.0007*%
%ADD96R,0.0812X0.0007*%
%ADD97R,0.0784X0.0007*%
%ADD98R,0.0819X0.0007*%
%ADD99R,0.0658X0.0007*%
%ADD100R,0.0819X0.0007*%
%ADD101R,0.0658X0.0007*%
%ADD102R,0.1484X0.0007*%
%ADD103R,0.1071X0.0007*%
%ADD104R,0.1057X0.0007*%
%ADD105R,0.0371X0.0007*%
%ADD106R,0.1050X0.0007*%
%ADD107R,0.0364X0.0007*%
%ADD108R,0.0357X0.0007*%
%ADD109R,0.0490X0.0007*%
%ADD110R,0.0504X0.0007*%
%ADD111R,0.1372X0.0007*%
%ADD112R,0.0350X0.0007*%
%ADD113R,0.1372X0.0007*%
%ADD114R,0.0483X0.0007*%
%ADD115R,0.0350X0.0007*%
%ADD116R,0.0476X0.0007*%
%ADD117R,0.0833X0.0007*%
%ADD118R,0.0469X0.0007*%
%ADD119R,0.0385X0.0007*%
%ADD120R,0.0833X0.0007*%
%ADD121R,0.0469X0.0007*%
%ADD122R,0.0567X0.0007*%
%ADD123R,0.0252X0.0007*%
%ADD124R,0.0567X0.0007*%
%ADD125R,0.0252X0.0007*%
%ADD126R,0.0560X0.0007*%
%ADD127R,0.0553X0.0007*%
%ADD128R,0.0553X0.0007*%
%ADD129R,0.0546X0.0007*%
%ADD130R,0.0364X0.0007*%
%ADD131R,0.0546X0.0007*%
%ADD132R,0.0371X0.0007*%
%ADD133R,0.0539X0.0007*%
%ADD134R,0.0378X0.0007*%
%ADD135R,0.0252X0.0007*%
%ADD136R,0.0392X0.0007*%
%ADD137R,0.0252X0.0007*%
%ADD138R,0.0399X0.0007*%
%ADD139R,0.0406X0.0007*%
%ADD140R,0.0420X0.0007*%
%ADD141R,0.0427X0.0007*%
%ADD142R,0.0441X0.0007*%
%ADD143R,0.0245X0.0007*%
%ADD144R,0.0448X0.0007*%
%ADD145R,0.0462X0.0007*%
%ADD146R,0.0217X0.0007*%
%ADD147R,0.0224X0.0007*%
%ADD148R,0.0259X0.0007*%
%ADD149R,0.0357X0.0007*%
%ADD150R,0.0287X0.0007*%
%ADD151R,0.0567X0.0007*%
%ADD152R,0.0217X0.0007*%
%ADD153R,0.0553X0.0007*%
%ADD154R,0.0392X0.0007*%
%ADD155R,0.0217X0.0007*%
%ADD156R,0.0399X0.0007*%
%ADD157R,0.0532X0.0007*%
%ADD158R,0.0525X0.0007*%
%ADD159R,0.0511X0.0007*%
%ADD160R,0.0406X0.0007*%
%ADD161R,0.0497X0.0007*%
%ADD162R,0.0406X0.0007*%
%ADD163R,0.0455X0.0007*%
%ADD164R,0.0217X0.0007*%
%ADD165R,0.0399X0.0007*%
%ADD166R,0.0511X0.0007*%
%ADD167R,0.0210X0.0007*%
%ADD168R,0.0378X0.0007*%
%ADD169R,0.0539X0.0007*%
%ADD170R,0.0357X0.0007*%
%ADD171R,0.0259X0.0007*%
%ADD172R,0.0238X0.0007*%
%ADD173R,0.0336X0.0007*%
%ADD174R,0.0210X0.0007*%
%ADD175R,0.0238X0.0007*%
%ADD176R,0.0329X0.0007*%
%ADD177R,0.0322X0.0007*%
%ADD178R,0.0308X0.0007*%
%ADD179R,0.0539X0.0007*%
%ADD180R,0.0511X0.0007*%
%ADD181R,0.0497X0.0007*%
%ADD182R,0.0476X0.0007*%
%ADD183R,0.0462X0.0007*%
%ADD184R,0.0203X0.0007*%
%ADD185R,0.0462X0.0007*%
%ADD186R,0.0434X0.0007*%
%ADD187R,0.0420X0.0007*%
%ADD188R,0.0406X0.0007*%
%ADD189R,0.0560X0.0007*%
%ADD190R,0.0553X0.0007*%
%ADD191R,0.0399X0.0007*%
%ADD192R,0.0532X0.0007*%
%ADD193R,0.0518X0.0007*%
%ADD194R,0.0504X0.0007*%
%ADD195R,0.0504X0.0007*%
%ADD196R,0.0378X0.0007*%
%ADD197R,0.0448X0.0007*%
%ADD198R,0.0434X0.0007*%
%ADD199R,0.0448X0.0007*%
%ADD200R,0.0371X0.0007*%
%ADD201R,0.0364X0.0007*%
%ADD202R,0.0336X0.0007*%
%ADD203R,0.0294X0.0007*%
%ADD204R,0.0196X0.0007*%
%ADD205R,0.2366X0.0007*%
%ADD206R,0.2366X0.0007*%
%ADD207C,0.0010*%
D10*
X000161Y010296D02*
X000173Y010779D01*
X000208Y011261D01*
X000268Y011740D01*
X000350Y012216D01*
X000456Y012688D01*
X000585Y013153D01*
X000736Y013612D01*
X000910Y014063D01*
X001106Y014504D01*
X001323Y014936D01*
X001561Y015356D01*
X001820Y015764D01*
X002098Y016159D01*
X002395Y016540D01*
X002711Y016906D01*
X003044Y017256D01*
X003394Y017589D01*
X003760Y017905D01*
X004141Y018202D01*
X004536Y018480D01*
X004944Y018739D01*
X005364Y018977D01*
X005796Y019194D01*
X006237Y019390D01*
X006688Y019564D01*
X007147Y019715D01*
X007612Y019844D01*
X008084Y019950D01*
X008560Y020032D01*
X009039Y020092D01*
X009521Y020127D01*
X010004Y020139D01*
X010487Y020127D01*
X010969Y020092D01*
X011448Y020032D01*
X011924Y019950D01*
X012396Y019844D01*
X012861Y019715D01*
X013320Y019564D01*
X013771Y019390D01*
X014212Y019194D01*
X014644Y018977D01*
X015064Y018739D01*
X015472Y018480D01*
X015867Y018202D01*
X016248Y017905D01*
X016614Y017589D01*
X016964Y017256D01*
X017297Y016906D01*
X017613Y016540D01*
X017910Y016159D01*
X018188Y015764D01*
X018447Y015356D01*
X018685Y014936D01*
X018902Y014504D01*
X019098Y014063D01*
X019272Y013612D01*
X019423Y013153D01*
X019552Y012688D01*
X019658Y012216D01*
X019740Y011740D01*
X019800Y011261D01*
X019835Y010779D01*
X019847Y010296D01*
X019835Y009813D01*
X019800Y009331D01*
X019740Y008852D01*
X019658Y008376D01*
X019552Y007904D01*
X019423Y007439D01*
X019272Y006980D01*
X019098Y006529D01*
X018902Y006088D01*
X018685Y005656D01*
X018447Y005236D01*
X018188Y004828D01*
X017910Y004433D01*
X017613Y004052D01*
X017297Y003686D01*
X016964Y003336D01*
X016614Y003003D01*
X016248Y002687D01*
X015867Y002390D01*
X015472Y002112D01*
X015064Y001853D01*
X014644Y001615D01*
X014212Y001398D01*
X013771Y001202D01*
X013320Y001028D01*
X012861Y000877D01*
X012396Y000748D01*
X011924Y000642D01*
X011448Y000560D01*
X010969Y000500D01*
X010487Y000465D01*
X010004Y000453D01*
X009521Y000465D01*
X009039Y000500D01*
X008560Y000560D01*
X008084Y000642D01*
X007612Y000748D01*
X007147Y000877D01*
X006688Y001028D01*
X006237Y001202D01*
X005796Y001398D01*
X005364Y001615D01*
X004944Y001853D01*
X004536Y002112D01*
X004141Y002390D01*
X003760Y002687D01*
X003394Y003003D01*
X003044Y003336D01*
X002711Y003686D01*
X002395Y004052D01*
X002098Y004433D01*
X001820Y004828D01*
X001561Y005236D01*
X001323Y005656D01*
X001106Y006088D01*
X000910Y006529D01*
X000736Y006980D01*
X000585Y007439D01*
X000456Y007904D01*
X000350Y008376D01*
X000268Y008852D01*
X000208Y009331D01*
X000173Y009813D01*
X000161Y010296D01*
D11*
X009571Y013052D02*
X009573Y013093D01*
X009579Y013134D01*
X009589Y013174D01*
X009602Y013213D01*
X009619Y013250D01*
X009640Y013286D01*
X009664Y013320D01*
X009691Y013351D01*
X009720Y013379D01*
X009753Y013405D01*
X009787Y013427D01*
X009824Y013446D01*
X009862Y013461D01*
X009902Y013473D01*
X009942Y013481D01*
X009983Y013485D01*
X010025Y013485D01*
X010066Y013481D01*
X010106Y013473D01*
X010146Y013461D01*
X010184Y013446D01*
X010220Y013427D01*
X010255Y013405D01*
X010288Y013379D01*
X010317Y013351D01*
X010344Y013320D01*
X010368Y013286D01*
X010389Y013250D01*
X010406Y013213D01*
X010419Y013174D01*
X010429Y013134D01*
X010435Y013093D01*
X010437Y013052D01*
X010435Y013011D01*
X010429Y012970D01*
X010419Y012930D01*
X010406Y012891D01*
X010389Y012854D01*
X010368Y012818D01*
X010344Y012784D01*
X010317Y012753D01*
X010288Y012725D01*
X010255Y012699D01*
X010221Y012677D01*
X010184Y012658D01*
X010146Y012643D01*
X010106Y012631D01*
X010066Y012623D01*
X010025Y012619D01*
X009983Y012619D01*
X009942Y012623D01*
X009902Y012631D01*
X009862Y012643D01*
X009824Y012658D01*
X009788Y012677D01*
X009753Y012699D01*
X009720Y012725D01*
X009691Y012753D01*
X009664Y012784D01*
X009640Y012818D01*
X009619Y012854D01*
X009602Y012891D01*
X009589Y012930D01*
X009579Y012970D01*
X009573Y013011D01*
X009571Y013052D01*
X008961Y003013D02*
X008963Y003039D01*
X008969Y003065D01*
X008979Y003090D01*
X008992Y003113D01*
X009008Y003133D01*
X009028Y003151D01*
X009050Y003166D01*
X009073Y003178D01*
X009099Y003186D01*
X009125Y003190D01*
X009151Y003190D01*
X009177Y003186D01*
X009203Y003178D01*
X009227Y003166D01*
X009248Y003151D01*
X009268Y003133D01*
X009284Y003113D01*
X009297Y003090D01*
X009307Y003065D01*
X009313Y003039D01*
X009315Y003013D01*
X009313Y002987D01*
X009307Y002961D01*
X009297Y002936D01*
X009284Y002913D01*
X009268Y002893D01*
X009248Y002875D01*
X009226Y002860D01*
X009203Y002848D01*
X009177Y002840D01*
X009151Y002836D01*
X009125Y002836D01*
X009099Y002840D01*
X009073Y002848D01*
X009049Y002860D01*
X009028Y002875D01*
X009008Y002893D01*
X008992Y002913D01*
X008979Y002936D01*
X008969Y002961D01*
X008963Y002987D01*
X008961Y003013D01*
X010693Y003013D02*
X010695Y003039D01*
X010701Y003065D01*
X010711Y003090D01*
X010724Y003113D01*
X010740Y003133D01*
X010760Y003151D01*
X010782Y003166D01*
X010805Y003178D01*
X010831Y003186D01*
X010857Y003190D01*
X010883Y003190D01*
X010909Y003186D01*
X010935Y003178D01*
X010959Y003166D01*
X010980Y003151D01*
X011000Y003133D01*
X011016Y003113D01*
X011029Y003090D01*
X011039Y003065D01*
X011045Y003039D01*
X011047Y003013D01*
X011045Y002987D01*
X011039Y002961D01*
X011029Y002936D01*
X011016Y002913D01*
X011000Y002893D01*
X010980Y002875D01*
X010958Y002860D01*
X010935Y002848D01*
X010909Y002840D01*
X010883Y002836D01*
X010857Y002836D01*
X010831Y002840D01*
X010805Y002848D01*
X010781Y002860D01*
X010760Y002875D01*
X010740Y002893D01*
X010724Y002913D01*
X010711Y002936D01*
X010701Y002961D01*
X010695Y002987D01*
X010693Y003013D01*
D12*
X006557Y004245D02*
X006557Y005662D01*
X007266Y005662D01*
X007266Y004245D01*
X006557Y004245D01*
X006092Y004497D02*
X003730Y004497D01*
X003730Y004733D01*
X003757Y004735D01*
X003783Y004740D01*
X003808Y004749D01*
X003832Y004762D01*
X003854Y004777D01*
X003874Y004796D01*
X003891Y004816D01*
X003905Y004839D01*
X003916Y004864D01*
X003923Y004890D01*
X003927Y004917D01*
X003927Y004943D01*
X003923Y004970D01*
X003916Y004996D01*
X003905Y005021D01*
X003891Y005044D01*
X003874Y005064D01*
X003854Y005083D01*
X003832Y005098D01*
X003808Y005111D01*
X003783Y005120D01*
X003757Y005125D01*
X003730Y005127D01*
X003730Y005757D01*
X003757Y005759D01*
X003783Y005764D01*
X003808Y005773D01*
X003832Y005786D01*
X003854Y005801D01*
X003874Y005820D01*
X003891Y005840D01*
X003905Y005863D01*
X003916Y005888D01*
X003923Y005914D01*
X003927Y005941D01*
X003927Y005967D01*
X003923Y005994D01*
X003916Y006020D01*
X003905Y006045D01*
X003891Y006068D01*
X003874Y006088D01*
X003854Y006107D01*
X003832Y006122D01*
X003808Y006135D01*
X003783Y006144D01*
X003757Y006149D01*
X003730Y006151D01*
X003730Y006150D02*
X003730Y006741D01*
X003757Y006743D01*
X003783Y006748D01*
X003808Y006757D01*
X003832Y006770D01*
X003854Y006785D01*
X003874Y006804D01*
X003891Y006824D01*
X003905Y006847D01*
X003916Y006872D01*
X003923Y006898D01*
X003927Y006925D01*
X003927Y006951D01*
X003923Y006978D01*
X003916Y007004D01*
X003905Y007029D01*
X003891Y007052D01*
X003874Y007072D01*
X003854Y007091D01*
X003832Y007106D01*
X003808Y007119D01*
X003783Y007128D01*
X003757Y007133D01*
X003730Y007135D01*
X003730Y007410D01*
X006092Y007410D01*
X006092Y007174D01*
X006065Y007172D01*
X006039Y007167D01*
X006014Y007158D01*
X005990Y007145D01*
X005968Y007130D01*
X005948Y007111D01*
X005931Y007091D01*
X005917Y007068D01*
X005906Y007043D01*
X005899Y007017D01*
X005895Y006990D01*
X005895Y006964D01*
X005899Y006937D01*
X005906Y006911D01*
X005917Y006886D01*
X005931Y006863D01*
X005948Y006843D01*
X005968Y006824D01*
X005990Y006809D01*
X006014Y006796D01*
X006039Y006787D01*
X006065Y006782D01*
X006092Y006780D01*
X006092Y006150D01*
X006092Y006151D02*
X006065Y006149D01*
X006039Y006144D01*
X006014Y006135D01*
X005990Y006122D01*
X005968Y006107D01*
X005948Y006088D01*
X005931Y006068D01*
X005917Y006045D01*
X005906Y006020D01*
X005899Y005994D01*
X005895Y005967D01*
X005895Y005941D01*
X005899Y005914D01*
X005906Y005888D01*
X005917Y005863D01*
X005931Y005840D01*
X005948Y005820D01*
X005968Y005801D01*
X005990Y005786D01*
X006014Y005773D01*
X006039Y005764D01*
X006065Y005759D01*
X006092Y005757D01*
X006092Y005166D01*
X006065Y005164D01*
X006039Y005159D01*
X006014Y005150D01*
X005990Y005137D01*
X005968Y005122D01*
X005948Y005103D01*
X005931Y005083D01*
X005917Y005060D01*
X005906Y005035D01*
X005899Y005009D01*
X005895Y004982D01*
X005895Y004956D01*
X005899Y004929D01*
X005906Y004903D01*
X005917Y004878D01*
X005931Y004855D01*
X005948Y004835D01*
X005968Y004816D01*
X005990Y004801D01*
X006014Y004788D01*
X006039Y004779D01*
X006065Y004774D01*
X006092Y004772D01*
X006092Y004576D01*
X006092Y004497D01*
X006092Y004576D01*
X006557Y005995D02*
X006557Y007412D01*
X007266Y007412D01*
X007266Y005995D01*
X006557Y005995D01*
X008102Y005887D02*
X008102Y004627D01*
X008968Y004627D01*
X008968Y005887D01*
X008102Y005887D01*
X009295Y005611D02*
X010712Y005611D01*
X010712Y006320D01*
X009295Y006320D01*
X009295Y005611D01*
X009177Y004430D02*
X008744Y004430D01*
X008429Y003406D02*
X008429Y002973D01*
X008429Y001871D02*
X008429Y001005D01*
X011579Y000808D02*
X011579Y001871D01*
X011579Y002973D02*
X011579Y003406D01*
X012557Y004245D02*
X012557Y005662D01*
X013266Y005662D01*
X013266Y004245D01*
X012557Y004245D01*
X011905Y004627D02*
X011039Y004627D01*
X011039Y005887D01*
X011905Y005887D01*
X011905Y004627D01*
X011264Y004430D02*
X010831Y004430D01*
X012557Y005995D02*
X012557Y007412D01*
X013266Y007412D01*
X013266Y005995D01*
X012557Y005995D01*
X010941Y007714D02*
X010691Y007464D01*
X009291Y007464D01*
X009041Y007714D01*
X009041Y008114D01*
X009191Y008364D01*
X008941Y008614D01*
X008941Y009014D01*
X009191Y009264D01*
X009941Y009264D01*
X009941Y010164D01*
X009959Y010164D01*
X010691Y010164D01*
X010941Y009914D01*
X010941Y009514D01*
X010791Y009264D01*
X011041Y009014D01*
X011041Y008614D01*
X010791Y008364D01*
X010941Y008114D01*
X010941Y007714D01*
X009191Y009264D02*
X009041Y009264D01*
X009041Y010164D01*
X009241Y010164D01*
X009941Y010164D01*
X007370Y010349D02*
X005953Y010349D01*
X005953Y011058D01*
X007370Y011058D01*
X007370Y010349D01*
X005370Y010349D02*
X003953Y010349D01*
X003953Y011058D01*
X005370Y011058D01*
X005370Y010349D01*
X005370Y009808D02*
X005370Y009099D01*
X003953Y009099D01*
X003953Y009808D01*
X005370Y009808D01*
X005370Y008558D02*
X003953Y008558D01*
X003953Y007849D01*
X005370Y007849D01*
X005370Y008558D01*
X002917Y008997D02*
X000555Y008997D01*
X000555Y011595D01*
X002917Y011595D01*
X002917Y008997D01*
X001342Y010296D02*
X001344Y010335D01*
X001350Y010374D01*
X001360Y010412D01*
X001373Y010449D01*
X001390Y010484D01*
X001410Y010518D01*
X001434Y010549D01*
X001461Y010578D01*
X001490Y010604D01*
X001522Y010627D01*
X001556Y010647D01*
X001592Y010663D01*
X001629Y010675D01*
X001668Y010684D01*
X001707Y010689D01*
X001746Y010690D01*
X001785Y010687D01*
X001824Y010680D01*
X001861Y010669D01*
X001898Y010655D01*
X001933Y010637D01*
X001966Y010616D01*
X001997Y010591D01*
X002025Y010564D01*
X002050Y010534D01*
X002072Y010501D01*
X002091Y010467D01*
X002106Y010431D01*
X002118Y010393D01*
X002126Y010355D01*
X002130Y010316D01*
X002130Y010276D01*
X002126Y010237D01*
X002118Y010199D01*
X002106Y010161D01*
X002091Y010125D01*
X002072Y010091D01*
X002050Y010058D01*
X002025Y010028D01*
X001997Y010001D01*
X001966Y009976D01*
X001933Y009955D01*
X001898Y009937D01*
X001861Y009923D01*
X001824Y009912D01*
X001785Y009905D01*
X001746Y009902D01*
X001707Y009903D01*
X001668Y009908D01*
X001629Y009917D01*
X001592Y009929D01*
X001556Y009945D01*
X001522Y009965D01*
X001490Y009988D01*
X001461Y010014D01*
X001434Y010043D01*
X001410Y010074D01*
X001390Y010108D01*
X001373Y010143D01*
X001360Y010180D01*
X001350Y010218D01*
X001344Y010257D01*
X001342Y010296D01*
X001144Y010296D02*
X001146Y010344D01*
X001152Y010392D01*
X001162Y010439D01*
X001175Y010486D01*
X001193Y010531D01*
X001214Y010574D01*
X001238Y010616D01*
X001266Y010656D01*
X001297Y010693D01*
X001330Y010727D01*
X001367Y010759D01*
X001406Y010787D01*
X001447Y010813D01*
X001490Y010835D01*
X001535Y010853D01*
X001581Y010867D01*
X001628Y010878D01*
X001676Y010885D01*
X001724Y010888D01*
X001772Y010887D01*
X001820Y010882D01*
X001868Y010873D01*
X001914Y010860D01*
X001960Y010844D01*
X002004Y010824D01*
X002046Y010800D01*
X002086Y010774D01*
X002124Y010743D01*
X002159Y010710D01*
X002191Y010674D01*
X002221Y010636D01*
X002247Y010595D01*
X002269Y010553D01*
X002289Y010509D01*
X002304Y010463D01*
X002316Y010416D01*
X002324Y010368D01*
X002328Y010320D01*
X002328Y010272D01*
X002324Y010224D01*
X002316Y010176D01*
X002304Y010129D01*
X002289Y010083D01*
X002269Y010039D01*
X002247Y009997D01*
X002221Y009956D01*
X002191Y009918D01*
X002159Y009882D01*
X002124Y009849D01*
X002086Y009818D01*
X002046Y009792D01*
X002004Y009768D01*
X001960Y009748D01*
X001914Y009732D01*
X001868Y009719D01*
X001820Y009710D01*
X001772Y009705D01*
X001724Y009704D01*
X001676Y009707D01*
X001628Y009714D01*
X001581Y009725D01*
X001535Y009739D01*
X001490Y009757D01*
X001447Y009779D01*
X001406Y009805D01*
X001367Y009833D01*
X001330Y009865D01*
X001297Y009899D01*
X001266Y009936D01*
X001238Y009976D01*
X001214Y010018D01*
X001193Y010061D01*
X001175Y010106D01*
X001162Y010153D01*
X001152Y010200D01*
X001146Y010248D01*
X001144Y010296D01*
X003953Y011599D02*
X005370Y011599D01*
X005370Y012308D01*
X003953Y012308D01*
X003953Y011599D01*
X005953Y011599D02*
X005953Y012308D01*
X007370Y012308D01*
X007370Y011599D01*
X005953Y011599D01*
X005892Y014337D02*
X006102Y014337D01*
X006172Y014407D01*
X006172Y014547D01*
X006102Y014617D01*
X005892Y014617D01*
X005892Y014757D02*
X005892Y014337D01*
X005739Y014337D02*
X005529Y014337D01*
X005459Y014407D01*
X005529Y014477D01*
X005739Y014477D01*
X005739Y014547D02*
X005739Y014337D01*
X005739Y014547D02*
X005669Y014617D01*
X005529Y014617D01*
X005241Y014757D02*
X005241Y014337D01*
X005171Y014337D02*
X005311Y014337D01*
X005018Y014337D02*
X005018Y014547D01*
X004948Y014617D01*
X004878Y014547D01*
X004878Y014337D01*
X004738Y014337D02*
X004738Y014617D01*
X004808Y014617D01*
X004878Y014547D01*
X004585Y014547D02*
X004585Y014407D01*
X004515Y014337D01*
X004375Y014337D01*
X004305Y014407D01*
X004305Y014547D01*
X004375Y014617D01*
X004515Y014617D01*
X004585Y014547D01*
X004153Y014547D02*
X004153Y014407D01*
X004083Y014337D01*
X003943Y014337D01*
X003872Y014407D01*
X003872Y014547D01*
X003943Y014617D01*
X004083Y014617D01*
X004153Y014547D01*
X003722Y014617D02*
X003652Y014617D01*
X003512Y014477D01*
X003512Y014337D02*
X003512Y014617D01*
X003293Y014757D02*
X003293Y014337D01*
X003223Y014337D02*
X003363Y014337D01*
X003075Y014337D02*
X002935Y014337D01*
X003005Y014337D02*
X003005Y014757D01*
X002935Y014757D01*
X002782Y014547D02*
X002782Y014337D01*
X002572Y014337D01*
X002502Y014407D01*
X002572Y014477D01*
X002782Y014477D01*
X002782Y014547D02*
X002712Y014617D01*
X002572Y014617D01*
X002350Y014547D02*
X002350Y014337D01*
X002209Y014337D02*
X002209Y014547D01*
X002279Y014617D01*
X002350Y014547D01*
X002209Y014547D02*
X002139Y014617D01*
X002069Y014617D01*
X002069Y014337D01*
X001917Y014407D02*
X001847Y014477D01*
X001707Y014477D01*
X001637Y014547D01*
X001707Y014617D01*
X001917Y014617D01*
X001917Y014407D02*
X001847Y014337D01*
X001637Y014337D01*
X003223Y014757D02*
X003293Y014757D01*
X005171Y014757D02*
X005241Y014757D01*
X006325Y014547D02*
X006395Y014617D01*
X006605Y014617D01*
X006535Y014477D02*
X006395Y014477D01*
X006325Y014547D01*
X006325Y014337D02*
X006535Y014337D01*
X006605Y014407D01*
X006535Y014477D01*
X006758Y014407D02*
X006828Y014407D01*
X006828Y014337D01*
X006758Y014337D01*
X006758Y014407D01*
X006974Y014407D02*
X006974Y014547D01*
X007044Y014617D01*
X007254Y014617D01*
X007407Y014547D02*
X007407Y014407D01*
X007477Y014337D01*
X007617Y014337D01*
X007687Y014407D01*
X007687Y014547D01*
X007617Y014617D01*
X007477Y014617D01*
X007407Y014547D01*
X007254Y014337D02*
X007044Y014337D01*
X006974Y014407D01*
X007839Y014337D02*
X007839Y014617D01*
X007909Y014617D01*
X007980Y014547D01*
X008050Y014617D01*
X008120Y014547D01*
X008120Y014337D01*
X007980Y014337D02*
X007980Y014547D01*
X008272Y014337D02*
X008552Y014757D01*
X008705Y014547D02*
X008705Y014407D01*
X008775Y014337D01*
X008985Y014337D01*
X009138Y014337D02*
X009278Y014337D01*
X009208Y014337D02*
X009208Y014757D01*
X009138Y014757D01*
X008985Y014617D02*
X008775Y014617D01*
X008705Y014547D01*
X009426Y014547D02*
X009426Y014407D01*
X009496Y014337D01*
X009636Y014337D01*
X009706Y014407D01*
X009706Y014547D01*
X009636Y014617D01*
X009496Y014617D01*
X009426Y014547D01*
X009859Y014547D02*
X009859Y014407D01*
X009929Y014337D01*
X010139Y014337D01*
X010292Y014337D02*
X010292Y014757D01*
X010139Y014617D02*
X009929Y014617D01*
X009859Y014547D01*
X010292Y014477D02*
X010502Y014337D01*
X010652Y014337D02*
X010652Y014407D01*
X010933Y014687D01*
X010933Y014757D01*
X010652Y014757D01*
X010502Y014617D02*
X010292Y014477D01*
X011085Y014337D02*
X011365Y014617D01*
X011365Y014687D01*
X011295Y014757D01*
X011155Y014757D01*
X011085Y014687D01*
X011085Y014337D02*
X011365Y014337D01*
X011518Y014407D02*
X011588Y014477D01*
X011798Y014477D01*
X011798Y014547D02*
X011798Y014337D01*
X011588Y014337D01*
X011518Y014407D01*
X011728Y014617D02*
X011798Y014547D01*
X011728Y014617D02*
X011588Y014617D01*
X012307Y014662D02*
X012307Y013245D01*
X013016Y013245D01*
X013016Y014662D01*
X012307Y014662D01*
X012404Y015289D02*
X012404Y018289D01*
X011204Y019489D01*
X008804Y019489D01*
X007604Y018289D01*
X007604Y015289D01*
X007625Y015241D01*
X007649Y015195D01*
X007676Y015151D01*
X007707Y015109D01*
X007741Y015069D01*
X007777Y015032D01*
X007816Y014998D01*
X007858Y014967D01*
X007902Y014939D01*
X007948Y014914D01*
X007995Y014893D01*
X008044Y014875D01*
X008094Y014862D01*
X008146Y014851D01*
X008197Y014845D01*
X008249Y014843D01*
X008301Y014845D01*
X008353Y014850D01*
X008404Y014859D01*
X008455Y014873D01*
X008504Y014889D01*
X008577Y014958D01*
X008654Y015025D01*
X008733Y015087D01*
X008815Y015146D01*
X008900Y015200D01*
X008988Y015251D01*
X009077Y015297D01*
X009169Y015339D01*
X009263Y015376D01*
X009358Y015409D01*
X009455Y015438D01*
X009553Y015462D01*
X009652Y015481D01*
X009752Y015495D01*
X009853Y015505D01*
X009954Y015509D01*
X010054Y015509D01*
X010155Y015505D01*
X010256Y015495D01*
X010356Y015481D01*
X010455Y015462D01*
X010553Y015438D01*
X010650Y015409D01*
X010745Y015376D01*
X010839Y015339D01*
X010931Y015297D01*
X011020Y015251D01*
X011108Y015200D01*
X011193Y015146D01*
X011275Y015087D01*
X011354Y015025D01*
X011431Y014958D01*
X011504Y014889D01*
X011553Y014873D01*
X011604Y014859D01*
X011655Y014850D01*
X011707Y014845D01*
X011759Y014843D01*
X011811Y014845D01*
X011862Y014851D01*
X011914Y014862D01*
X011964Y014875D01*
X012013Y014893D01*
X012060Y014914D01*
X012106Y014939D01*
X012150Y014967D01*
X012192Y014998D01*
X012231Y015032D01*
X012267Y015069D01*
X012301Y015109D01*
X012332Y015151D01*
X012359Y015195D01*
X012383Y015241D01*
X012404Y015289D01*
X013594Y014662D02*
X013594Y013245D01*
X014303Y013245D01*
X014303Y014662D01*
X013594Y014662D01*
X013913Y015276D02*
X014070Y015434D01*
X013913Y015591D01*
X013913Y015276D01*
X014070Y015276D02*
X014070Y015434D01*
X014070Y015591D01*
X015203Y015808D02*
X015203Y015099D01*
X016620Y015099D01*
X016620Y015808D01*
X015203Y015808D01*
X015553Y014662D02*
X014844Y014662D01*
X014844Y013245D01*
X015553Y013245D01*
X015553Y014662D01*
X016094Y014662D02*
X016094Y013245D01*
X016803Y013245D01*
X016803Y014662D01*
X016094Y014662D01*
X016342Y011702D02*
X016342Y010206D01*
X014537Y010604D02*
X014539Y010624D01*
X014545Y010642D01*
X014554Y010660D01*
X014566Y010675D01*
X014581Y010687D01*
X014599Y010696D01*
X014617Y010702D01*
X014637Y010704D01*
X014657Y010702D01*
X014675Y010696D01*
X014693Y010687D01*
X014708Y010675D01*
X014720Y010660D01*
X014729Y010642D01*
X014735Y010624D01*
X014737Y010604D01*
X014735Y010584D01*
X014729Y010566D01*
X014720Y010548D01*
X014708Y010533D01*
X014693Y010521D01*
X014675Y010512D01*
X014657Y010506D01*
X014637Y010504D01*
X014617Y010506D01*
X014599Y010512D01*
X014581Y010521D01*
X014566Y010533D01*
X014554Y010548D01*
X014545Y010566D01*
X014539Y010584D01*
X014537Y010604D01*
X014453Y010206D02*
X014453Y011702D01*
X014146Y011662D02*
X014146Y010245D01*
X013437Y010245D01*
X013437Y011662D01*
X014146Y011662D01*
X017090Y011595D02*
X019453Y011595D01*
X019453Y008997D01*
X017090Y008997D01*
X017090Y011595D01*
X017877Y010296D02*
X017879Y010335D01*
X017885Y010374D01*
X017895Y010412D01*
X017908Y010449D01*
X017925Y010484D01*
X017945Y010518D01*
X017969Y010549D01*
X017996Y010578D01*
X018025Y010604D01*
X018057Y010627D01*
X018091Y010647D01*
X018127Y010663D01*
X018164Y010675D01*
X018203Y010684D01*
X018242Y010689D01*
X018281Y010690D01*
X018320Y010687D01*
X018359Y010680D01*
X018396Y010669D01*
X018433Y010655D01*
X018468Y010637D01*
X018501Y010616D01*
X018532Y010591D01*
X018560Y010564D01*
X018585Y010534D01*
X018607Y010501D01*
X018626Y010467D01*
X018641Y010431D01*
X018653Y010393D01*
X018661Y010355D01*
X018665Y010316D01*
X018665Y010276D01*
X018661Y010237D01*
X018653Y010199D01*
X018641Y010161D01*
X018626Y010125D01*
X018607Y010091D01*
X018585Y010058D01*
X018560Y010028D01*
X018532Y010001D01*
X018501Y009976D01*
X018468Y009955D01*
X018433Y009937D01*
X018396Y009923D01*
X018359Y009912D01*
X018320Y009905D01*
X018281Y009902D01*
X018242Y009903D01*
X018203Y009908D01*
X018164Y009917D01*
X018127Y009929D01*
X018091Y009945D01*
X018057Y009965D01*
X018025Y009988D01*
X017996Y010014D01*
X017969Y010043D01*
X017945Y010074D01*
X017925Y010108D01*
X017908Y010143D01*
X017895Y010180D01*
X017885Y010218D01*
X017879Y010257D01*
X017877Y010296D01*
X017679Y010296D02*
X017681Y010344D01*
X017687Y010392D01*
X017697Y010439D01*
X017710Y010486D01*
X017728Y010531D01*
X017749Y010574D01*
X017773Y010616D01*
X017801Y010656D01*
X017832Y010693D01*
X017865Y010727D01*
X017902Y010759D01*
X017941Y010787D01*
X017982Y010813D01*
X018025Y010835D01*
X018070Y010853D01*
X018116Y010867D01*
X018163Y010878D01*
X018211Y010885D01*
X018259Y010888D01*
X018307Y010887D01*
X018355Y010882D01*
X018403Y010873D01*
X018449Y010860D01*
X018495Y010844D01*
X018539Y010824D01*
X018581Y010800D01*
X018621Y010774D01*
X018659Y010743D01*
X018694Y010710D01*
X018726Y010674D01*
X018756Y010636D01*
X018782Y010595D01*
X018804Y010553D01*
X018824Y010509D01*
X018839Y010463D01*
X018851Y010416D01*
X018859Y010368D01*
X018863Y010320D01*
X018863Y010272D01*
X018859Y010224D01*
X018851Y010176D01*
X018839Y010129D01*
X018824Y010083D01*
X018804Y010039D01*
X018782Y009997D01*
X018756Y009956D01*
X018726Y009918D01*
X018694Y009882D01*
X018659Y009849D01*
X018621Y009818D01*
X018581Y009792D01*
X018539Y009768D01*
X018495Y009748D01*
X018449Y009732D01*
X018403Y009719D01*
X018355Y009710D01*
X018307Y009705D01*
X018259Y009704D01*
X018211Y009707D01*
X018163Y009714D01*
X018116Y009725D01*
X018070Y009739D01*
X018025Y009757D01*
X017982Y009779D01*
X017941Y009805D01*
X017902Y009833D01*
X017865Y009865D01*
X017832Y009899D01*
X017801Y009936D01*
X017773Y009976D01*
X017749Y010018D01*
X017728Y010061D01*
X017710Y010106D01*
X017697Y010153D01*
X017687Y010200D01*
X017681Y010248D01*
X017679Y010296D01*
X016618Y008826D02*
X016618Y008117D01*
X015201Y008117D01*
X015201Y008826D01*
X016618Y008826D01*
X014964Y008826D02*
X014964Y008117D01*
X013547Y008117D01*
X013547Y008826D01*
X014964Y008826D01*
X014307Y007528D02*
X014307Y003001D01*
X016275Y003001D01*
X016275Y007528D01*
X014307Y007528D01*
D13*
X009595Y001239D02*
X009595Y001239D01*
X006889Y018085D02*
X006804Y018085D01*
X006634Y018255D01*
X006634Y018340D01*
X006719Y018425D01*
X006804Y018425D01*
X006852Y018558D02*
X006979Y018685D01*
X007064Y018685D01*
X007149Y018600D01*
X007149Y018515D01*
X007022Y018388D01*
X007107Y018303D02*
X006852Y018558D01*
X007107Y018473D02*
X007277Y018473D01*
X007367Y018564D02*
X007537Y018733D01*
X007452Y018649D02*
X007197Y018903D01*
X007197Y018733D01*
X007415Y019036D02*
X007415Y019121D01*
X007500Y019206D01*
X007585Y019206D01*
X007627Y019164D01*
X007627Y018824D01*
X007797Y018994D01*
X007888Y019084D02*
X008058Y019254D01*
X007973Y019169D02*
X007718Y019424D01*
X007718Y019254D01*
X008021Y019472D02*
X008148Y019600D01*
X008233Y019600D01*
X008276Y019557D01*
X008276Y019472D01*
X008191Y019387D01*
X008106Y019387D01*
X008021Y019472D01*
X008021Y019642D01*
X008063Y019769D01*
X006974Y018255D02*
X006974Y018170D01*
X006889Y018085D01*
D14*
X001892Y012659D02*
X001566Y012659D01*
X001566Y012009D01*
X001892Y012009D01*
X002000Y012117D01*
X002000Y012225D01*
X001892Y012334D01*
X001566Y012334D01*
X001892Y012334D02*
X002000Y012442D01*
X002000Y012551D01*
X001892Y012659D01*
X018066Y012442D02*
X018066Y012009D01*
X018066Y012334D02*
X018500Y012334D01*
X018500Y012442D02*
X018500Y012009D01*
X018500Y012442D02*
X018283Y012659D01*
X018066Y012442D01*
D15*
X011765Y006333D02*
X011151Y006333D01*
X008815Y006333D02*
X008201Y006333D01*
X008508Y006640D02*
X008508Y006026D01*
D16*
X009297Y012184D02*
X009117Y012374D01*
X009277Y012614D01*
X009290Y012572D02*
X009716Y012572D01*
X009694Y012513D02*
X009255Y012513D01*
X009220Y012455D02*
X009672Y012455D01*
X009650Y012396D02*
X009184Y012396D01*
X009177Y012384D02*
X009327Y012634D01*
X009227Y012884D01*
X008927Y012984D01*
X008927Y012934D01*
X008927Y013184D01*
X009227Y013234D01*
X009327Y013534D01*
X009127Y013734D01*
X009277Y013884D01*
X009577Y013734D01*
X009877Y013884D01*
X009827Y013884D01*
X009877Y014134D01*
X010127Y014134D01*
X010127Y013834D01*
X010427Y013734D01*
X010677Y013884D01*
X010827Y013784D01*
X010677Y013484D01*
X010777Y013234D01*
X011077Y013184D01*
X011077Y012934D01*
X010777Y012934D01*
X010677Y012584D01*
X010827Y012384D01*
X010677Y012234D01*
X010477Y012384D01*
X010377Y012334D01*
X010177Y012734D01*
X010377Y012934D01*
X010377Y013184D01*
X010227Y013434D01*
X009977Y013484D01*
X009677Y013384D01*
X009727Y013384D01*
X009577Y013134D01*
X009677Y012834D01*
X009777Y012734D01*
X009627Y012334D01*
X009527Y012384D01*
X009327Y012234D01*
X009177Y012384D01*
X009223Y012338D02*
X009465Y012338D01*
X009537Y012354D02*
X009297Y012184D01*
X009282Y012279D02*
X009387Y012279D01*
X009537Y012354D02*
X009637Y012294D01*
X009837Y012744D01*
X009764Y012748D02*
X009282Y012748D01*
X009258Y012806D02*
X009705Y012806D01*
X009667Y012865D02*
X009235Y012865D01*
X009177Y012884D02*
X008877Y012934D01*
X008877Y013194D01*
X009177Y013254D01*
X009241Y013275D02*
X009661Y013275D01*
X009696Y013333D02*
X009260Y013333D01*
X009280Y013392D02*
X009699Y013392D01*
X009875Y013450D02*
X009299Y013450D01*
X009287Y013504D02*
X009107Y013764D01*
X009297Y013944D01*
X009557Y013764D01*
X009560Y013743D02*
X009136Y013743D01*
X009177Y013684D02*
X010777Y013684D01*
X010748Y013626D02*
X009235Y013626D01*
X009294Y013567D02*
X010719Y013567D01*
X010689Y013509D02*
X009319Y013509D01*
X009118Y013216D02*
X009626Y013216D01*
X009591Y013157D02*
X008927Y013157D01*
X008927Y013099D02*
X009589Y013099D01*
X009608Y013040D02*
X008927Y013040D01*
X008934Y012982D02*
X009628Y012982D01*
X009647Y012923D02*
X009110Y012923D01*
X009305Y012689D02*
X009760Y012689D01*
X009738Y012631D02*
X009325Y012631D01*
X009620Y012338D02*
X009628Y012338D01*
X010157Y012744D02*
X010347Y012294D01*
X010447Y012354D01*
X010687Y012184D01*
X010877Y012374D01*
X010707Y012614D01*
X010690Y012631D02*
X010229Y012631D01*
X010200Y012689D02*
X010707Y012689D01*
X010724Y012748D02*
X010191Y012748D01*
X010249Y012806D02*
X010741Y012806D01*
X010757Y012865D02*
X010308Y012865D01*
X010366Y012923D02*
X010774Y012923D01*
X010807Y012884D02*
X011107Y012934D01*
X011107Y013194D01*
X010807Y013254D01*
X010761Y013275D02*
X010323Y013275D01*
X010288Y013333D02*
X010738Y013333D01*
X010714Y013392D02*
X010253Y013392D01*
X010147Y013450D02*
X010691Y013450D01*
X010697Y013504D02*
X010877Y013764D01*
X010687Y013944D01*
X010427Y013764D01*
X010442Y013743D02*
X010806Y013743D01*
X010801Y013801D02*
X010539Y013801D01*
X010637Y013860D02*
X010713Y013860D01*
X010401Y013743D02*
X009594Y013743D01*
X009712Y013801D02*
X010225Y013801D01*
X010177Y013864D02*
X010127Y014184D01*
X009857Y014184D01*
X009807Y013864D01*
X009829Y013860D02*
X010127Y013860D01*
X010127Y013919D02*
X009834Y013919D01*
X009846Y013977D02*
X010127Y013977D01*
X010127Y014036D02*
X009857Y014036D01*
X009869Y014094D02*
X010127Y014094D01*
X009443Y013801D02*
X009194Y013801D01*
X009253Y013860D02*
X009326Y013860D01*
X009837Y012754D02*
X009804Y012772D01*
X009774Y012793D01*
X009745Y012817D01*
X009719Y012844D01*
X009697Y012873D01*
X009677Y012905D01*
X009660Y012938D01*
X009647Y012973D01*
X009638Y013009D01*
X009632Y013046D01*
X009630Y013083D01*
X009632Y013120D01*
X009637Y013157D01*
X009647Y013193D01*
X009659Y013228D01*
X009676Y013262D01*
X009695Y013293D01*
X009718Y013323D01*
X009744Y013350D01*
X009772Y013374D01*
X009803Y013395D01*
X009835Y013413D01*
X009869Y013428D01*
X009905Y013439D01*
X009941Y013447D01*
X009978Y013451D01*
X010016Y013451D01*
X010053Y013447D01*
X010089Y013439D01*
X010125Y013428D01*
X010159Y013413D01*
X010191Y013395D01*
X010222Y013374D01*
X010250Y013350D01*
X010276Y013323D01*
X010299Y013293D01*
X010318Y013262D01*
X010335Y013228D01*
X010347Y013193D01*
X010357Y013157D01*
X010362Y013120D01*
X010364Y013083D01*
X010362Y013046D01*
X010356Y013009D01*
X010347Y012973D01*
X010334Y012938D01*
X010317Y012905D01*
X010297Y012873D01*
X010275Y012844D01*
X010249Y012817D01*
X010220Y012793D01*
X010190Y012772D01*
X010157Y012754D01*
X010258Y012572D02*
X010686Y012572D01*
X010730Y012513D02*
X010287Y012513D01*
X010317Y012455D02*
X010774Y012455D01*
X010818Y012396D02*
X010346Y012396D01*
X010375Y012338D02*
X010384Y012338D01*
X010539Y012338D02*
X010781Y012338D01*
X010722Y012279D02*
X010617Y012279D01*
X010377Y012982D02*
X011077Y012982D01*
X011077Y013040D02*
X010377Y013040D01*
X010377Y013099D02*
X011077Y013099D01*
X011077Y013157D02*
X010377Y013157D01*
X010358Y013216D02*
X010886Y013216D01*
X010806Y013255D02*
X010791Y013307D01*
X010772Y013358D01*
X010750Y013408D01*
X010725Y013456D01*
X010696Y013503D01*
X010807Y012881D02*
X010797Y012834D01*
X010784Y012788D01*
X010769Y012743D01*
X010751Y012698D01*
X010730Y012655D01*
X010707Y012614D01*
X009281Y012617D02*
X009253Y012667D01*
X009229Y012719D01*
X009208Y012772D01*
X009191Y012827D01*
X009178Y012883D01*
X009560Y013767D02*
X009605Y013792D01*
X009652Y013815D01*
X009700Y013834D01*
X009749Y013851D01*
X009799Y013864D01*
X009288Y013499D02*
X009261Y013453D01*
X009237Y013405D01*
X009216Y013356D01*
X009198Y013305D01*
X009184Y013254D01*
X010182Y013867D02*
X010234Y013853D01*
X010285Y013836D01*
X010335Y013816D01*
X010384Y013793D01*
X010431Y013766D01*
X013271Y015134D02*
X013271Y015734D01*
X014711Y015734D01*
X014711Y015134D01*
X013271Y015134D01*
D17*
X013255Y015849D02*
X013501Y015849D01*
X013623Y015849D02*
X013808Y015849D01*
X013870Y015910D01*
X013870Y016157D01*
X013808Y016219D01*
X013623Y016219D01*
X013623Y015849D01*
X013378Y016034D02*
X013255Y016034D01*
X013255Y016219D02*
X013255Y015849D01*
X013133Y015849D02*
X012886Y015849D01*
X012886Y016219D01*
X013255Y016219D02*
X013501Y016219D01*
X013991Y016219D02*
X014238Y016219D01*
X014238Y016157D01*
X013991Y015910D01*
X013991Y015849D01*
X014359Y015910D02*
X014421Y015849D01*
X014545Y015849D01*
X014606Y015910D01*
X014606Y015972D01*
X014545Y016034D01*
X014483Y016034D01*
X014545Y016034D02*
X014606Y016095D01*
X014606Y016157D01*
X014545Y016219D01*
X014421Y016219D01*
X014359Y016157D01*
X015379Y016275D02*
X015379Y015905D01*
X015379Y016028D02*
X015564Y016028D01*
X015626Y016090D01*
X015626Y016213D01*
X015564Y016275D01*
X015379Y016275D01*
X015747Y016152D02*
X015871Y016275D01*
X015871Y015905D01*
X015994Y015905D02*
X015747Y015905D01*
X015626Y015905D02*
X015502Y016028D01*
X016115Y015905D02*
X016362Y015905D01*
X016239Y015905D02*
X016239Y016275D01*
X016115Y016152D01*
X016091Y013136D02*
X016276Y013136D01*
X016338Y013074D01*
X016338Y012951D01*
X016276Y012889D01*
X016091Y012889D01*
X016091Y012766D02*
X016091Y013136D01*
X016215Y012889D02*
X016338Y012766D01*
X016459Y012766D02*
X016706Y012766D01*
X016583Y012766D02*
X016583Y013136D01*
X016459Y013012D01*
X016828Y012951D02*
X016951Y013012D01*
X017013Y013012D01*
X017075Y012951D01*
X017075Y012827D01*
X017013Y012766D01*
X016889Y012766D01*
X016828Y012827D01*
X016828Y012951D02*
X016828Y013136D01*
X017075Y013136D01*
X015726Y012973D02*
X015480Y012973D01*
X015665Y013158D01*
X015665Y012788D01*
X015358Y012788D02*
X015111Y012788D01*
X014990Y012788D02*
X014866Y012911D01*
X014928Y012911D02*
X014743Y012911D01*
X014743Y012788D02*
X014743Y013158D01*
X014928Y013158D01*
X014990Y013097D01*
X014990Y012973D01*
X014928Y012911D01*
X015111Y013035D02*
X015235Y013158D01*
X015235Y012788D01*
X014359Y012808D02*
X014298Y012747D01*
X014174Y012747D01*
X014112Y012808D01*
X013991Y012747D02*
X013744Y012747D01*
X013623Y012747D02*
X013499Y012870D01*
X013561Y012870D02*
X013376Y012870D01*
X013376Y012747D02*
X013376Y013117D01*
X013561Y013117D01*
X013623Y013055D01*
X013623Y012932D01*
X013561Y012870D01*
X013744Y012994D02*
X013868Y013117D01*
X013868Y012747D01*
X014236Y012932D02*
X014298Y012932D01*
X014359Y012870D01*
X014359Y012808D01*
X014298Y012932D02*
X014359Y012994D01*
X014359Y013055D01*
X014298Y013117D01*
X014174Y013117D01*
X014112Y013055D01*
X012936Y013054D02*
X012936Y012992D01*
X012875Y012930D01*
X012936Y012869D01*
X012936Y012807D01*
X012875Y012745D01*
X012751Y012745D01*
X012690Y012807D01*
X012568Y012745D02*
X012445Y012869D01*
X012506Y012869D02*
X012321Y012869D01*
X012321Y012745D02*
X012321Y013116D01*
X012506Y013116D01*
X012568Y013054D01*
X012568Y012930D01*
X012506Y012869D01*
X012690Y013054D02*
X012751Y013116D01*
X012875Y013116D01*
X012936Y013054D01*
X012875Y012930D02*
X012813Y012930D01*
X014756Y011078D02*
X014879Y011078D01*
X014817Y011078D02*
X014817Y010708D01*
X014756Y010708D02*
X014879Y010708D01*
X015001Y010770D02*
X015063Y010708D01*
X015186Y010708D01*
X015248Y010770D01*
X015369Y010708D02*
X015616Y010708D01*
X015493Y010708D02*
X015493Y011078D01*
X015369Y010955D01*
X015248Y011016D02*
X015186Y011078D01*
X015063Y011078D01*
X015001Y011016D01*
X015001Y010770D01*
X013302Y010661D02*
X013055Y010908D01*
X012993Y010908D01*
X012931Y010847D01*
X012931Y010723D01*
X012993Y010661D01*
X012993Y010540D02*
X012931Y010478D01*
X012931Y010355D01*
X012993Y010293D01*
X013240Y010293D01*
X013302Y010355D01*
X013302Y010478D01*
X013240Y010540D01*
X013302Y010661D02*
X013302Y010908D01*
X013615Y009343D02*
X013553Y009281D01*
X013553Y009034D01*
X013615Y008972D01*
X013739Y008972D01*
X013800Y009034D01*
X013922Y009157D02*
X014169Y009157D01*
X014107Y008972D02*
X014107Y009343D01*
X013922Y009157D01*
X013800Y009281D02*
X013739Y009343D01*
X013615Y009343D01*
X015234Y009234D02*
X015234Y008987D01*
X015295Y008925D01*
X015419Y008925D01*
X015481Y008987D01*
X015602Y008987D02*
X015664Y008925D01*
X015787Y008925D01*
X015849Y008987D01*
X015849Y009049D01*
X015787Y009111D01*
X015725Y009111D01*
X015787Y009111D02*
X015849Y009172D01*
X015849Y009234D01*
X015787Y009296D01*
X015664Y009296D01*
X015602Y009234D01*
X015481Y009234D02*
X015419Y009296D01*
X015295Y009296D01*
X015234Y009234D01*
X014184Y007451D02*
X014184Y007204D01*
X014184Y007082D02*
X013814Y006836D01*
X013814Y007082D02*
X014184Y006836D01*
X013938Y007204D02*
X013814Y007327D01*
X014184Y007327D01*
X012429Y007308D02*
X012059Y007308D01*
X012183Y007185D01*
X012121Y007063D02*
X012244Y007063D01*
X012306Y007002D01*
X012306Y006817D01*
X012306Y006940D02*
X012429Y007063D01*
X012429Y007185D02*
X012429Y007432D01*
X012121Y007063D02*
X012059Y007002D01*
X012059Y006817D01*
X012429Y006817D01*
X010869Y006392D02*
X010622Y006392D01*
X010746Y006392D02*
X010746Y006762D01*
X010622Y006638D01*
X010501Y006700D02*
X010439Y006762D01*
X010316Y006762D01*
X010254Y006700D01*
X010254Y006453D01*
X010316Y006392D01*
X010439Y006392D01*
X010501Y006453D01*
X012056Y005574D02*
X012056Y005450D01*
X012118Y005389D01*
X012118Y005267D02*
X012241Y005267D01*
X012303Y005205D01*
X012303Y005020D01*
X012427Y005020D02*
X012056Y005020D01*
X012056Y005205D01*
X012118Y005267D01*
X012303Y005144D02*
X012427Y005267D01*
X012427Y005389D02*
X012180Y005635D01*
X012118Y005635D01*
X012056Y005574D01*
X012427Y005635D02*
X012427Y005389D01*
X007776Y004776D02*
X007406Y004776D01*
X007591Y004591D01*
X007591Y004838D01*
X007591Y004469D02*
X007468Y004469D01*
X007406Y004408D01*
X007406Y004223D01*
X007776Y004223D01*
X007653Y004223D02*
X007653Y004408D01*
X007591Y004469D01*
X007653Y004346D02*
X007776Y004469D01*
X007768Y005940D02*
X007398Y005940D01*
X007398Y006125D01*
X007460Y006187D01*
X007583Y006187D01*
X007645Y006125D01*
X007645Y005940D01*
X007645Y006064D02*
X007768Y006187D01*
X007768Y006309D02*
X007768Y006555D01*
X007768Y006432D02*
X007398Y006432D01*
X007521Y006309D01*
X007460Y006677D02*
X007398Y006739D01*
X007398Y006862D01*
X007460Y006924D01*
X007707Y006677D01*
X007768Y006739D01*
X007768Y006862D01*
X007707Y006924D01*
X007460Y006924D01*
X007460Y006677D02*
X007707Y006677D01*
X003879Y009017D02*
X003509Y009017D01*
X003509Y009202D01*
X003571Y009264D01*
X003694Y009264D01*
X003756Y009202D01*
X003756Y009017D01*
X003756Y009141D02*
X003879Y009264D01*
X003818Y009386D02*
X003879Y009447D01*
X003879Y009571D01*
X003818Y009632D01*
X003571Y009632D01*
X003509Y009571D01*
X003509Y009447D01*
X003571Y009386D01*
X003632Y009386D01*
X003694Y009447D01*
X003694Y009632D01*
X003704Y010326D02*
X003704Y010511D01*
X003642Y010573D01*
X003519Y010573D01*
X003457Y010511D01*
X003457Y010326D01*
X003828Y010326D01*
X003704Y010449D02*
X003828Y010573D01*
X003766Y010694D02*
X003704Y010694D01*
X003642Y010756D01*
X003642Y010879D01*
X003704Y010941D01*
X003766Y010941D01*
X003828Y010879D01*
X003828Y010756D01*
X003766Y010694D01*
X003642Y010756D02*
X003581Y010694D01*
X003519Y010694D01*
X003457Y010756D01*
X003457Y010879D01*
X003519Y010941D01*
X003581Y010941D01*
X003642Y010879D01*
X003732Y011584D02*
X003732Y011769D01*
X003670Y011830D01*
X003547Y011830D01*
X003485Y011769D01*
X003485Y011584D01*
X003855Y011584D01*
X003732Y011707D02*
X003855Y011830D01*
X003855Y011952D02*
X003794Y011952D01*
X003547Y012199D01*
X003485Y012199D01*
X003485Y011952D01*
X007498Y011885D02*
X007621Y011762D01*
X007560Y011640D02*
X007683Y011640D01*
X007745Y011578D01*
X007745Y011393D01*
X007868Y011393D02*
X007498Y011393D01*
X007498Y011578D01*
X007560Y011640D01*
X007745Y011517D02*
X007868Y011640D01*
X007868Y011762D02*
X007868Y012008D01*
X007868Y012130D02*
X007621Y012377D01*
X007560Y012377D01*
X007498Y012315D01*
X007498Y012192D01*
X007560Y012130D01*
X007498Y011885D02*
X007868Y011885D01*
X007868Y012130D02*
X007868Y012377D01*
X007808Y010939D02*
X007684Y010939D01*
X007622Y010877D01*
X007622Y010815D01*
X007684Y010692D01*
X007499Y010692D01*
X007499Y010939D01*
X007808Y010939D02*
X007869Y010877D01*
X007869Y010754D01*
X007808Y010692D01*
X007869Y010570D02*
X007746Y010447D01*
X007746Y010509D02*
X007746Y010324D01*
X007869Y010324D02*
X007499Y010324D01*
X007499Y010509D01*
X007561Y010570D01*
X007684Y010570D01*
X007746Y010509D01*
X003652Y008386D02*
X003652Y008263D01*
X003590Y008201D01*
X003467Y008201D01*
X003467Y008386D01*
X003529Y008448D01*
X003590Y008448D01*
X003652Y008386D01*
X003467Y008201D02*
X003344Y008324D01*
X003282Y008448D01*
X003344Y008079D02*
X003467Y008079D01*
X003529Y008018D01*
X003529Y007833D01*
X003529Y007956D02*
X003652Y008079D01*
X003652Y007833D02*
X003282Y007833D01*
X003282Y008018D01*
X003344Y008079D01*
X003351Y007284D02*
X003289Y007284D01*
X003227Y007222D01*
X003227Y007099D01*
X003289Y007037D01*
X003227Y006915D02*
X003598Y006669D01*
X003598Y006915D02*
X003227Y006669D01*
X003598Y007037D02*
X003351Y007284D01*
X003598Y007284D02*
X003598Y007037D01*
D18*
X007295Y007649D03*
D19*
X007295Y007656D03*
D20*
X007292Y007663D03*
D21*
X007288Y007670D03*
D22*
X007285Y007677D03*
D23*
X007281Y007684D03*
D24*
X007281Y007691D03*
X007869Y008510D03*
D25*
X007281Y007698D03*
X007848Y009518D03*
D26*
X007274Y007705D03*
D27*
X007274Y007712D03*
D28*
X007274Y007719D03*
D29*
X007267Y007726D03*
D30*
X007267Y007733D03*
D31*
X007267Y007740D03*
X006833Y009224D03*
X006833Y009231D03*
X006833Y009245D03*
X006833Y009252D03*
D32*
X006606Y009231D03*
X006606Y009224D03*
X006606Y009217D03*
X006606Y009210D03*
X006599Y009175D03*
X006599Y009161D03*
X006592Y009119D03*
X006592Y009112D03*
X006592Y009105D03*
X006571Y008965D03*
X006571Y008951D03*
X006571Y008944D03*
X006571Y008937D03*
X006571Y008930D03*
X006564Y008916D03*
X006564Y008909D03*
X006564Y008902D03*
X006564Y008895D03*
X006564Y008881D03*
X006872Y008902D03*
X006872Y008909D03*
X006872Y008916D03*
X006872Y008930D03*
X006872Y008937D03*
X006879Y008881D03*
X006851Y008055D03*
X006879Y008034D03*
X006991Y007950D03*
X007166Y007824D03*
X007264Y007747D03*
D33*
X007260Y007754D03*
X007232Y007775D03*
X007155Y007831D03*
X007127Y007852D03*
X007120Y007859D03*
X007085Y007880D03*
X007057Y007901D03*
X007022Y007929D03*
X006980Y007957D03*
X006945Y007985D03*
X006917Y008006D03*
X006840Y008062D03*
X006875Y008895D03*
D34*
X007456Y009140D03*
X007456Y009147D03*
X007694Y009315D03*
X007694Y009322D03*
X006833Y008069D03*
X006868Y008041D03*
X006889Y008027D03*
X006896Y008020D03*
X006924Y007999D03*
X006938Y007992D03*
X006973Y007964D03*
X007008Y007936D03*
X007029Y007922D03*
X007036Y007915D03*
X007064Y007894D03*
X007078Y007887D03*
X007106Y007866D03*
X007134Y007845D03*
X007176Y007817D03*
X007183Y007810D03*
X007204Y007796D03*
X007211Y007789D03*
X007218Y007782D03*
X007246Y007761D03*
D35*
X007239Y007768D03*
X007148Y007838D03*
X007001Y007943D03*
X006861Y008048D03*
D36*
X006952Y007978D03*
X007050Y007908D03*
X007190Y007803D03*
D37*
X007096Y007873D03*
X006907Y008013D03*
X006879Y008888D03*
X006872Y008923D03*
X006571Y008923D03*
X006571Y008958D03*
X006564Y008888D03*
X006599Y009168D03*
D38*
X006585Y009070D03*
X006585Y009056D03*
X006585Y009049D03*
X006578Y009021D03*
X006578Y009014D03*
X006578Y009007D03*
X006578Y009000D03*
X006858Y009035D03*
X006865Y008986D03*
X006865Y008979D03*
X006865Y008972D03*
X006865Y008965D03*
X006963Y007971D03*
D39*
X006413Y008076D03*
D40*
X006340Y008181D03*
X007810Y008181D03*
X007810Y008174D03*
X007810Y008167D03*
X007810Y008160D03*
X007810Y008146D03*
X007810Y008139D03*
X007810Y008132D03*
X007810Y008125D03*
X007810Y008111D03*
X007810Y008104D03*
X007810Y008097D03*
X007810Y008090D03*
X007810Y008076D03*
X007810Y008195D03*
X007810Y008202D03*
X007810Y008209D03*
X007810Y009875D03*
X007810Y009882D03*
X007810Y009889D03*
X007810Y009896D03*
X007810Y009966D03*
X007810Y009980D03*
X007810Y009987D03*
X007810Y009994D03*
X007810Y010001D03*
D41*
X006410Y008083D03*
D42*
X007810Y008083D03*
X007810Y008118D03*
X007810Y008153D03*
X007810Y008188D03*
X007810Y009868D03*
X007810Y009903D03*
X007810Y009973D03*
D43*
X006403Y008090D03*
D44*
X006399Y008097D03*
D45*
X006392Y008104D03*
D46*
X006389Y008111D03*
D47*
X006382Y008118D03*
D48*
X006378Y008125D03*
D49*
X006371Y008132D03*
D50*
X006368Y008139D03*
D51*
X006364Y008146D03*
D52*
X006361Y008153D03*
D53*
X006354Y008160D03*
D54*
X006350Y008167D03*
D55*
X006343Y008174D03*
D56*
X006336Y008188D03*
D57*
X006329Y008195D03*
D58*
X006326Y008202D03*
D59*
X006319Y008209D03*
D60*
X005962Y008216D03*
X005962Y008230D03*
X005962Y008237D03*
X005962Y008244D03*
X005962Y008251D03*
X005962Y008265D03*
X005962Y008272D03*
X005962Y008279D03*
X005962Y008286D03*
X005962Y008300D03*
X005962Y008307D03*
X005962Y008314D03*
X005962Y008321D03*
X005962Y008335D03*
X005962Y008342D03*
X005962Y008349D03*
X005962Y008356D03*
X005962Y008370D03*
X005962Y008377D03*
X005962Y008384D03*
X005962Y008391D03*
X005962Y008405D03*
X005962Y008412D03*
X005962Y008419D03*
X005962Y008426D03*
X005962Y008440D03*
X005962Y008447D03*
X005962Y008454D03*
X005962Y008461D03*
X005962Y008475D03*
X005962Y008482D03*
X005962Y008489D03*
X005962Y008496D03*
X005962Y008510D03*
X005962Y008517D03*
X005962Y008524D03*
X005962Y009504D03*
X005962Y009511D03*
X005962Y009525D03*
X005962Y009532D03*
X005962Y009539D03*
X005962Y009546D03*
X005962Y009560D03*
X005962Y009567D03*
X005962Y009574D03*
X005962Y009581D03*
X005962Y009595D03*
X005962Y009602D03*
X005962Y009609D03*
X005962Y009616D03*
X005962Y009630D03*
X005962Y009637D03*
X005962Y009644D03*
X005962Y009651D03*
X005962Y009665D03*
X005962Y009672D03*
X005962Y009679D03*
X005962Y009686D03*
X005962Y009700D03*
X005962Y009707D03*
X005962Y009714D03*
X005962Y009721D03*
X005962Y009735D03*
X005962Y009742D03*
X005962Y009749D03*
X005962Y009756D03*
X005962Y009770D03*
X005962Y009777D03*
X005962Y009784D03*
X005962Y009791D03*
X005962Y009805D03*
X005962Y009812D03*
X005962Y009819D03*
X005962Y009826D03*
X005962Y009840D03*
X005962Y009847D03*
X005962Y009854D03*
X005962Y009861D03*
D61*
X008191Y009861D03*
X008191Y009854D03*
X008191Y009847D03*
X008191Y009840D03*
X008191Y009826D03*
X008191Y009819D03*
X008191Y009812D03*
X008191Y009805D03*
X008191Y009791D03*
X008191Y009784D03*
X008191Y009777D03*
X008191Y009770D03*
X008191Y009756D03*
X008191Y009749D03*
X008191Y009742D03*
X008191Y009735D03*
X008191Y009721D03*
X008191Y009714D03*
X008191Y009707D03*
X008191Y009700D03*
X008191Y009686D03*
X008191Y009679D03*
X008191Y009672D03*
X008191Y009665D03*
X008191Y009651D03*
X008191Y009644D03*
X008191Y009637D03*
X008191Y009630D03*
X008191Y009616D03*
X008191Y009609D03*
X008191Y009602D03*
X008191Y009595D03*
X008191Y009581D03*
X008191Y009574D03*
X008191Y009567D03*
X008191Y009560D03*
X008191Y009546D03*
X008191Y009539D03*
X008191Y009532D03*
X008191Y009525D03*
X008191Y009511D03*
X008191Y009504D03*
X008191Y009497D03*
X008191Y009490D03*
X008191Y009476D03*
X008191Y009469D03*
X008191Y009462D03*
X008191Y009455D03*
X008191Y009441D03*
X008191Y009434D03*
X008191Y009427D03*
X008191Y009420D03*
X008191Y009406D03*
X008191Y009399D03*
X008191Y009392D03*
X008191Y009385D03*
X008191Y009371D03*
X008191Y009364D03*
X008191Y009357D03*
X008191Y009196D03*
X008191Y009189D03*
X008191Y009182D03*
X008191Y009175D03*
X008191Y009161D03*
X008191Y009154D03*
X008191Y009147D03*
X008191Y009140D03*
X008191Y009126D03*
X008191Y009119D03*
X008191Y009112D03*
X008191Y009105D03*
X008191Y009091D03*
X008191Y009084D03*
X008191Y009077D03*
X008191Y009070D03*
X008191Y009056D03*
X008191Y009049D03*
X008191Y009042D03*
X008191Y009035D03*
X008191Y009021D03*
X008191Y009014D03*
X008191Y009007D03*
X008191Y009000D03*
X008191Y008986D03*
X008191Y008979D03*
X008191Y008972D03*
X008191Y008965D03*
X008191Y008601D03*
X008191Y008594D03*
X008191Y008587D03*
X008191Y008580D03*
X008191Y008566D03*
X008191Y008559D03*
X008191Y008552D03*
X008191Y008545D03*
X008191Y008531D03*
X008191Y008524D03*
X008191Y008517D03*
X008191Y008510D03*
X008191Y008496D03*
X008191Y008489D03*
X008191Y008482D03*
X008191Y008475D03*
X008191Y008461D03*
X008191Y008454D03*
X008191Y008447D03*
X008191Y008440D03*
X008191Y008426D03*
X008191Y008419D03*
X008191Y008412D03*
X008191Y008405D03*
X008191Y008391D03*
X008191Y008384D03*
X008191Y008377D03*
X008191Y008370D03*
X008191Y008356D03*
X008191Y008349D03*
X008191Y008342D03*
X008191Y008335D03*
X008191Y008321D03*
X008191Y008314D03*
X008191Y008307D03*
X008191Y008300D03*
X008191Y008286D03*
X008191Y008279D03*
X008191Y008272D03*
X008191Y008265D03*
X008191Y008251D03*
X008191Y008244D03*
X008191Y008237D03*
X008191Y008230D03*
X008191Y008216D03*
D62*
X005962Y008223D03*
X005962Y008258D03*
X005962Y008293D03*
X005962Y008328D03*
X005962Y008363D03*
X005962Y008398D03*
X005962Y008433D03*
X005962Y008468D03*
X005962Y008503D03*
X005962Y009518D03*
X005962Y009553D03*
X005962Y009588D03*
X005962Y009623D03*
X005962Y009658D03*
X005962Y009693D03*
X005962Y009728D03*
X005962Y009763D03*
X005962Y009798D03*
X005962Y009833D03*
D63*
X008191Y009833D03*
X008191Y009798D03*
X008191Y009763D03*
X008191Y009728D03*
X008191Y009693D03*
X008191Y009658D03*
X008191Y009623D03*
X008191Y009588D03*
X008191Y009553D03*
X008191Y009518D03*
X008191Y009483D03*
X008191Y009448D03*
X008191Y009413D03*
X008191Y009378D03*
X008191Y009203D03*
X008191Y009168D03*
X008191Y009133D03*
X008191Y009098D03*
X008191Y009063D03*
X008191Y009028D03*
X008191Y008993D03*
X008191Y008958D03*
X008191Y008608D03*
X008191Y008573D03*
X008191Y008538D03*
X008191Y008503D03*
X008191Y008468D03*
X008191Y008433D03*
X008191Y008398D03*
X008191Y008363D03*
X008191Y008328D03*
X008191Y008293D03*
X008191Y008258D03*
X008191Y008223D03*
D64*
X007869Y008517D03*
D65*
X007869Y008524D03*
X007470Y008909D03*
X007470Y008916D03*
X007463Y008944D03*
X007449Y009322D03*
D66*
X006277Y008545D03*
X006277Y008531D03*
D67*
X007099Y008531D03*
D68*
X007873Y008531D03*
D69*
X007166Y008573D03*
X006277Y008538D03*
D70*
X007134Y008538D03*
D71*
X007869Y008538D03*
D72*
X007145Y008545D03*
D73*
X007764Y009119D03*
X007869Y008545D03*
D74*
X007169Y008580D03*
X006280Y008587D03*
X006280Y008580D03*
X006280Y008566D03*
X006280Y008559D03*
X006280Y008552D03*
X006280Y008594D03*
X006280Y008601D03*
X006280Y008615D03*
X006280Y008622D03*
D75*
X007152Y008552D03*
D76*
X007869Y008552D03*
X006714Y009455D03*
X006714Y009462D03*
X006714Y009469D03*
X006714Y009476D03*
X006714Y009490D03*
D77*
X007159Y008559D03*
D78*
X007869Y008559D03*
X008065Y008671D03*
X008065Y008874D03*
X007918Y008979D03*
X007911Y008986D03*
X007799Y009084D03*
X006714Y009406D03*
X006714Y009420D03*
X006714Y009427D03*
X006714Y009434D03*
X006084Y009434D03*
X006084Y009427D03*
X006084Y009420D03*
X006084Y009406D03*
X006084Y009399D03*
X006084Y009392D03*
X006084Y009385D03*
X006084Y009371D03*
X006084Y009364D03*
X006084Y009357D03*
X006084Y009350D03*
X006084Y009336D03*
X006084Y009329D03*
X006084Y009322D03*
X006084Y009315D03*
X006084Y009301D03*
X006084Y009294D03*
X006084Y009287D03*
X006084Y009280D03*
X006084Y009266D03*
X006084Y009259D03*
X006084Y009252D03*
X006084Y009245D03*
X006084Y009231D03*
X006084Y009224D03*
X006084Y009217D03*
X006084Y009210D03*
X006084Y009196D03*
X006084Y009189D03*
X006084Y009182D03*
X006084Y009175D03*
X006084Y009161D03*
X006084Y009154D03*
X006084Y009147D03*
X006084Y009140D03*
X006084Y009126D03*
X006084Y009119D03*
X006084Y009112D03*
X006084Y009105D03*
X006084Y009091D03*
X006084Y009084D03*
X006084Y009077D03*
X006084Y009070D03*
X006084Y009056D03*
X006084Y009049D03*
X006084Y009042D03*
X006084Y009035D03*
X006084Y009021D03*
X006084Y009014D03*
X006084Y009007D03*
X006084Y009000D03*
X006084Y008986D03*
X006084Y008979D03*
X006084Y008972D03*
X006084Y008965D03*
X006084Y008951D03*
X006084Y008944D03*
X006084Y008937D03*
X006084Y008930D03*
X006084Y008916D03*
X006084Y008909D03*
X006084Y008902D03*
X006084Y008895D03*
X006084Y008881D03*
X006084Y008874D03*
X006084Y008867D03*
X006084Y008860D03*
X006084Y008846D03*
X006084Y008839D03*
X006084Y008832D03*
X006084Y008825D03*
X006084Y008811D03*
X006084Y008804D03*
X006084Y008797D03*
X006084Y008790D03*
X006084Y008776D03*
X006084Y008769D03*
X006084Y008762D03*
X006084Y008755D03*
X006084Y008741D03*
X006084Y008734D03*
X006084Y008727D03*
X006084Y009441D03*
X006084Y009455D03*
X006084Y009462D03*
X006084Y009469D03*
X006084Y009476D03*
X006084Y009490D03*
X006084Y009497D03*
D79*
X007162Y008566D03*
D80*
X007869Y008566D03*
X006714Y009315D03*
X006714Y009322D03*
X006714Y009329D03*
D81*
X006280Y008608D03*
X006280Y008573D03*
D82*
X006714Y009273D03*
X007225Y009483D03*
X007869Y008573D03*
D83*
X007869Y008580D03*
D84*
X007173Y008587D03*
D85*
X007869Y008587D03*
X008023Y008937D03*
D86*
X007176Y008601D03*
X007176Y008594D03*
D87*
X007250Y009042D03*
X007250Y009462D03*
X008020Y008944D03*
X007873Y008594D03*
D88*
X007869Y008601D03*
X007589Y009196D03*
X007855Y009427D03*
D89*
X007180Y008608D03*
D90*
X007869Y008608D03*
X007260Y009448D03*
D91*
X007180Y008615D03*
D92*
X007936Y008622D03*
X007936Y008615D03*
D93*
X007183Y008622D03*
X007183Y008629D03*
D94*
X006284Y008636D03*
X006284Y008629D03*
X006284Y008650D03*
X006284Y008657D03*
X006284Y008664D03*
X006284Y008671D03*
X006284Y008685D03*
X006284Y008692D03*
X006284Y008699D03*
D95*
X007932Y008636D03*
X007932Y008629D03*
D96*
X007180Y008636D03*
D97*
X006284Y008643D03*
X006284Y008678D03*
D98*
X007183Y008643D03*
X006301Y009868D03*
X006301Y009903D03*
X006301Y009973D03*
D99*
X007929Y008643D03*
D100*
X007183Y008650D03*
X007183Y008657D03*
X006301Y009875D03*
X006301Y009882D03*
X006301Y009889D03*
X006301Y009896D03*
X006301Y009966D03*
X006301Y009980D03*
X006301Y009987D03*
X006301Y009994D03*
X006301Y010001D03*
D101*
X007929Y008657D03*
X007929Y008650D03*
D102*
X007516Y008664D03*
D103*
X007309Y008671D03*
D104*
X007302Y008678D03*
D105*
X007785Y009098D03*
X008072Y009343D03*
X008072Y008678D03*
D106*
X007299Y008685D03*
X007299Y008692D03*
D107*
X007782Y009105D03*
X008076Y009210D03*
X008076Y009217D03*
X008076Y009224D03*
X008076Y009231D03*
X008076Y009245D03*
X008076Y009252D03*
X008076Y009259D03*
X008076Y009266D03*
X008076Y009280D03*
X008076Y009287D03*
X008076Y009294D03*
X008076Y009301D03*
X008076Y009315D03*
X008076Y009322D03*
X008076Y009329D03*
X008076Y008685D03*
D108*
X008079Y008692D03*
X008079Y008699D03*
X008079Y008825D03*
X008079Y008832D03*
X008079Y008839D03*
X008079Y008846D03*
D109*
X008013Y008951D03*
X007593Y009189D03*
X007852Y009420D03*
X007257Y009455D03*
X007019Y008699D03*
X007572Y008706D03*
D110*
X007565Y008699D03*
X007600Y009175D03*
D111*
X006578Y008720D03*
X006578Y008706D03*
D112*
X008083Y008706D03*
X008083Y008720D03*
X008083Y008727D03*
X008083Y008734D03*
X008083Y008741D03*
X008083Y008755D03*
X008083Y008762D03*
X008083Y008769D03*
X008083Y008776D03*
X008083Y008790D03*
X008083Y008797D03*
X008083Y008804D03*
X008083Y008811D03*
D113*
X006578Y008713D03*
D114*
X007253Y009063D03*
X007575Y008713D03*
D115*
X008083Y008713D03*
X008083Y008748D03*
X008083Y008783D03*
X008083Y008818D03*
X007852Y009483D03*
D116*
X007852Y009434D03*
X007579Y008727D03*
X007579Y008720D03*
D117*
X006847Y008727D03*
X006847Y008734D03*
X006847Y008741D03*
X006847Y008755D03*
D118*
X007582Y008762D03*
X007582Y008755D03*
X007582Y008741D03*
X007582Y008734D03*
X007582Y008769D03*
X007582Y008776D03*
X007582Y008790D03*
X007582Y008797D03*
X007582Y008804D03*
X007582Y008811D03*
X007582Y008825D03*
X007582Y008832D03*
X007582Y008839D03*
X007582Y008846D03*
X007582Y008860D03*
X007582Y008867D03*
X007582Y008874D03*
X007582Y009210D03*
X007582Y009217D03*
X007582Y009224D03*
X007575Y009294D03*
X007575Y009301D03*
D119*
X006714Y009413D03*
X006084Y009413D03*
X006084Y009378D03*
X006084Y009343D03*
X006084Y009308D03*
X006084Y009273D03*
X006084Y009238D03*
X006084Y009203D03*
X006084Y009168D03*
X006084Y009133D03*
X006084Y009098D03*
X006084Y009063D03*
X006084Y009028D03*
X006084Y008993D03*
X006084Y008958D03*
X006084Y008923D03*
X006084Y008888D03*
X006084Y008853D03*
X006084Y008818D03*
X006084Y008783D03*
X006084Y008748D03*
X006084Y009448D03*
X006084Y009483D03*
D120*
X006847Y008748D03*
D121*
X007582Y008748D03*
X007582Y008783D03*
X007582Y008818D03*
X007582Y008853D03*
X007575Y009308D03*
D122*
X006721Y008804D03*
X006721Y008797D03*
X006721Y008790D03*
X006721Y008776D03*
X006721Y008769D03*
X006721Y008762D03*
D123*
X007138Y008762D03*
X007138Y008769D03*
X007138Y008776D03*
X007138Y008790D03*
X007138Y008797D03*
X007138Y008804D03*
X007138Y008811D03*
X007138Y008825D03*
X007138Y008832D03*
X007138Y008839D03*
X007138Y008846D03*
X007138Y008860D03*
X007138Y008867D03*
X007138Y008874D03*
X007138Y008881D03*
X007138Y008895D03*
X007138Y008902D03*
X007138Y008909D03*
X007138Y008916D03*
X007138Y008930D03*
X007138Y008937D03*
X007138Y008944D03*
X007138Y008951D03*
X007138Y008965D03*
X007138Y009119D03*
X007138Y009126D03*
X007138Y009140D03*
X007138Y009147D03*
X007138Y009154D03*
X007138Y009161D03*
X007138Y009175D03*
X007138Y009182D03*
X007138Y009189D03*
X007138Y009196D03*
X007138Y009210D03*
X007138Y009217D03*
X007138Y009224D03*
X007138Y009231D03*
X007138Y009245D03*
X007138Y009252D03*
X007138Y009259D03*
X007138Y009266D03*
X007138Y009280D03*
X007138Y009287D03*
X007138Y009294D03*
X007138Y009301D03*
X007138Y009315D03*
X007138Y009322D03*
X007138Y009329D03*
X007460Y008951D03*
X007467Y008937D03*
X007467Y008930D03*
X007705Y009350D03*
X007852Y009504D03*
D124*
X006721Y008783D03*
D125*
X007138Y008783D03*
X007138Y008818D03*
X007138Y008853D03*
X007138Y008888D03*
X007138Y008923D03*
X007138Y008958D03*
X007138Y009133D03*
X007138Y009168D03*
X007138Y009203D03*
X007138Y009238D03*
X007138Y009273D03*
X007138Y009308D03*
D126*
X007292Y009336D03*
X007292Y008986D03*
X007292Y008979D03*
X006718Y008811D03*
D127*
X006721Y008818D03*
D128*
X006721Y008825D03*
X006721Y008832D03*
X006721Y008839D03*
X006721Y008846D03*
D129*
X006718Y008853D03*
X007285Y009378D03*
D130*
X008076Y009308D03*
X008076Y009273D03*
X008076Y009238D03*
X008076Y008853D03*
D131*
X007285Y009000D03*
X007285Y009105D03*
X007285Y009112D03*
X007285Y009385D03*
X006718Y008860D03*
D132*
X007925Y008972D03*
X007932Y008965D03*
X008072Y008860D03*
X008072Y009336D03*
D133*
X007848Y009357D03*
X007281Y009392D03*
X007281Y009399D03*
X007281Y009007D03*
X006721Y008874D03*
X006721Y008867D03*
D134*
X008069Y008867D03*
X008069Y009350D03*
D135*
X007474Y008902D03*
X007474Y008895D03*
X007474Y008881D03*
D136*
X007810Y009077D03*
X007817Y009070D03*
X008062Y008881D03*
X007852Y009469D03*
X006718Y009399D03*
X006718Y009392D03*
D137*
X007474Y008888D03*
D138*
X008058Y008888D03*
X006714Y009378D03*
D139*
X006718Y009357D03*
X006718Y009350D03*
X006718Y009336D03*
X007838Y009049D03*
X007845Y009042D03*
X007873Y009021D03*
X007880Y009014D03*
X008055Y008895D03*
D140*
X008048Y008902D03*
X007852Y009462D03*
X006718Y009301D03*
X006718Y009294D03*
X006718Y009287D03*
D141*
X006714Y009280D03*
X008044Y008909D03*
D142*
X008037Y008916D03*
D143*
X007470Y008923D03*
X007701Y009343D03*
D144*
X008034Y008923D03*
D145*
X008027Y008930D03*
X007852Y009441D03*
X007243Y009469D03*
D146*
X006847Y009126D03*
X006847Y009119D03*
X006847Y009112D03*
X006847Y009105D03*
X006854Y009077D03*
X006854Y009070D03*
X006854Y009056D03*
X006854Y009049D03*
X006854Y009042D03*
X006868Y008951D03*
X006868Y008944D03*
X006574Y008972D03*
X006574Y008979D03*
X006574Y008986D03*
X006588Y009077D03*
X006588Y009084D03*
X006588Y009091D03*
X006595Y009126D03*
X006595Y009140D03*
X006595Y009147D03*
X006595Y009154D03*
X006602Y009182D03*
X006602Y009189D03*
X006602Y009196D03*
X006609Y009245D03*
X006609Y009252D03*
X006609Y009259D03*
D147*
X006585Y009063D03*
X006578Y008993D03*
X006858Y009028D03*
X006865Y008958D03*
D148*
X007456Y008958D03*
D149*
X007939Y008958D03*
D150*
X007435Y008965D03*
D151*
X007295Y008972D03*
D152*
X006861Y008993D03*
X006581Y009028D03*
D153*
X007288Y008993D03*
D154*
X007901Y008993D03*
D155*
X006861Y009000D03*
X006861Y009007D03*
X006861Y009014D03*
X006861Y009021D03*
X006581Y009035D03*
X006581Y009042D03*
D156*
X007827Y009056D03*
X007890Y009007D03*
X007897Y009000D03*
D157*
X007852Y009364D03*
X007852Y009371D03*
X007278Y009406D03*
X007278Y009091D03*
X007278Y009014D03*
D158*
X007274Y009021D03*
X007274Y009084D03*
X007610Y009161D03*
X007855Y009385D03*
X007274Y009420D03*
D159*
X007267Y009028D03*
D160*
X007866Y009028D03*
D161*
X007260Y009035D03*
X007260Y009070D03*
D162*
X007852Y009035D03*
D163*
X007239Y009049D03*
X007239Y009056D03*
D164*
X006854Y009063D03*
X006847Y009098D03*
X006595Y009133D03*
X006588Y009098D03*
X006602Y009203D03*
X006609Y009238D03*
D165*
X007820Y009063D03*
D166*
X007855Y009406D03*
X007267Y009434D03*
X007267Y009077D03*
D167*
X006851Y009084D03*
X006851Y009091D03*
X006844Y009140D03*
X006844Y009147D03*
X006844Y009154D03*
X006844Y009161D03*
X006837Y009175D03*
X006837Y009182D03*
X006837Y009189D03*
X006837Y009196D03*
X006837Y009210D03*
X006837Y009217D03*
X006830Y009259D03*
D168*
X006718Y009441D03*
X007796Y009091D03*
X007852Y009476D03*
D169*
X007281Y009098D03*
D170*
X007771Y009112D03*
D171*
X007435Y009119D03*
X007442Y009329D03*
D172*
X007453Y009315D03*
X007446Y009126D03*
X007698Y009329D03*
X007698Y009336D03*
D173*
X007761Y009126D03*
D174*
X006844Y009133D03*
X006844Y009168D03*
X006837Y009203D03*
D175*
X007453Y009133D03*
D176*
X007750Y009133D03*
D177*
X007747Y009140D03*
X007852Y009490D03*
D178*
X007740Y009147D03*
D179*
X007610Y009154D03*
D180*
X007603Y009168D03*
D181*
X007596Y009182D03*
D182*
X007586Y009203D03*
D183*
X007579Y009231D03*
X007579Y009245D03*
X007579Y009252D03*
X007579Y009259D03*
X007579Y009266D03*
X007579Y009280D03*
X007579Y009287D03*
D184*
X006833Y009238D03*
D185*
X007579Y009238D03*
X007579Y009273D03*
D186*
X006718Y009266D03*
D187*
X006718Y009308D03*
D188*
X006718Y009343D03*
D189*
X007292Y009343D03*
D190*
X007288Y009350D03*
X007288Y009357D03*
X007288Y009364D03*
X007288Y009371D03*
D191*
X007211Y009490D03*
X006714Y009385D03*
X006714Y009371D03*
X006714Y009364D03*
D192*
X007278Y009413D03*
X007852Y009378D03*
D193*
X007852Y009392D03*
X007852Y009399D03*
X007271Y009427D03*
D194*
X007852Y009413D03*
D195*
X007264Y009441D03*
D196*
X006718Y009448D03*
D197*
X007852Y009448D03*
D198*
X007852Y009455D03*
D199*
X007236Y009476D03*
D200*
X006714Y009483D03*
D201*
X006718Y009497D03*
D202*
X007180Y009497D03*
D203*
X007852Y009497D03*
D204*
X007852Y009511D03*
D205*
X007075Y009910D03*
X007075Y009917D03*
X007075Y009924D03*
X007075Y009931D03*
X007075Y009945D03*
X007075Y009952D03*
X007075Y009959D03*
D206*
X007075Y009938D03*
D207*
X008706Y000680D02*
X008706Y000555D01*
X008731Y000530D01*
X008781Y000530D01*
X008806Y000555D01*
X008806Y000680D01*
X008853Y000655D02*
X008878Y000680D01*
X008928Y000680D01*
X008953Y000655D01*
X009000Y000680D02*
X009100Y000680D01*
X009100Y000655D01*
X009000Y000555D01*
X009000Y000530D01*
X008953Y000555D02*
X008953Y000580D01*
X008928Y000605D01*
X008878Y000605D01*
X008853Y000630D01*
X008853Y000655D01*
X008903Y000705D02*
X008903Y000505D01*
X008928Y000530D02*
X008953Y000555D01*
X008928Y000530D02*
X008878Y000530D01*
X008853Y000555D01*
M02*
