%
M48
M72
T01C0.0120
T02C0.0354
T03C0.0400
T04C0.0866
%
T01
X12550Y7100
X12300Y5350
X11450Y6950
X11850Y10600
X11850Y12450
X7150Y5300
X4650Y7250
X5350Y7300
X4850Y11000
X5100Y9750
X5350Y8850
X15600Y14150
X15300Y10350
X2850Y8500
X9950Y10700
X6000Y6300
X10200Y6050
X14800Y10100
X15050Y5750
X14000Y5750
X9500Y6000
X9000Y10550
X8450Y5950
X7250Y6650
X14550Y10700
X12950Y15600
X12100Y5850
X13250Y5800
X3300Y15150
X1250Y9400
X12300Y3650
X13250Y4650
X17350Y7600
X17350Y6900
X12800Y17550
X3350Y16350
X12100Y2700
X11100Y2700
X12050Y18050
X12350Y17450
X17500Y13750
X17850Y7700
X16500Y10000
X3950Y2650
X6150Y2650
X13050Y13500
X15050Y10550
X17050Y14550
X18250Y8500
X16300Y5200
X2900Y14350
X7650Y18100
X4450Y3950
X7350Y2650
X1450Y14050
X750Y7450
X1300Y7450
X13550Y2650
X11200Y1000
X16150Y5700
X16600Y4400
X18500Y7500
X7650Y1250
X11350Y700
X2600Y6900
X6850Y17650
X7350Y15650
X6150Y11000
X11700Y10000
X2900Y6000
X5900Y16700
X6150Y15400
X3200Y7450
X8500Y1000
X14500Y2650
X17500Y4850
X16200Y16050
X18750Y12200
X2800Y4150
X16800Y13050
X17300Y14750
X8950Y1900
X14250Y3050
X2700Y5200
X1800Y10300
X4100Y12150
X5100Y16200
X3950Y14300
X14100Y18250
X1450Y12100
X2150Y12800
X3250Y4500
X3100Y9000
X4850Y15650
X7450Y2200
X7300Y15150
X4150Y10750
X16150Y3650
X18500Y10300
X14700Y17200
X5700Y15300
X15900Y4750
X13450Y5300
X14050Y16400
X14050Y15450
X18250Y12100
X4150Y9550
X9800Y2150
X8900Y3300
X3650Y3550
X5900Y3400
X1800Y9400
X3850Y15850
X2300Y9350
X15950Y10650
X11950Y8550
X10600Y10550
X10850Y9550
X10700Y4600
X10800Y3350
X10050Y1900
X10300Y800
X10300Y300
X12350Y700
X8350Y10050
X8700Y9200
X10850Y7800
X6700Y10950
X12800Y12150
T02
X8976Y2559
X10709Y2559
T03
X9330Y9260
X10330Y9260
X9230Y8360
X10430Y8360
X9330Y7460
X10330Y7460
T04
X9843Y12598
M30
